<?xml version="1.0" encoding="UTF-8" standalone="no"?>
<!-- Created with Inkscape (http://www.inkscape.org/) -->

<svg
   width="57.544399mm"
   height="57.544399mm"
   viewBox="0 0 57.544399 57.544399"
   version="1.1"
   id="svg5"
   inkscape:version="1.1 (c4e8f9ed74, 2021-05-24)"
   sodipodi:docname="aliens.svg"
   xmlns:inkscape="http://www.inkscape.org/namespaces/inkscape"
   xmlns:sodipodi="http://sodipodi.sourceforge.net/DTD/sodipodi-0.dtd"
   xmlns="http://www.w3.org/2000/svg"
   xmlns:svg="http://www.w3.org/2000/svg">
  <sodipodi:namedview
     id="namedview7"
     pagecolor="#ffffff"
     bordercolor="#666666"
     borderopacity="1.0"
     inkscape:pageshadow="2"
     inkscape:pageopacity="0"
     inkscape:pagecheckerboard="0"
     inkscape:document-units="mm"
     showgrid="false"
     inkscape:zoom="0.84096521"
     inkscape:cx="212.25611"
     inkscape:cy="498.83158"
     inkscape:window-width="1920"
     inkscape:window-height="1080"
     inkscape:window-x="1280"
     inkscape:window-y="0"
     inkscape:window-maximized="1"
     inkscape:current-layer="layer1" />
  <defs
     id="defs2" />
  <g
     inkscape:label="Layer 1"
     inkscape:groupmode="layer"
     id="layer1"
     transform="translate(-4.2608583,-113.58264)">
    <g
       id="alien_yellow1"
       transform="matrix(0.54372657,0,0,0.54372657,-91.54739,-73.207513)">
      <path
         style="fill:#141414;fill-opacity:0;stroke-width:0.352778"
         d="m 176.20667,396.4536 v -52.91667 h 52.91667 52.91667 v 52.91667 52.91667 h -52.91667 -52.91667 z m 38.67121,34.69823 c 3.66054,-2.79416 7.25121,-3.49293 16.49388,-3.20988 7.12433,0.21819 9.41467,0.78714 12.24715,3.0424 2.61057,2.07857 3.9323,1.92523 5.24448,-0.60842 0.8378,-1.61768 1.13285,-10.02018 0.73282,-20.86955 -0.21105,-5.72382 -0.47561,-11.07373 -0.58794,-11.88868 -0.18829,-1.36617 -0.12122,-1.53221 0.8599,-2.12886 0.87177,-0.53015 0.99946,-0.76266 0.70642,-1.28629 -0.24633,-0.44016 -0.23807,-0.7588 0.0265,-1.02339 0.78213,-0.78213 9.91405,0.82573 13.55647,2.3869 0.48363,0.20728 0.68693,0.0881 0.83855,-0.49174 0.11294,-0.43188 0.7186,-0.98198 1.39007,-1.26254 1.23527,-0.51613 1.58,-1.46397 0.66075,-1.81672 -0.29104,-0.11168 -0.52917,-0.4644 -0.52917,-0.78382 0,-0.31942 -0.45451,-1.00976 -1.01003,-1.53407 l -1.01003,-0.95331 -7.70424,-0.0163 c -4.23733,-0.009 -7.85132,-0.16342 -8.03109,-0.3432 -0.17978,-0.17977 -0.40697,-1.44636 -0.50486,-2.81464 -0.1586,-2.21654 -0.10558,-2.50978 0.48626,-2.68959 2.90472,-0.88249 6.00773,-3.39429 6.49956,-5.26121 0.10675,-0.40519 0.54186,-0.77511 0.98734,-0.83942 1.37672,-0.19875 4.10545,-4.62027 3.32997,-5.39575 -0.19591,-0.19591 -2.79851,-0.86177 -5.78357,-1.47968 -2.98505,-0.61792 -5.61359,-1.24436 -5.84119,-1.39211 -0.22761,-0.14775 -0.52454,-0.78275 -0.65985,-1.41111 -0.54667,-2.53865 -1.98836,-4.49555 -4.11574,-5.58654 -1.25698,-0.64462 -4.1592,-0.93874 -4.1592,-0.42152 0,0.13734 0.56117,0.8244 1.24705,1.52681 1.41389,1.44795 1.90618,3.31564 1.14326,4.33739 -0.45083,0.6038 -0.72242,0.61788 -4.1703,0.21627 -3.55347,-0.41391 -15.19802,-0.26094 -18.40702,0.2418 -1.15952,0.18166 -1.3611,0.10109 -1.72047,-0.68764 -0.56017,-1.22944 -0.16771,-2.48265 1.27893,-4.08391 0.67417,-0.74622 1.22577,-1.4566 1.22577,-1.5786 0,-0.50583 -2.95121,-0.17037 -4.22695,0.48047 -1.72425,0.87965 -2.94584,2.47135 -3.71525,4.84092 -0.32844,1.01148 -0.77924,1.97745 -1.00178,2.14661 -0.22255,0.16916 -2.62713,0.75299 -5.34352,1.2974 -5.65815,1.13398 -6.52769,1.40436 -6.52304,2.02835 0.002,0.24733 0.63281,1.44189 1.40215,2.65456 1.11233,1.75333 1.58124,2.20486 2.2897,2.20486 0.65717,0 0.89091,0.18602 0.89091,0.70901 0,0.38996 0.3175,0.98086 0.70556,1.31313 0.38805,0.33226 0.70555,0.79472 0.70555,1.02768 0,0.59394 3.86442,2.94741 4.83966,2.94741 0.76514,0 0.80479,0.12821 0.80479,2.60264 0,1.7549 -0.15517,2.73141 -0.47638,2.99799 -0.31829,0.26416 -3.03151,0.40078 -8.17619,0.41169 l -7.69982,0.0163 -0.81964,0.88441 c -0.4508,0.48641 -0.81964,1.113 -0.81964,1.3924 0,0.2794 -0.3175,0.70628 -0.70556,0.94863 -1.04345,0.65165 -0.86099,1.30029 0.52917,1.88114 0.6791,0.28375 1.23472,0.73867 1.23472,1.01094 0,0.80455 0.64862,0.80069 3.12569,-0.0186 1.2883,-0.4261 3.83878,-1.02725 5.66773,-1.33588 5.43602,-0.91733 7.21512,-0.66195 5.85543,0.84048 -0.55743,0.61596 -0.53519,0.67795 0.40642,1.13263 l 0.99612,0.481 -0.17639,5.28335 c -0.097,2.90583 -0.17639,10.28396 -0.17639,16.39584 0,11.81924 0.16559,13.21657 1.693,14.28641 1.17805,0.82514 2.16897,0.63784 3.99349,-0.75485 z"
         id="path1551" />
      <path
         style="fill:#ecb83a;stroke-width:0.352778"
         d="m 210.88439,431.90668 c -1.52741,-1.06984 -1.693,-2.46717 -1.693,-14.28641 0,-6.11188 0.0794,-13.49001 0.17639,-16.39584 l 0.17639,-5.28335 -0.99612,-0.481 c -0.94161,-0.45468 -0.96385,-0.51666 -0.40642,-1.13262 1.35969,-1.50244 -0.41941,-1.75781 -5.85543,-0.84048 -1.82895,0.30863 -4.37943,0.90977 -5.66773,1.33587 -2.47707,0.81928 -3.12569,0.82314 -3.12569,0.0186 0,-0.27227 -0.55562,-0.72719 -1.23472,-1.01094 -1.39016,-0.58085 -1.57262,-1.22949 -0.52917,-1.88114 0.38806,-0.24235 0.70556,-0.66923 0.70556,-0.94863 0,-0.2794 0.36884,-0.90599 0.81964,-1.39241 l 0.81964,-0.8844 7.69982,-0.0163 c 5.14468,-0.0109 7.8579,-0.14752 8.17619,-0.41168 0.32121,-0.26658 0.47638,-1.24309 0.47638,-2.99799 0,-2.47443 -0.0396,-2.60264 -0.80479,-2.60264 -0.97524,0 -4.83966,-2.35347 -4.83966,-2.94741 0,-0.23296 -0.3175,-0.69542 -0.70555,-1.02768 -0.38806,-0.33227 -0.70556,-0.92317 -0.70556,-1.31313 0,-0.52299 -0.23374,-0.70901 -0.89091,-0.70901 -0.70846,0 -1.17737,-0.45153 -2.2897,-2.20486 -0.76934,-1.21267 -1.40031,-2.40723 -1.40215,-2.65456 -0.005,-0.62399 0.86489,-0.89437 6.52304,-2.02835 2.71639,-0.54441 5.12097,-1.12824 5.34352,-1.2974 0.22254,-0.16916 0.67334,-1.13513 1.00178,-2.14661 0.76941,-2.36957 1.991,-3.96127 3.71525,-4.84092 1.27574,-0.65084 4.22695,-0.9863 4.22695,-0.48047 0,0.122 -0.5516,0.83238 -1.22577,1.5786 -1.44664,1.60126 -1.8391,2.85447 -1.27893,4.08391 0.35937,0.78873 0.56095,0.8693 1.72047,0.68764 3.209,-0.50274 14.85355,-0.65571 18.40702,-0.2418 3.44788,0.40161 3.71947,0.38753 4.1703,-0.21627 0.76292,-1.02175 0.27063,-2.88944 -1.14326,-4.33739 -0.68588,-0.70241 -1.24705,-1.38947 -1.24705,-1.52681 0,-0.51722 2.90222,-0.2231 4.15919,0.42152 2.12738,1.09098 3.56908,3.04788 4.11574,5.58653 0.13531,0.62837 0.43224,1.26337 0.65985,1.41111 0.22761,0.14775 2.85615,0.7742 5.8412,1.39211 2.98505,0.61791 5.58765,1.28377 5.78357,1.47968 0.77548,0.77548 -1.95325,5.197 -3.32998,5.39575 -0.44548,0.0643 -0.88059,0.43423 -0.98733,0.83942 -0.49184,1.86692 -3.59484,4.37872 -6.49956,5.26122 -0.59185,0.1798 -0.64486,0.47305 -0.48627,2.68959 0.0979,1.36827 0.32509,2.63486 0.50486,2.81464 0.17977,0.17977 3.79377,0.33421 8.0311,0.3432 l 7.70423,0.0163 1.01004,0.95331 c 0.55551,0.52432 1.01003,1.21465 1.01003,1.53407 0,0.31942 0.23812,0.67214 0.52916,0.78383 0.91925,0.35275 0.57452,1.30059 -0.66075,1.81671 -0.67146,0.28056 -1.27713,0.83066 -1.39007,1.26255 -0.15162,0.5798 -0.35492,0.69902 -0.83855,0.49173 -3.64242,-1.56117 -12.77433,-3.16903 -13.55647,-2.38689 -0.26459,0.26459 -0.27285,0.58322 -0.0265,1.02338 0.29304,0.52363 0.16535,0.75614 -0.70642,1.28629 -0.98112,0.59666 -1.04818,0.76269 -0.85989,2.12886 0.11232,0.81495 0.37689,6.16486 0.58793,11.88868 0.40003,10.84937 0.10498,19.25187 -0.73282,20.86956 -1.31218,2.53364 -2.6339,2.68698 -5.24447,0.60841 -2.83249,-2.25525 -5.12282,-2.82421 -12.24716,-3.0424 -9.24267,-0.28305 -12.83334,0.41573 -16.49388,3.20988 -1.82452,1.39269 -2.81544,1.57999 -3.99349,0.75485 z m 22.59467,-39.09214 c 1.45463,-1.10949 2.13744,-2.18181 1.85613,-2.9149 -0.26881,-0.70051 -11.21974,-0.73943 -11.79861,-0.0419 -0.6075,0.732 0.78431,2.64861 2.50724,3.45262 2.24057,1.04557 5.71847,0.81366 7.43524,-0.49578 z m -22.57364,-12.6967 c 0.12107,-1.00776 0.2215,-2.34335 0.22319,-2.96796 0.004,-1.49223 -1.30256,-3.97961 -2.09043,-3.97961 -0.89281,0 -1.09371,-0.34281 -0.63313,-1.08033 0.22377,-0.35831 0.28011,-0.77776 0.1252,-0.9321 -0.43006,-0.4285 -7.31772,-0.26723 -8.45448,0.19795 l -1.00174,0.40993 0.9625,1.67241 c 1.339,2.32659 1.85539,2.85104 2.92973,2.97544 0.69023,0.0799 0.96529,0.3379 1.0556,0.99003 0.0672,0.48507 0.34499,1.00889 0.61736,1.16406 0.27238,0.15516 0.49523,0.50154 0.49523,0.76973 0,0.97232 4.08627,3.17476 5.14002,2.7704 0.22596,-0.0867 0.50989,-0.98218 0.63095,-1.98995 z m 40.70102,0.93713 c 0.82105,-0.46821 1.67825,-1.20349 1.90489,-1.63397 0.22664,-0.43047 0.5826,-0.89339 0.79102,-1.02869 0.20841,-0.13531 0.38308,-0.61156 0.38816,-1.05834 0.007,-0.65236 0.24643,-0.84705 1.2139,-0.9887 1.05004,-0.15375 1.35957,-0.45906 2.41142,-2.37851 l 1.20675,-2.20212 -0.82392,-0.31187 c -2.53458,-0.95939 -8.76143,-0.84347 -8.76143,0.1631 0,0.27283 0.15875,0.49606 0.35278,0.49606 0.19403,0 0.35278,0.23813 0.35278,0.52917 0,0.29104 -0.30242,0.52917 -0.67204,0.52917 -0.42004,0 -1.00926,0.57544 -1.5714,1.53466 -0.81002,1.38218 -0.88053,1.79401 -0.70972,4.14514 0.10431,1.43576 0.25233,2.81281 0.32894,3.06011 0.18459,0.59592 1.65975,0.2443 3.58787,-0.85521 z m -29.51152,-2.21312 c 1.35297,-1.35297 1.33939,-2.59545 -0.0435,-3.97833 -0.92915,-0.92915 -1.25166,-1.04638 -2.38125,-0.86554 -2.48796,0.39829 -3.43994,3.24458 -1.67536,5.00915 1.21375,1.21376 2.78438,1.15045 4.10011,-0.16528 z m 18.54458,0.19497 c 2.89845,-2.49315 -0.87477,-6.79679 -3.88386,-4.42984 -0.74995,0.58991 -0.92952,1.02796 -0.92952,2.26745 0,1.2395 0.17957,1.67754 0.92952,2.26745 1.22671,0.96494 2.6858,0.92546 3.88386,-0.10506 z"
         id="path1549" />
      <path
         style="fill:#a021aa;fill-opacity:1;stroke-width:0.352778"
         d="m 226.04382,393.31032 c -1.72293,-0.80401 -3.11474,-2.72062 -2.50724,-3.45262 0.57887,-0.69749 11.5298,-0.65857 11.79861,0.0419 0.28131,0.73309 -0.4015,1.80541 -1.85613,2.9149 -1.71677,1.30944 -5.19467,1.54135 -7.43524,0.49578 z m -17.43879,-11.47757 c -1.64372,-0.56508 -3.47058,-1.87861 -3.47058,-2.49536 0,-0.26819 -0.22285,-0.61457 -0.49523,-0.76973 -0.27237,-0.15517 -0.55019,-0.67899 -0.61736,-1.16406 -0.0903,-0.65213 -0.36537,-0.91011 -1.0556,-0.99003 -1.07434,-0.1244 -1.59073,-0.64885 -2.92973,-2.97544 l -0.9625,-1.67241 1.00174,-0.40993 c 1.13676,-0.46518 8.02442,-0.62645 8.45448,-0.19795 0.15491,0.15434 0.0986,0.57379 -0.1252,0.9321 -0.46058,0.73752 -0.25968,1.08033 0.63313,1.08033 0.78787,0 2.09445,2.48738 2.09043,3.97961 -0.006,2.22627 -0.44989,4.80279 -0.85414,4.95791 -0.22595,0.0867 -0.9772,-0.0371 -1.66944,-0.27504 z m 39.41354,0.0774 c -0.0766,-0.2473 -0.22463,-1.62435 -0.32894,-3.06011 -0.17081,-2.35113 -0.1003,-2.76296 0.70972,-4.14514 0.56214,-0.95922 1.15136,-1.53466 1.5714,-1.53466 0.36962,0 0.67204,-0.23813 0.67204,-0.52917 0,-0.29104 -0.15875,-0.52917 -0.35278,-0.52917 -0.19403,0 -0.35278,-0.22323 -0.35278,-0.49606 0,-1.00657 6.22685,-1.12249 8.76143,-0.1631 l 0.82392,0.31187 -1.20675,2.20212 c -1.05185,1.91945 -1.36138,2.22476 -2.41142,2.37851 -0.96747,0.14165 -1.2065,0.33634 -1.2139,0.9887 -0.005,0.44678 -0.17975,0.92303 -0.38816,1.05834 -0.20842,0.1353 -0.56438,0.59822 -0.79102,1.02869 -0.77777,1.47726 -5.18724,3.47552 -5.49276,2.48918 z m -30.02376,-2.90305 c -1.76458,-1.76457 -0.8126,-4.61086 1.67536,-5.00915 1.12959,-0.18084 1.4521,-0.0636 2.38125,0.86554 1.38289,1.38288 1.39647,2.62536 0.0435,3.97833 -1.31573,1.31573 -2.88636,1.37904 -4.10011,0.16528 z m 18.76083,0.13475 c -0.74995,-0.58991 -0.92952,-1.02795 -0.92952,-2.26745 0,-1.23949 0.17957,-1.67754 0.92952,-2.26745 1.22671,-0.96493 2.6858,-0.92546 3.88386,0.10507 2.89845,2.49314 -0.87477,6.79679 -3.88386,4.42983 z"
         id="path1547" />
    </g>
  </g>
</svg>
