<?xml version="1.0" encoding="UTF-8" standalone="no"?>
<!-- Created with Inkscape (http://www.inkscape.org/) -->

<svg
   width="57.544395mm"
   height="57.544399mm"
   viewBox="0 0 57.544395 57.544399"
   version="1.1"
   id="svg5"
   inkscape:version="1.1 (c4e8f9ed74, 2021-05-24)"
   sodipodi:docname="aliens.svg"
   xmlns:inkscape="http://www.inkscape.org/namespaces/inkscape"
   xmlns:sodipodi="http://sodipodi.sourceforge.net/DTD/sodipodi-0.dtd"
   xmlns="http://www.w3.org/2000/svg"
   xmlns:svg="http://www.w3.org/2000/svg">
  <sodipodi:namedview
     id="namedview7"
     pagecolor="#ffffff"
     bordercolor="#666666"
     borderopacity="1.0"
     inkscape:pageshadow="2"
     inkscape:pageopacity="0"
     inkscape:pagecheckerboard="0"
     inkscape:document-units="mm"
     showgrid="false"
     inkscape:zoom="0.84096521"
     inkscape:cx="212.25611"
     inkscape:cy="498.83158"
     inkscape:window-width="1920"
     inkscape:window-height="1080"
     inkscape:window-x="1280"
     inkscape:window-y="0"
     inkscape:window-maximized="1"
     inkscape:current-layer="layer1" />
  <defs
     id="defs2" />
  <g
     inkscape:label="Layer 1"
     inkscape:groupmode="layer"
     id="layer1"
     transform="translate(-4.260861,-0.92892034)">
    <g
       id="alien_red"
       transform="matrix(0.54372657,0,0,0.54372657,-25.007769,-26.757368)">
      <path
         style="fill:#141414;fill-opacity:0;stroke-width:0.352778"
         d="M 53.829685,103.83618 V 50.919506 h 52.916665 52.91667 v 52.916674 52.91667 H 106.74635 53.829685 Z m 37.374674,36.51948 c 0.814024,-0.28721 2.701487,-1.38297 4.194365,-2.43503 3.963085,-2.79286 5.520646,-3.21922 11.700406,-3.20283 5.97731,0.0159 7.13997,0.35483 11.1125,3.23979 3.85043,2.79628 7.10756,3.55518 10.34943,2.41138 2.30908,-0.81469 3.54072,-1.95973 4.74842,-4.41452 l 1.12993,-2.29673 v -6.09141 c 0,-3.35028 0.0246,-6.09137 0.0547,-6.09133 0.27476,3.5e-4 1.8856,3.29391 1.8856,3.85527 0,0.57617 0.223,0.73093 1.05327,0.73093 1.3869,0 4.16392,0.64919 5.40435,1.26339 0.94302,0.46693 1.01758,0.44116 1.58526,-0.54796 0.36535,-0.63659 0.93759,-1.07789 1.47988,-1.14127 0.66944,-0.0782 0.9112,-0.33801 0.99544,-1.06962 0.0612,-0.53146 0.39857,-1.16752 0.74973,-1.41349 0.55351,-0.38769 0.60832,-0.7762 0.41186,-2.91949 -0.23756,-2.59173 -1.00133,-4.27567 -3.17869,-7.00826 -0.60102,-0.75429 -1.09277,-1.57692 -1.09277,-1.82807 0,-0.25115 -0.47625,-0.79575 -1.05833,-1.21023 -0.58208,-0.41448 -1.05833,-1.05241 -1.05833,-1.41761 0,-0.3652 -0.27661,-0.8188 -0.61469,-1.008 -0.33808,-0.1892 -0.61589,-0.62502 -0.61736,-0.96849 -0.002,-0.43667 -0.99544,-1.11117 -3.30348,-2.24259 -1.81544,-0.88995 -3.29307,-1.75564 -3.28362,-1.92375 0.009,-0.16811 1.11941,-0.7345 2.46656,-1.25864 3.57166,-1.389636 6.30243,-3.405867 7.36212,-5.435722 0.62828,-1.203491 0.6609,-4.705255 0.0669,-7.180221 -1.3193,-5.497038 -5.10708,-9.924275 -10.8424,-12.672843 -2.83169,-1.357048 -3.50872,-1.823363 -3.36317,-2.316445 0.13435,-0.45514 -0.0202,-0.617362 -0.58822,-0.617362 -0.66721,0 -0.73623,-0.129995 -0.51509,-0.970139 0.59265,-2.251578 0.60544,-5.039534 0.0271,-5.922121 -1.03953,-1.586525 -2.12856,-1.062642 -3.52604,1.696219 -1.00985,1.993641 -3.83017,4.490486 -5.07224,4.490486 -0.86236,0 -1.10557,-0.218017 -1.57423,-1.411111 -0.64058,-1.630758 -1.11587,-1.726759 -3.40574,-0.687903 -0.85798,0.389243 -1.68366,0.584011 -1.83485,0.432817 -0.1512,-0.151193 0.0393,-0.976693 0.42333,-1.834444 1.1578,-2.586034 0.0207,-2.752235 -3.29452,-0.481552 -1.23936,0.848859 -1.36949,0.870606 -1.96806,0.328909 -0.87409,-0.791044 -1.46734,-0.728416 -1.46734,0.154904 0,1.042202 -0.72861,0.686665 -1.73479,-0.84652 -0.46907,-0.71475 -1.13082,-1.299545 -1.47054,-1.299545 -0.65009,0 -1.65931,1.456004 -2.44526,3.527778 -0.25762,0.679097 -0.50995,1.290441 -0.56073,1.358543 -0.0508,0.0681 -0.65123,-0.302469 -1.334321,-0.823489 -1.4541,-1.109096 -4.139656,-2.002477 -4.797464,-1.595931 -0.321871,0.198928 -0.38959,0.714773 -0.227171,1.730477 0.216263,1.352424 0.176689,1.447067 -0.605049,1.447067 -1.223098,0 -3.848728,-2.484346 -5.029819,-4.759164 -1.228674,-2.366466 -2.343826,-2.876921 -3.409611,-1.560733 -0.563866,0.696344 -0.649165,1.209078 -0.49303,2.963599 0.103839,1.166866 0.297203,2.558138 0.429697,3.091714 0.188122,0.7576 0.115958,0.970139 -0.329394,0.970139 -0.31366,0 -0.573933,0.277813 -0.578382,0.617362 -0.0056,0.430076 -1.076942,1.133861 -3.531421,2.319937 -7.183688,3.471368 -11.277157,9.607473 -11.277157,16.904445 0,1.948847 0.146391,2.479485 1.014733,3.678196 1.208754,1.668635 4.176609,3.712363 6.910016,4.758373 1.086925,0.41595 1.918554,0.93067 1.848064,1.14384 -0.07049,0.21316 -1.583834,1.0926 -3.362988,1.95431 -2.649808,1.2834 -3.234825,1.70975 -3.234825,2.35748 0,0.4863 -0.277316,0.87875 -0.720298,1.01935 -0.501901,0.1593 -0.657893,0.42524 -0.514478,0.8771 0.148504,0.46789 -0.093,0.82499 -0.867202,1.28233 -0.590162,0.34861 -1.073022,0.80907 -1.073022,1.02324 0,0.21416 -0.648083,1.2515 -1.440184,2.30519 -2.256846,3.00215 -2.872331,4.45158 -3.012016,7.09311 -0.103156,1.95073 -0.01876,2.43679 0.470686,2.7107 0.333906,0.18686 0.603806,0.77579 0.613253,1.33814 0.01393,0.82922 0.186638,1.02392 0.990229,1.11634 0.656135,0.0754 1.14772,0.44911 1.508366,1.14652 0.595075,1.15076 0.939543,1.27137 1.545539,0.54119 0.383125,-0.46163 1.142294,-0.6394 4.867555,-1.13981 1.124942,-0.15111 1.538958,-0.38434 1.702233,-0.95892 0.387733,-1.36448 2.680058,-5.94418 2.876816,-5.74742 0.10554,0.10554 -0.0085,1.76451 -0.253474,3.68661 -0.537474,4.2175 -0.287887,9.46666 0.564514,11.87248 0.742971,2.09696 3.310346,4.80619 5.088706,5.36986 1.792612,0.56818 4.627792,0.54185 6.330228,-0.0588 z"
         id="path1028" />
      <path
         style="fill:#f4901f;stroke-width:0.352778"
         d="m 84.874131,140.41446 c -1.77836,-0.56367 -4.345735,-3.2729 -5.088706,-5.36986 -0.852401,-2.40582 -1.101988,-7.65498 -0.564514,-11.87248 0.24495,-1.9221 0.359014,-3.58107 0.253474,-3.68661 -0.196758,-0.19676 -2.489083,4.38294 -2.876816,5.74742 -0.163275,0.57458 -0.577291,0.80781 -1.702233,0.95892 -3.725261,0.50041 -4.48443,0.67818 -4.867555,1.13981 -0.605996,0.73018 -0.950464,0.60957 -1.545539,-0.54119 -0.360646,-0.69741 -0.852231,-1.07107 -1.508366,-1.14652 -0.803591,-0.0924 -0.9763,-0.28712 -0.990229,-1.11634 -0.0094,-0.56235 -0.279347,-1.15128 -0.613253,-1.33814 -0.489442,-0.27391 -0.573842,-0.75997 -0.470686,-2.7107 0.139685,-2.64153 0.75517,-4.09096 3.012016,-7.09311 0.792101,-1.05369 1.440184,-2.09103 1.440184,-2.30519 0,-0.21417 0.48286,-0.67463 1.073022,-1.02324 0.774207,-0.45734 1.015706,-0.81444 0.867202,-1.28233 -0.143415,-0.45186 0.01258,-0.7178 0.514478,-0.8771 0.442982,-0.1406 0.720298,-0.53305 0.720298,-1.01935 0,-0.64773 0.585017,-1.07408 3.234825,-2.35748 1.779154,-0.86171 3.292499,-1.74115 3.362988,-1.95431 0.07049,-0.21317 -0.761139,-0.72789 -1.848064,-1.14384 -2.733407,-1.04601 -5.701262,-3.089738 -6.910016,-4.758373 -0.868342,-1.198711 -1.014733,-1.729349 -1.014733,-3.678196 0,-7.296972 4.093469,-13.433077 11.277157,-16.904445 2.454479,-1.186076 3.525784,-1.889861 3.531421,-2.319937 0.0044,-0.339549 0.264722,-0.617362 0.578382,-0.617362 0.445352,0 0.517516,-0.212539 0.329394,-0.970139 -0.132494,-0.533576 -0.325858,-1.924848 -0.429697,-3.091714 -0.156135,-1.754521 -0.07084,-2.267255 0.49303,-2.963599 1.065785,-1.316188 2.180937,-0.805733 3.409611,1.560733 1.181091,2.274818 3.806721,4.759164 5.029819,4.759164 0.781738,0 0.821312,-0.09464 0.605049,-1.447067 -0.162419,-1.015704 -0.0947,-1.531549 0.227171,-1.730477 0.657808,-0.406546 3.343364,0.486835 4.797464,1.595931 0.683091,0.52102 1.283541,0.89159 1.334321,0.823489 0.0508,-0.0681 0.30311,-0.679446 0.56073,-1.358543 0.78595,-2.071774 1.79517,-3.527778 2.44526,-3.527778 0.33972,0 1.00147,0.584795 1.47054,1.299545 1.00618,1.533185 1.7348,1.888722 1.7348,0.84652 0,-0.88332 0.59324,-0.945948 1.46733,-0.154904 0.59857,0.541697 0.7287,0.51995 1.96806,-0.328909 3.31527,-2.270683 4.45232,-2.104482 3.29452,0.481552 -0.38403,0.857751 -0.57453,1.683251 -0.42333,1.834444 0.15119,0.151194 0.97687,-0.04357 1.83485,-0.432817 2.28987,-1.038856 2.76516,-0.942855 3.40574,0.687903 0.46866,1.193094 0.71187,1.411111 1.57423,1.411111 1.24207,0 4.06239,-2.496845 5.07225,-4.490486 1.39748,-2.758861 2.48651,-3.282744 3.52604,-1.696219 0.5783,0.882587 0.56551,3.670543 -0.0271,5.922121 -0.22114,0.840144 -0.15212,0.970139 0.5151,0.970139 0.568,0 0.72257,0.162222 0.58822,0.617362 -0.14556,0.493082 0.53147,0.959397 3.36317,2.316445 5.73531,2.748568 9.52309,7.175805 10.8424,12.672843 0.594,2.474966 0.56137,5.97673 -0.0669,7.180221 -1.05968,2.029855 -3.79045,4.046086 -7.36212,5.435722 -1.34715,0.52414 -2.4571,1.09053 -2.46656,1.25864 -0.009,0.16811 1.46818,1.0338 3.28362,1.92375 2.30804,1.13142 3.30161,1.80592 3.30348,2.24259 0.001,0.34347 0.27928,0.77929 0.61736,0.96849 0.33808,0.1892 0.61469,0.6428 0.61469,1.008 0,0.3652 0.47625,1.00313 1.05833,1.41761 0.58209,0.41448 1.05834,0.95908 1.05834,1.21023 0,0.25115 0.49174,1.07378 1.09276,1.82807 2.17737,2.73259 2.94114,4.41653 3.1787,7.00826 0.19645,2.14329 0.14164,2.5318 -0.41187,2.91949 -0.35116,0.24597 -0.68854,0.88203 -0.74973,1.41349 -0.0842,0.73161 -0.32599,0.99139 -0.99544,1.06962 -0.54229,0.0634 -1.11453,0.50468 -1.47988,1.14127 -0.56767,0.98912 -0.64223,1.01489 -1.58525,0.54796 -1.24045,-0.6142 -4.01747,-1.26339 -5.40437,-1.26339 -0.83027,0 -1.05327,-0.15476 -1.05327,-0.73093 0,-0.56136 -1.61084,-3.85485 -1.8856,-3.85527 -0.0301,-4e-5 -0.0547,2.74105 -0.0547,6.09133 v 6.09141 l -1.12993,2.29673 c -1.2077,2.45479 -2.43934,3.59983 -4.74842,4.41452 -3.24187,1.1438 -6.499,0.3849 -10.34943,-2.41138 -3.97253,-2.88496 -5.13519,-3.22392 -11.1125,-3.23979 -6.17976,-0.0164 -7.737321,0.40997 -11.700406,3.20283 -1.492878,1.05206 -3.380341,2.14782 -4.194365,2.43503 -1.702436,0.60065 -4.537616,0.62698 -6.330228,0.0588 z m 7.249902,-0.8669 c 0.774573,-0.39516 2.278027,-1.3721 3.341014,-2.17097 3.622075,-2.72214 9.033783,-3.95352 14.210613,-3.23349 3.82616,0.53217 5.73829,1.28834 8.67519,3.43068 4.25109,3.10099 8.01702,3.70067 11.42124,1.8187 3.3761,-1.86643 4.71228,-5.74736 4.34697,-12.62575 -0.1288,-2.42534 -0.32412,-5.12409 -0.43403,-5.99722 -0.24015,-1.90784 0.2008,-1.6469 1.60991,0.95266 0.4996,0.92168 1.2766,1.8586 1.72669,2.08204 0.45007,0.22344 1.05113,0.73864 1.33568,1.14488 0.28454,0.40625 1.14525,0.92676 1.91269,1.15669 1.19734,0.35873 1.6085,0.32364 2.89765,-0.24727 1.67858,-0.74338 3.4426,-2.30836 3.4426,-3.05416 0,-0.26888 0.23307,-0.79703 0.51794,-1.17366 1.18065,-1.56096 0.4889,-4.03798 -2.08322,-7.45966 -0.88535,-1.17777 -1.60972,-2.30998 -1.60972,-2.51601 0,-0.20603 -0.55563,-0.7984 -1.23473,-1.31637 -0.67909,-0.51798 -1.23472,-1.20224 -1.23472,-1.5206 0,-0.31835 -0.31306,-0.77433 -0.6957,-1.01329 -0.39441,-0.24632 -0.61009,-0.65754 -0.49803,-0.94957 0.14413,-0.37561 -0.72586,-0.94665 -3.21285,-2.10883 -4.05878,-1.89668 -4.20316,-2.38357 -1.04542,-3.52559 2.10939,-0.76287 4.6982,-2.269505 3.15895,-1.838442 -6.14962,1.722192 -7.15952,1.705642 -9.78994,-0.160401 -2.80541,-1.990178 -3.22125,-4.079335 -1.08169,-5.434366 0.61755,-0.39111 1.17318,-1.028608 1.23472,-1.416663 0.0823,-0.51906 0.56585,-0.817588 1.82927,-1.129397 0.94454,-0.233113 1.80507,-0.511549 1.91227,-0.618752 0.1072,-0.107202 -0.16162,-0.574414 -0.59737,-1.038249 -1.00991,-1.075002 -0.51468,-1.422792 1.57889,-1.108841 1.36655,0.204925 1.56246,0.152972 1.56246,-0.414373 0,-0.817996 -0.77844,-1.990788 -2.5598,-3.85657 -1.31778,-1.380229 -1.35492,-1.476821 -0.65342,-1.699468 0.98396,-0.312295 0.93801,-0.690075 -0.19203,-1.578965 -1.23093,-0.968249 -0.81988,-1.305648 0.89938,-0.73824 3.15859,1.042429 6.96086,4.957017 9.20864,9.480668 0.6791,1.366679 1.35379,2.494079 1.49931,2.505333 0.41,0.03172 0.30674,-1.377153 -0.25588,-3.491318 -1.67434,-6.291612 -5.90225,-10.595159 -13.32248,-13.560809 -0.94714,-0.378546 -1.25993,-0.682077 -1.10878,-1.075965 0.13459,-0.35075 0.0136,-0.548667 -0.33555,-0.548667 -0.862,0 -0.97703,-0.531971 -0.409,-1.89147 1.00596,-2.407592 0.49304,-5.869641 -0.86961,-5.869641 -0.49288,0 -0.97248,0.521245 -1.57669,1.713598 -1.10522,2.18104 -2.26207,3.55128 -4.03631,4.780828 -1.29018,0.894102 -1.49122,0.936114 -2.39855,0.501245 -0.54468,-0.26106 -1.04904,-0.790945 -1.1208,-1.177524 -0.31377,-1.690354 -0.92886,-1.794518 -3.68222,-0.623576 -2.14471,0.912096 -2.39311,0.295377 -1.13316,-2.813321 0.43112,-1.063712 -1.03153,-0.732482 -2.83104,0.641113 -1.51407,1.155719 -1.69857,1.213329 -2.25966,0.705556 -0.79505,-0.719508 -0.96442,-0.697724 -1.18679,0.152636 -0.28598,1.093561 -0.8713,0.846521 -2.08963,-0.881944 -0.61544,-0.873125 -1.2495,-1.5875 -1.40903,-1.5875 -0.42403,0 -1.6389,2.087037 -2.10486,3.615972 -0.44001,1.443787 -1.2738,1.73669 -2.100379,0.737843 -0.617464,-0.74615 -3.065308,-1.866522 -4.100139,-1.876623 -0.877888,-0.0086 -1.027956,0.659352 -0.408291,1.817208 0.42557,0.795186 0.189664,1.150269 -1.003769,1.510858 -0.644896,0.19485 -1.203071,-0.146807 -2.961034,-1.812434 -1.191485,-1.1289 -2.472659,-2.736668 -2.847055,-3.572817 -0.839617,-1.875138 -1.577478,-2.220351 -2.447994,-1.14531 -0.795073,0.981875 -0.848189,3.097309 -0.121441,4.836661 0.291042,0.696561 0.529167,1.485212 0.529167,1.752558 0,0.267346 -0.238125,0.486084 -0.529167,0.486084 -0.291042,0 -0.529167,0.220539 -0.529167,0.490087 0,0.272037 -1.635497,1.288915 -3.67592,2.285521 -6.228686,3.042284 -9.608009,7.019424 -10.975877,12.917557 -0.84263,3.633347 -0.493141,3.841352 1.194633,0.711003 2.827015,-5.243319 5.697693,-8.26447 9.08035,-9.556319 1.73304,-0.661854 2.536005,-0.371987 1.290009,0.465688 -0.95141,0.639626 -1.018332,1.337131 -0.176389,1.838431 0.557768,0.3321 0.507143,0.461492 -0.524451,1.340447 -1.499516,1.27764 -2.915133,3.241006 -2.915133,4.043096 0,0.568332 0.217535,0.614532 1.940278,0.412055 2.116639,-0.248768 2.322273,-0.05382 1.201561,1.139123 -0.708154,0.753794 -0.711803,0.800248 -0.08819,1.122828 0.357787,0.185078 1.245835,0.443968 1.973439,0.575314 0.986297,0.178043 1.322917,0.411113 1.322917,0.915966 0,0.372438 0.305121,0.840455 0.678047,1.040039 1.258501,0.67353 1.791397,1.470589 1.791397,2.679421 0,1.074254 -0.255183,1.394139 -2.38125,2.985022 -2.377313,1.778886 -2.384815,1.781506 -4.537479,1.588986 -1.185926,-0.10606 -2.901092,-0.44664 -3.811481,-0.756836 -3.488034,-1.188494 -1.541365,0.1937 2.732226,1.939956 0.548817,0.22426 0.940453,0.6039 0.870302,0.84365 -0.07015,0.23975 -1.580878,1.15029 -3.357173,2.02341 -2.33195,1.14625 -3.23572,1.7728 -3.251552,2.25417 -0.01206,0.36666 -0.29974,0.8698 -0.639288,1.11809 -0.339549,0.24828 -0.637205,0.62297 -0.661459,0.83264 -0.02425,0.20966 -0.06394,0.50574 -0.08819,0.65793 -0.02425,0.15219 -0.520347,0.55804 -1.102431,0.90189 -0.582083,0.34384 -1.058333,0.86553 -1.058333,1.1593 0,0.29377 -0.620922,1.27698 -1.379827,2.18491 -0.758905,0.90794 -1.72119,2.31351 -2.138412,3.12348 -0.821961,1.59573 -1.038442,4.16591 -0.404298,4.80006 0.217117,0.21711 0.394759,0.69272 0.394759,1.05689 0,0.76227 1.82951,2.72453 2.540202,2.72453 0.262794,0 0.844273,0.25668 1.292175,0.57041 1.192755,0.83544 3.004185,0.41509 4.660768,-1.08153 0.762666,-0.68902 1.555216,-1.25277 1.761221,-1.25277 0.206004,0 0.991377,-1.33511 1.745272,-2.96691 2.198389,-4.7584 2.514322,-4.40687 1.584387,1.76293 -1.800259,11.94409 1.387803,18.44629 8.827741,18.00457 1.213421,-0.0721 2.731953,-0.43489 3.535359,-0.84476 z m 10.388987,-12.20228 c -5.287118,-1.43933 -8.828147,-5.23056 -8.815997,-9.43892 0.0049,-1.70101 1.42809,-4.53306 2.949071,-5.8685 5.648556,-4.9595 15.722086,-4.71726 20.754566,0.49909 5.02142,5.20488 1.88401,12.6276 -6.23051,14.74061 -2.47698,0.645 -6.42319,0.67587 -8.65713,0.0677 z m 2.33746,-27.693373 c -0.31546,-0.348584 -0.57357,-0.946725 -0.57357,-1.329204 0,-1.508491 1.79118,-2.103871 2.47658,-0.823203 0.82298,1.537751 -0.79901,3.37231 -1.90301,2.152407 z M 95.970598,85.684155 c -1.058227,-1.058225 -1.104667,-2.26319 -0.13475,-3.496238 1.204267,-1.530976 3.493336,-1.240989 4.424962,0.560568 1.40845,2.723655 -2.100887,5.124996 -4.290212,2.93567 z m 17.831312,0.160353 c -0.43677,-0.436772 -0.70555,-1.175926 -0.70555,-1.940278 0,-1.594794 1.02661,-2.645833 2.58434,-2.645833 2.39058,0 3.60747,2.911917 1.89084,4.524617 -1.03916,0.976233 -2.82574,1.005379 -3.76963,0.06149 z"
         id="path1026" />
      <path
         style="fill:#d20905;stroke-width:0.352778"
         d="m 85.123531,140.00588 c -2.090499,-0.80102 -3.207604,-1.75726 -4.205603,-3.59999 -1.717443,-3.17112 -2.097624,-7.77739 -1.156995,-14.01814 0.929935,-6.1698 0.614002,-6.52133 -1.584387,-1.76293 -0.753895,1.6318 -1.539268,2.96691 -1.745272,2.96691 -0.206005,0 -0.998555,0.56375 -1.761221,1.25277 -1.656583,1.49662 -3.468013,1.91697 -4.660768,1.08153 -0.447902,-0.31373 -1.029381,-0.57041 -1.292175,-0.57041 -0.710692,0 -2.540202,-1.96226 -2.540202,-2.72453 0,-0.36417 -0.177642,-0.83978 -0.394759,-1.05689 -0.634144,-0.63415 -0.417663,-3.20433 0.404298,-4.80006 0.417222,-0.80997 1.379507,-2.21554 2.138412,-3.12348 0.758905,-0.90793 1.379827,-1.89114 1.379827,-2.18491 0,-0.29377 0.47625,-0.81546 1.058333,-1.1593 0.582084,-0.34385 1.078178,-0.7497 1.102431,-0.90189 0.02425,-0.15219 0.06394,-0.44827 0.08819,-0.65793 0.02425,-0.20967 0.32191,-0.58436 0.661459,-0.83264 0.339548,-0.24829 0.627228,-0.75143 0.639288,-1.11809 0.01583,-0.48137 0.919602,-1.10792 3.251552,-2.25417 1.776295,-0.87312 3.287023,-1.78366 3.357173,-2.02341 0.07015,-0.23975 -0.321485,-0.61939 -0.870302,-0.84365 -4.273591,-1.746256 -6.22026,-3.12845 -2.732226,-1.939956 0.910389,0.310196 2.625555,0.650776 3.811481,0.756836 2.152664,0.19252 2.160166,0.1899 4.537479,-1.588986 2.126067,-1.590883 2.38125,-1.910768 2.38125,-2.985022 0,-1.208832 -0.532896,-2.005891 -1.791397,-2.679421 -0.372926,-0.199584 -0.678047,-0.667601 -0.678047,-1.040039 0,-0.504853 -0.33662,-0.737923 -1.322917,-0.915966 -0.727604,-0.131346 -1.615652,-0.390236 -1.973439,-0.575314 -0.623609,-0.32258 -0.61996,-0.369034 0.08819,-1.122828 1.120712,-1.192943 0.915078,-1.387891 -1.201561,-1.139123 -1.722743,0.202477 -1.940278,0.156277 -1.940278,-0.412055 0,-0.80209 1.415617,-2.765456 2.915133,-4.043096 1.031594,-0.878955 1.082219,-1.008347 0.524451,-1.340447 -0.841943,-0.5013 -0.775021,-1.198805 0.176389,-1.838431 1.245996,-0.837675 0.443031,-1.127542 -1.290009,-0.465688 -3.382657,1.291849 -6.253335,4.313 -9.08035,9.556319 -1.687774,3.130349 -2.037263,2.922344 -1.194633,-0.711003 1.367868,-5.898133 4.747191,-9.875273 10.975877,-12.917557 2.040423,-0.996606 3.67592,-2.013484 3.67592,-2.285521 0,-0.269548 0.238125,-0.490087 0.529167,-0.490087 0.291042,0 0.529167,-0.218738 0.529167,-0.486084 0,-0.267346 -0.238125,-1.055997 -0.529167,-1.752558 -0.726748,-1.739352 -0.673632,-3.854786 0.121441,-4.836661 0.870516,-1.075041 1.608377,-0.729828 2.447994,1.14531 0.374396,0.836149 1.65557,2.443917 2.847055,3.572817 1.757963,1.665627 2.316138,2.007284 2.961034,1.812434 1.193433,-0.360589 1.429339,-0.715672 1.003769,-1.510858 -0.619665,-1.157856 -0.469597,-1.825777 0.408291,-1.817208 1.034831,0.0101 3.482675,1.130473 4.100139,1.876623 0.826577,0.998847 1.660367,0.705944 2.100377,-0.737843 0.46596,-1.528935 1.68083,-3.615972 2.10486,-3.615972 0.15953,0 0.79359,0.714375 1.40903,1.5875 1.21833,1.728465 1.80365,1.975505 2.08963,0.881944 0.22237,-0.85036 0.39174,-0.872144 1.18679,-0.152636 0.56109,0.507773 0.74559,0.450163 2.25966,-0.705556 1.79951,-1.373595 3.26216,-1.704825 2.83104,-0.641113 -1.25995,3.108698 -1.01155,3.725417 1.13316,2.813321 2.75336,-1.170942 3.36845,-1.066778 3.68222,0.623576 0.0718,0.386579 0.57612,0.916464 1.1208,1.177524 0.90733,0.434869 1.10837,0.392857 2.39855,-0.501245 1.77424,-1.229548 2.93109,-2.599788 4.03631,-4.780828 0.60421,-1.192353 1.08381,-1.713598 1.57669,-1.713598 1.36265,0 1.87557,3.462049 0.86961,5.869641 -0.56803,1.359499 -0.453,1.89147 0.409,1.89147 0.34911,0 0.47014,0.197917 0.33555,0.548667 -0.15115,0.393888 0.16164,0.697419 1.10878,1.075965 7.42023,2.96565 11.64814,7.269197 13.32248,13.560809 0.56262,2.114165 0.66588,3.523029 0.25588,3.491318 -0.14552,-0.01125 -0.82021,-1.138654 -1.49931,-2.505333 -2.24778,-4.523651 -6.05005,-8.438239 -9.20864,-9.480668 -1.71926,-0.567408 -2.13031,-0.230009 -0.89938,0.73824 1.13004,0.88889 1.17599,1.26667 0.19203,1.578965 -0.7015,0.222647 -0.66436,0.319239 0.65342,1.699468 1.78136,1.865782 2.5598,3.038574 2.5598,3.85657 0,0.567345 -0.19591,0.619298 -1.56246,0.414373 -2.09357,-0.313951 -2.5888,0.03383 -1.57889,1.108841 0.43575,0.463835 0.70457,0.931047 0.59737,1.038249 -0.1072,0.107203 -0.96773,0.385639 -1.91227,0.618752 -1.26342,0.311809 -1.74695,0.610337 -1.82927,1.129397 -0.0615,0.388055 -0.61717,1.025553 -1.23472,1.416663 -2.13956,1.355031 -1.72372,3.444188 1.08169,5.434366 2.63042,1.866043 3.64032,1.882593 9.78994,0.160401 1.53925,-0.431063 -1.04956,1.075572 -3.15895,1.838442 -3.15774,1.14202 -3.01336,1.62891 1.04542,3.52559 2.48699,1.16218 3.35698,1.73322 3.21285,2.10883 -0.11206,0.29203 0.10362,0.70325 0.49803,0.94957 0.38264,0.23896 0.6957,0.69494 0.6957,1.01329 0,0.31836 0.55563,1.00262 1.23472,1.5206 0.6791,0.51797 1.23473,1.11034 1.23473,1.31637 0,0.20603 0.72437,1.33824 1.60972,2.51601 2.57212,3.42168 3.26387,5.8987 2.08322,7.45966 -0.28487,0.37663 -0.51794,0.90478 -0.51794,1.17366 0,0.7458 -1.76402,2.31078 -3.4426,3.05416 -1.28915,0.57091 -1.70031,0.606 -2.89765,0.24727 -0.76744,-0.22993 -1.62815,-0.75044 -1.91269,-1.15669 -0.28455,-0.40624 -0.88561,-0.92144 -1.33568,-1.14488 -0.45009,-0.22344 -1.22709,-1.16036 -1.72669,-2.08204 -1.40911,-2.59956 -1.85006,-2.8605 -1.60991,-0.95266 0.10991,0.87313 0.30523,3.57188 0.43403,5.99722 0.36531,6.87839 -0.97087,10.75932 -4.34697,12.62575 -3.40422,1.88197 -7.17015,1.28229 -11.42124,-1.8187 -2.9369,-2.14234 -4.84903,-2.89851 -8.67519,-3.43068 -5.17683,-0.72003 -10.588536,0.51135 -14.210611,3.23349 -1.062987,0.79887 -2.566441,1.77581 -3.341014,2.17097 -1.802945,0.9198 -5.213428,1.14308 -7.000502,0.45832 z m 26.046619,-12.72832 c 8.11452,-2.11301 11.25193,-9.53573 6.23051,-14.74061 -6.15737,-6.38233 -19.434708,-4.98414 -22.877594,2.40916 -1.424753,3.05953 -0.932222,5.90642 1.487463,8.59769 3.302893,3.67361 9.514961,5.20362 15.159621,3.73376 z m -4.25176,-28.366575 c 0.47942,-1.510506 -1.15605,-2.769126 -2.21815,-1.707032 -1.04303,1.043034 0.12783,3.400707 1.36107,2.740689 0.3505,-0.187579 0.73618,-0.652724 0.85708,-1.033657 z M 99.312829,86.210769 c 0.348689,-0.186614 0.827011,-0.805311 1.062931,-1.374885 1.13553,-2.741401 -2.704589,-4.981202 -4.539912,-2.647967 -0.969917,1.233048 -0.923477,2.438013 0.13475,3.496238 0.899369,0.89937 2.248525,1.111947 3.342231,0.526614 z m 18.258711,-0.427755 c 1.71663,-1.6127 0.49974,-4.524617 -1.89084,-4.524617 -1.55773,0 -2.58434,1.051039 -2.58434,2.645833 0,2.412983 2.69998,3.546497 4.47518,1.878784 z"
         id="path1024" />
    </g>
  </g>
</svg>
