<?xml version="1.0" encoding="UTF-8" standalone="no"?>
<!-- Created with Inkscape (http://www.inkscape.org/) -->

<svg
   width="57.544399mm"
   height="57.544399mm"
   viewBox="0 0 57.544399 57.544399"
   version="1.1"
   id="svg5"
   inkscape:version="1.1 (c4e8f9ed74, 2021-05-24)"
   sodipodi:docname="aliens.svg"
   xmlns:inkscape="http://www.inkscape.org/namespaces/inkscape"
   xmlns:sodipodi="http://sodipodi.sourceforge.net/DTD/sodipodi-0.dtd"
   xmlns="http://www.w3.org/2000/svg"
   xmlns:svg="http://www.w3.org/2000/svg">
  <sodipodi:namedview
     id="namedview7"
     pagecolor="#ffffff"
     bordercolor="#666666"
     borderopacity="1.0"
     inkscape:pageshadow="2"
     inkscape:pageopacity="0"
     inkscape:pagecheckerboard="0"
     inkscape:document-units="mm"
     showgrid="false"
     inkscape:zoom="0.84096521"
     inkscape:cx="212.25611"
     inkscape:cy="498.83158"
     inkscape:window-width="1920"
     inkscape:window-height="1080"
     inkscape:window-x="1280"
     inkscape:window-y="0"
     inkscape:window-maximized="1"
     inkscape:current-layer="layer1" />
  <defs
     id="defs2" />
  <g
     inkscape:label="Layer 1"
     inkscape:groupmode="layer"
     id="layer1"
     transform="translate(-4.2608577,-169.64491)">
    <g
       id="alien_darkgreen"
       transform="matrix(0.54372657,0,0,0.54372657,6.3026665,-39.726023)">
      <path
         style="fill:#141414;fill-opacity:0;stroke-width:0.352778"
         d="M -3.7552125,437.98326 V 385.06659 H 49.161458 102.07813 v 52.91667 52.91667 H 49.161458 -3.7552125 Z m 35.3171785,33.90667 c 1.239513,-0.56009 3.603032,-1.46875 5.252269,-2.01924 2.974033,-0.99271 3.070902,-1.00091 11.818056,-1.00091 8.701292,0 8.858494,0.0131 11.734331,0.97767 1.603188,0.53772 3.95955,1.44637 5.236359,2.01924 5.180175,2.32419 9.329117,0.50599 9.295776,-4.07371 -0.199029,-8.37106 -6.664613,-20.52503 -5.987549,-28.22222 0.151955,-0.86673 0.376847,-1.07704 1.242204,-1.1617 1.724075,-0.16864 2.075018,-0.36552 1.622806,-0.9104 -0.324555,-0.39107 0.157382,-0.51998 2.694299,-0.72069 9.056839,-0.71652 15.146782,-4.21967 18.51889,-10.65273 1.832554,-3.49601 2.493878,-6.57526 2.303032,-10.72334 -0.248412,-5.3992 -2.328344,-9.10171 -5.746764,-10.22989 -1.503751,-0.49629 -4.346205,-0.22591 -5.861188,0.55752 -1.84852,0.95591 -2.085037,1.97195 -1.983172,8.51943 0.09106,5.85282 0.08106,5.94148 -0.894024,7.92711 -1.285099,2.61693 -3.748853,5.32959 -5.697185,6.27276 -1.7835,0.86338 -5.050434,1.02221 -7.159749,0.3481 -2.024757,-0.64709 -2.084828,-0.88133 -0.636989,-2.48392 3.828612,-4.23782 5.270447,-13.06298 2.947338,-18.04001 -0.995197,-2.13211 -3.926727,-5.56752 -4.750918,-5.56752 -0.268651,0 -0.667484,0.43656 -0.886295,0.97014 -1.522398,3.71242 -2.618465,5.73108 -3.735155,6.87917 -1.767893,1.8176 -2.549412,1.7292 -3.898466,-0.44098 -0.846677,-1.36202 -1.299591,-1.76389 -1.987931,-1.76389 -0.733249,0 -1.076597,0.3668 -1.934845,2.06698 -1.238511,2.45348 -2.794554,3.4193 -5.026534,3.11993 -2.017874,-0.27065 -3.073428,-1.13035 -4.022333,-3.27599 -0.678134,-1.53338 -1.009417,-1.91092 -1.676813,-1.91092 -0.925908,0 -1.628571,0.67061 -2.495088,2.38125 -0.863769,1.70522 -1.913696,1.53299 -3.861502,-0.63344 -1.05107,-1.16904 -1.960051,-2.71283 -2.64837,-4.49791 -0.58565,-1.51883 -1.284006,-2.7662 -1.582907,-2.82731 -0.294185,-0.0601 -1.151022,0.44729 -1.904083,1.12764 -2.438771,2.20328 -4.318074,6.60081 -4.313809,10.09422 0.0047,3.81081 1.841035,9.25738 4.134117,12.26148 0.630981,0.82663 1.147238,1.58906 1.147238,1.6943 0,0.10523 -0.550526,0.42136 -1.223392,0.7025 -1.737668,0.72604 -5.680009,0.6461 -7.419664,-0.15045 -1.996019,-0.91394 -4.636234,-3.90243 -5.897186,-6.6751 l -1.075407,-2.36467 0.237533,-5.38433 c 0.272765,-6.18297 -0.02397,-7.37263 -2.082598,-8.34952 -3.238912,-1.53696 -6.4650864,-1.00598 -8.5959028,1.41475 -2.0119719,2.28572 -2.8722226,5.07647 -2.8669758,9.30079 12.2659196,18.5757 29.8877596,10.40219 23.4399676,37.14547 -1.700142,7.03575 -3.092478,13.42728 -3.09408,14.20339 -0.0094,4.53655 4.228349,6.39886 9.322659,4.09695 z"
         id="path1763"
         sodipodi:nodetypes="cccccccccsssssccssssssssssssssssssssssssssssssssscsssccss" />
      <path
         style="fill:#264128;stroke-width:0.352778"
         d="m 25.334171,472.24507 c -1.592852,-0.72353 -2.594261,-2.01176 -2.866121,-3.68704 -0.118057,-0.7275 0.950977,-5.80244 3.059383,-14.52359 4.066187,-25.38179 -16.9481557,-11.42424 -22.9413076,-32.842 -0.841696,-3.291 -0.8829979,-5.84886 -0.1406976,-8.71349 1.3139964,-5.07088 3.5812584,-7.30403 7.4156014,-7.30403 2.0091908,0 3.6939268,0.70554 4.6808998,1.96027 0.741667,0.94288 0.772198,1.2592 0.676593,7.01011 l -0.100122,6.02268 1.141201,2.32553 c 1.4433,2.94114 4.182152,5.72892 6.356119,6.46966 3.083253,1.05057 7.181166,0.54728 8.810515,-1.08206 0.784775,-0.78478 0.859574,-1.10639 0.748693,-3.21912 l -0.123194,-2.34724 1.146528,-0.33067 c 1.386449,-0.39986 1.434751,-0.89027 0.22884,-2.32341 -1.043224,-1.2398 -0.90931,-2.13852 0.318654,-2.13852 0.458819,0 0.9245,-0.0903 1.034845,-0.20063 0.110345,-0.11034 -0.415219,-1.10253 -1.167917,-2.20486 -0.752701,-1.10233 -1.610275,-2.9504 -1.90572,-4.10683 -0.674806,-2.6413 -0.704608,-6.52941 -0.05684,-7.41529 0.437289,-0.59802 0.549794,-0.44817 1.255346,1.672 1.227726,3.68933 3.857611,6.95842 5.600866,6.96219 0.550823,0.001 1.002524,-0.35814 1.411111,-1.12255 0.844723,-1.58037 2.066198,-2.78194 2.609836,-2.56732 0.253309,0.10001 0.857437,0.99688 1.342507,1.99304 1.193927,2.4519 2.3587,3.26192 4.683301,3.2569 2.427432,-0.005 3.565949,-0.79496 4.869794,-3.37786 0.572216,-1.13356 1.204077,-2.06102 1.40413,-2.06102 0.508381,0 1.804681,1.41777 2.520118,2.75626 0.874472,1.63602 1.963441,1.49788 3.786946,-0.48039 1.47423,-1.59935 3.548793,-5.44333 3.549322,-6.57657 3.53e-4,-1.01366 0.688188,-1.08331 1.059272,-0.10728 1.117582,2.93946 -0.178308,8.71702 -2.697396,12.02601 -1.067364,1.40205 -1.04715,1.5542 0.206471,1.5542 1.466945,0 1.632747,0.55206 0.580231,1.93198 -1.201837,1.57569 -1.150624,2.12958 0.23434,2.53445 0.940502,0.27493 1.127093,0.49013 1.038383,1.19756 -0.356266,2.84104 -0.17479,3.98217 0.761355,4.78741 1.186519,1.0206 3.049513,1.53951 5.520401,1.53763 3.823751,-0.003 7.236316,-2.539 9.565549,-7.10873 1.23185,-2.41678 1.378705,-3.98477 1.018748,-10.87753 -0.193008,-3.69588 0.330475,-4.92421 2.462068,-5.7771 6.035989,-2.41513 10.787896,2.42447 10.695016,10.89238 -0.04667,4.25537 -1.233974,7.98072 -3.631649,11.39488 -3.703098,5.27302 -9.240144,7.98748 -17.206886,8.43543 -3.268934,0.1838 -3.603988,0.26535 -3.423733,0.83328 0.154735,0.48753 -0.02261,0.65507 -0.78618,0.7427 -0.804598,0.0923 -1.044088,0.34826 -1.301803,1.3911 1.474932,10.6953 3.178874,15.7753 6.245624,28.49743 l -0.607462,1.59061 c -0.403733,1.05716 -1.008733,1.83862 -1.803911,2.33007 -1.949743,1.20501 -3.296846,1.24586 -5.842929,0.17718 -1.243891,-0.52211 -3.262238,-1.31445 -4.485216,-1.76078 -1.222979,-0.44632 -2.3054,-0.8933 -2.405381,-0.99328 -0.09998,-0.1 0.370082,-0.90477 1.044582,-1.78841 4.899576,-6.4188 1.126755,-14.66847 -7.767853,-16.98522 -2.605775,-0.67872 -6.461358,-0.67308 -9.09653,0.0133 -5.802987,1.51148 -10.066501,6.13839 -10.066501,10.92449 0,1.92808 0.999137,4.56635 2.308723,6.0963 1.399483,1.63499 1.375195,2.004 -0.152016,2.30945 -0.568134,0.11362 -2.53541,0.8485 -4.371725,1.63306 -3.752719,1.60334 -4.419529,1.68233 -6.442823,0.76328 z m 24.203256,-32.51033 c 1.274332,-0.682 0.821203,-1.3987 -0.884315,-1.3987 -1.847999,0 -2.280049,0.44214 -1.182949,1.21058 0.930988,0.65209 1.161179,0.67304 2.067264,0.18812 z m 3.083098,-9.01526 c 2.155434,-1.0741 3.718229,-2.83615 4.46859,-5.03833 0.766414,-2.24931 0.702935,-3.81312 -0.173838,-4.28235 -1.001504,-0.53599 -1.284563,-0.24005 -1.486835,1.55449 -0.383028,3.39822 -3.214938,5.90093 -6.712688,5.93237 -3.703507,0.0333 -6.537508,-2.47717 -6.885562,-6.09944 -0.160476,-1.67011 -0.224621,-1.76786 -1.093908,-1.66703 -0.832841,0.0966 -0.933965,0.27095 -1.030725,1.77698 -0.40102,6.24175 7.041572,10.75015 12.914966,7.82331 z"
         id="path1759"
         sodipodi:nodetypes="ssccsssscsssscsssssssscssscsssscssssssscssssssssccsssssssssssssssssssssssssss" />
      <path
         style="fill:#ec474a;fill-opacity:1;stroke-width:0.352778"
         d="m 47.707031,449.02539 c -4.452351,0.1314 -8.920768,1.96767 -11.844728,5.39118 -2.567789,2.84187 -3.580765,7.12266 -2.121597,10.72543 0.490852,1.42636 1.487297,2.59331 2.370622,3.77011 10.856399,0.97695 19.27363,-0.006 23.883535,0.17425 1.02356,-1.45559 3.254937,-3.17593 3.696788,-4.93092 1.052472,-3.54851 -0.125998,-7.50919 -2.664003,-10.14197 -2.893762,-3.13498 -7.109687,-4.85975 -11.34551,-4.98344 -0.657899,-0.0324 -1.316917,-0.0241 -1.975107,-0.004 z"
         id="path17081" />
      <path
         style="fill:#ec474a;fill-opacity:1;stroke-width:0.352778"
         d="m 48.619141,437.36328 c -1.003613,-2.9e-4 -2.496659,0.0909 -2.712521,1.31948 -0.07172,1.17613 1.175303,1.84474 2.095333,2.27232 1.107064,0.30553 2.282765,-0.35817 2.986328,-1.1836 0.66088,-0.87745 -0.05482,-2.09821 -1.064453,-2.25781 -0.423639,-0.11749 -0.866948,-0.15017 -1.304687,-0.15039 z"
         id="path17079" />
      <path
         id="path17077"
         style="fill:#ec474a;fill-opacity:1;stroke-width:0.352778"
         d="m 40.37713,420.92301 c -0.842188,0.43 -0.590802,0.47999 -0.762382,1.24548 -0.224058,2.087 -0.285525,4.66357 1.19926,6.36566 1.078291,1.31402 2.734999,1.88323 4.27155,2.44696 3.567385,1.8778 8.406975,0.67699 10.63302,-2.70036 1.237073,-1.45729 1.756076,-3.33198 2.015014,-5.17172 0.0811,-0.83664 -0.382158,-1.66805 -1.209589,-1.904 -0.589289,-0.3438 -1.605865,-0.31941 -1.688136,0.53695 -0.283861,1.26102 -0.419847,2.59547 -1.18157,3.68771 -1.918992,3.15744 -6.547028,4.1918 -9.443375,1.79314 -1.732272,-1.31 -1.788822,-3.30678 -2.539047,-5.65056 -0.143791,-0.62698 -0.42183,-0.79213 -1.294745,-0.64926 z"
         sodipodi:nodetypes="cccccccccccc" />
      <path
         style="fill:#ec474a;fill-opacity:1;stroke-width:0.352778"
         d="m 48.566406,417.56641 c -1.227184,0.0505 -2.524054,0.91523 -2.699218,2.18164 -0.825186,1.55047 -0.43466,3.73083 1.167968,4.61523 1.878119,1.18668 4.578049,0.10533 5.286313,-1.95437 0.820117,-2.31552 -1.378209,-4.94444 -3.755063,-4.8425 z"
         id="path17075" />
      <path
         style="fill:#ec474a;fill-opacity:1;stroke-width:0.352778"
         d="m 80.884766,411.20703 c -9.825447,26.06457 8.212519,12.521 1.611331,-0.45898 -0.530222,-8.6e-4 -1.386486,-0.63701 -1.492323,0.18204 -0.03967,0.0923 -0.07934,0.18463 -0.119005,0.27694 z"
         id="path17073" />
      <path
         style="fill:#ec474a;fill-opacity:1;stroke-width:0.352778"
         d="m 90.728516,404.78516 c -0.706454,-0.0364 -1.02554,0.25511 -0.847657,0.96679 0.06188,0.8917 0.937158,1.4604 1.465987,2.11176 0.568831,0.61467 1.26043,1.25178 1.801592,1.81012 0.279605,7.92654 5.494851,8.28219 1.999997,-0.0879 -0.304918,-0.46967 -0.680674,-0.6592 -0.617498,-1.2605 -0.670186,-1.43354 -1.867651,-2.6041 -3.191096,-3.44458 -0.202321,-0.10175 -0.386932,-0.17946 -0.611328,-0.0957 z"
         id="path17071" />
      <path
         style="fill:#ec474a;fill-opacity:1;stroke-width:0.352778"
         d="m 87.578125,403.89062 c -0.621398,-0.002 -1.254566,0.0811 -1.789063,0.42188 -1.660783,-0.41555 -3.211195,0.829 -4.166073,2.0712 -0.746063,0.98236 -1.24051,2.30104 -0.769473,3.51083 0.543169,0.003 1.210027,0.36831 1.550781,-0.23047 0.587605,-0.69335 0.82163,-1.64124 1.183594,-2.43164 0.831474,-0.46717 1.824013,-0.71546 2.49414,-1.42578 0.808831,0.38737 1.807515,0.24275 2.683594,0.16406 0.455233,-0.13638 1.06268,-0.53445 0.794783,-1.0829 0.09582,-0.54781 -0.350788,-0.74579 -0.79283,-0.87608 -0.387301,-0.0984 -0.79145,-0.11596 -1.189453,-0.1211 z"
         id="path17069" />
      <path
         style="fill:#ec474a;fill-opacity:1;stroke-width:0.352778"
         d="m 9.6152344,403.89062 c -0.6053003,-0.009 -1.2210918,0.0929 -1.7480469,0.38086 -1.2744116,-0.23867 -2.295187,0.83542 -3.1560083,1.61627 -0.3997026,0.42174 -0.9437892,0.80799 -0.8498511,1.45795 -0.9457969,0.35847 -1.5223894,1.33893 -1.8554687,2.25 -0.2868123,0.452 0.4619104,1.05969 -0.098588,1.29596 -0.8092228,0.74685 -0.96953681,1.99399 -0.9053186,3.04779 -0.00748,0.7 0.5987271,0.82674 1.1543056,1.00065 0.4187842,0.0529 0.7352126,-0.62409 0.8979367,-1.02093 0.2467712,-0.86544 0.7115109,-1.89779 0.2543984,-2.74729 -0.087581,-0.22545 0.6623584,-0.36851 0.7207031,-0.77735 0.3222147,-0.67353 0.7912592,-1.32146 0.8671875,-2.08008 1.0702972,-0.7129 1.9900292,-1.66664 3.2254962,-2.11211 0.3486795,-0.42709 0.8774082,-0.0764 1.3521489,-0.15483 0.7921388,0.0212 1.7107828,0.0488 2.1879798,-0.70571 -0.09677,-0.5142 0.0112,-1.17395 -0.667968,-1.26172 -0.430824,-0.17769 -0.919757,-0.17438 -1.3789066,-0.18946 z"
         id="path17067" />
      <path
         style="fill:#ec474a;fill-opacity:1;stroke-width:0.352778"
         d="m 32.113521,426.99309 c 0.532922,-1.49704 1.02649,-2.40379 0.95288,-3.95797 0.988311,-0.20894 2.285006,-0.76847 2.189453,-1.97657 -0.06988,-1.0414 -0.958531,-1.72471 -1.457031,-2.56445 0.855373,0.0288 2.122931,-0.29916 1.966797,-1.38672 -0.550614,-1.79308 -2.013334,-3.13783 -2.606689,-4.92234 -0.788329,-1.97604 -1.090561,-4.12754 -0.996827,-6.24758 0.544428,2.0631 1.807629,3.88258 3.201389,5.46934 0.977343,1.10063 2.522855,2.28273 4.052518,1.57363 1.321432,-0.67193 1.627722,-2.29744 2.685369,-3.25461 0.345248,-0.23947 0.510298,0.76219 0.731331,1.06453 0.28402,0.6663 0.620602,1.3797 1.248795,1.75029 0.584484,1.04444 1.673923,1.92993 2.891145,2.05502 0.490078,-0.13333 0.830903,0.37034 1.351835,0.29002 0.553891,0.0147 1.209012,0.0636 1.655978,-0.29392 1.698497,0.0719 2.902381,-1.44598 3.738422,-2.73815 0.476468,-0.75015 0.855924,-1.55763 1.214703,-2.36927 0.407564,0.3479 0.941422,0.5455 0.990234,1.14453 0.534876,1.13731 1.264323,2.64694 2.744141,2.56836 1.923968,-0.16327 3.086198,-1.94271 4.33561,-3.19343 0.510237,-0.7644 0.992658,-1.58529 1.369468,-2.44134 -0.902015,0.5395 -0.101617,-0.62273 -0.04042,-1.04606 0.04197,-0.98553 0.714898,-0.0584 0.770208,-0.50634 -0.298424,0.62307 1.208353,1.07136 0.15935,1.23014 -0.353619,0.30882 -0.138924,1.05332 -0.301302,1.54076 -0.352285,2.66909 -1.507967,5.18772 -3.185308,7.28176 -0.575005,0.63371 -0.718244,1.84195 0.197082,2.23802 0.413596,0.20569 0.891309,0.18357 1.341797,0.19531 -0.654065,0.9482 -1.733724,2.11333 -1.128906,3.33985 0.372504,0.73798 1.228515,0.96979 1.955078,1.20508 -0.139897,1.61615 -0.46047,3.67597 0.556641,5.18359 0.458672,0.58992 1.040833,1.12185 1.771911,1.29174 0,0 1.880184,-1.32444 4.062619,-6.54002 1.701669,-4.03846 2.328666,-8.62235 1.364648,-12.9256 -0.662878,-2.87223 -2.562944,-5.26655 -4.587738,-7.32579 -0.516266,-0.46154 -1.107327,-1.0194 -1.847808,-0.99061 l 4.4e-5,9e-5 c -0.896213,0.0444 -1.762694,0.85361 -1.708985,1.76171 -0.684027,1.26202 -1.1031,2.66442 -1.804304,3.92639 -0.39351,0.61933 -0.365921,1.45967 -1.044913,1.86208 -0.686994,0.56605 -1.302708,1.41506 -2.219142,1.567 -0.499435,-0.54911 -0.771826,-1.29763 -1.248047,-1.86523 -0.425612,-0.93858 -1.534842,-1.95789 -2.611328,-1.47656 -0.372013,-0.7495 -0.836055,-0.15074 -1.28125,0.18359 -1.140144,1.37206 -1.475559,3.36756 -2.997159,4.41454 -0.420603,0.17548 -0.816941,0.54208 -1.19925,0.67364 -0.483332,-0.14966 -1.033729,-0.009 -1.491091,0.0114 -0.758787,-0.54261 -1.735566,-0.77277 -2.4375,-1.4043 -0.251443,-1.28577 -0.929483,-2.48705 -1.748047,-3.49805 -0.384777,-0.48175 -1.069399,-0.48582 -1.587971,-0.47502 -1.090694,-0.22894 -1.854632,0.89909 -2.408223,1.68642 -0.448638,0.55545 -0.619234,1.32853 -1.163962,1.79251 -1.18512,-0.46228 -1.947141,-1.61804 -2.70274,-2.59342 -0.833861,-1.03371 -1.228868,-2.33483 -2.02187,-3.38705 -0.796668,-0.12297 -0.421807,-0.58695 -0.245509,-1.10348 0.03285,-1.0913 -0.900607,-2.21565 -2.061131,-1.9512 -1.687833,0.40965 -2.901957,1.84097 -3.903075,3.17505 -2.358101,3.39072 -3.58192,7.70484 -2.744473,11.80713"
         id="path17065" />
      <path
         style="fill:#ec474a;fill-opacity:1;stroke-width:0.352778"
         d="m 15.221094,411.47756 c 0.677636,-1.3047 1.380864,-0.95764 1.25937,-2.37017 -0.118604,-0.50054 -0.478627,-0.72819 -0.214946,-1.26404 0.0028,-1.08978 -1.015031,-1.81285 -1.704429,-2.53186 -0.528579,-0.54163 -1.43049,-1.08087 -2.106611,-0.52846 -0.407583,0.43095 -0.404464,1.01201 -0.06581,1.48647 0.646638,0.88714 1.401112,1.71772 2.234375,2.42969"
         id="path1761" />
    </g>
  </g>
</svg>
