<?xml version="1.0" encoding="UTF-8" standalone="no"?>
<!-- Created with Inkscape (http://www.inkscape.org/) -->

<svg
   width="57.544399mm"
   height="57.544399mm"
   viewBox="0 0 57.544399 57.544399"
   version="1.1"
   id="svg5"
   inkscape:version="1.1 (c4e8f9ed74, 2021-05-24)"
   sodipodi:docname="aliens.svg"
   xmlns:inkscape="http://www.inkscape.org/namespaces/inkscape"
   xmlns:sodipodi="http://sodipodi.sourceforge.net/DTD/sodipodi-0.dtd"
   xmlns="http://www.w3.org/2000/svg"
   xmlns:svg="http://www.w3.org/2000/svg">
  <sodipodi:namedview
     id="namedview7"
     pagecolor="#ffffff"
     bordercolor="#666666"
     borderopacity="1.0"
     inkscape:pageshadow="2"
     inkscape:pageopacity="0"
     inkscape:pagecheckerboard="0"
     inkscape:document-units="mm"
     showgrid="false"
     inkscape:zoom="0.84096521"
     inkscape:cx="212.25611"
     inkscape:cy="498.83158"
     inkscape:window-width="1920"
     inkscape:window-height="1080"
     inkscape:window-x="1280"
     inkscape:window-y="0"
     inkscape:window-maximized="1"
     inkscape:current-layer="layer1" />
  <defs
     id="defs2" />
  <g
     inkscape:label="Layer 1"
     inkscape:groupmode="layer"
     id="layer1"
     transform="translate(-61.805261,-113.58264)">
    <g
       id="alien_forestgreen"
       transform="matrix(0.54372657,0,0,0.54372657,77.025626,-10.872403)">
      <path
         style="fill:#141414;fill-opacity:0;stroke-width:0.352778"
         d="M -27.992682,281.80937 V 228.8927 h 52.91667 52.91667 v 52.91667 52.91667 h -52.91667 -52.91667 z m 37.0513669,44.91499 c 0.4797354,-0.32635 1.8708691,-1.51756 3.0914091,-2.64714 3.713953,-3.43718 7.513843,-4.86382 12.950283,-4.86206 5.750818,0.002 9.55306,1.39151 13.30306,4.86206 2.93291,2.71434 3.75297,3.24049 5.050678,3.24049 2.964233,0 5.302874,-5.27681 6.17576,-13.93473 0.824805,-8.18104 0.05301,-11.65285 -4.727611,-21.26648 -2.028007,-4.07824 -4.055181,-8.55725 -4.504828,-9.95336 l -0.817541,-2.53839 0.995338,-0.72505 c 0.547437,-0.39878 2.574879,-1.255 4.505424,-1.9027 9.834961,-3.29966 16.181868,-7.92931 19.176073,-13.98767 1.798885,-3.6398 2.396106,-7.46635 2.241367,-14.36107 -0.120068,-5.34997 -0.146213,-5.50996 -1.210734,-7.40834 -2.478433,-4.41983 -8.042476,-5.952 -11.282818,-3.10694 -1.459339,1.28131 -2.064875,3.206 -1.608152,5.11149 0.177553,0.74076 0.836105,3.25184 1.463443,5.58018 0.852956,3.16569 1.151466,5.03806 1.183636,7.42416 0.04055,3.00748 -0.03168,3.34212 -1.256894,5.82349 -2.219985,4.49604 -6.497688,8.55601 -11.831,11.22881 -2.498316,1.25203 -3.104522,1.34293 -3.422908,0.51322 -0.585837,-1.52666 1.268607,-9.71597 2.519843,-11.12775 0.293426,-0.33108 1.750526,-1.00726 3.237999,-1.50264 3.253783,-1.08361 5.00403,-2.21689 6.400042,-4.14403 1.303771,-1.7998 1.303581,-2.2722 -0.0014,-3.85555 -1.955239,-2.37205 -4.689878,-2.98281 -8.409496,-1.8782 l -1.822542,0.54124 -2.65121,-1.45507 c -2.132274,-1.17018 -2.651351,-1.617 -2.651351,-2.28216 0,-1.16949 -0.612373,-2.63691 -1.100409,-2.63691 -0.226776,0 -0.905394,0.5504 -1.508037,1.22312 -1.059565,1.18276 -1.148105,1.21237 -2.683221,0.89731 -1.993106,-0.40906 -7.084088,-0.42245 -9.148089,-0.0241 -1.906214,0.36794 -2.130767,0.2906 -3.022745,-1.04102 -0.388055,-0.57933 -0.907923,-1.05378 -1.155259,-1.05434 -0.519952,-0.001 -1.137797,1.43084 -1.137797,2.63714 0,0.6697 -0.513171,1.10514 -2.679643,2.27372 l -2.679644,1.44538 -1.794108,-0.53279 c -2.2234823,-0.66031 -4.5073975,-0.68167 -6.00442,-0.0562 -1.35682748,0.56692 -3.4227412,2.8112 -3.4227412,3.71826 0,1.01773 2.3442607,3.818 3.9774462,4.75115 0.8198355,0.46843 2.5501577,1.19615 3.8451606,1.61715 1.2950025,0.42101 2.5117719,0.95496 2.70393,1.18656 0.192158,0.2316 0.7763404,1.53235 1.2981804,2.89054 1.050558,2.73429 1.660408,8.68699 0.935856,9.13479 -0.545727,0.33728 -5.4950544,-2.23522 -7.9980729,-4.15712 -2.72229703,-2.09028 -5.5713334,-5.46084 -6.9159265,-8.18191 -1.8478854,-3.73958 -1.7532069,-6.93038 0.4374271,-14.74192 0.591517,-2.10929 1.0857288,-4.51265 1.0982485,-5.34081 0.047492,-3.14155 -2.1709015,-5.11656 -5.7322498,-5.10334 -3.6784594,0.0136 -6.8472704,2.42777 -7.9175914,6.03193 -0.714647,2.40648 -0.746262,11.21155 -0.05326,14.83354 1.718434,8.98145 8.3977425,15.09902 21.0804075,19.30754 3.8452448,1.27598 5.4154555,2.41419 5.0427205,3.65534 -0.7041159,2.3446 -2.3669411,6.06157 -5.324578,11.90224 -4.1605263,8.21611 -4.50876769,9.50285 -4.48732797,16.58056 0.037883,12.50619 3.79469427,20.42899 8.24988387,17.39832 z"
         id="path1657" />
      <path
         style="fill:#7ca53a;fill-opacity:1;stroke-width:0.352778"
         d="M 5.0230504,326.4336 C 2.448828,324.04789 0.83353287,317.49067 0.80880103,309.32604 0.78736272,302.24833 1.1356027,300.96159 5.296129,292.74548 c 2.9576369,-5.84067 4.6204621,-9.55764 5.324578,-11.90224 0.372735,-1.24115 -1.1974757,-2.37936 -5.0427205,-3.65534 -12.682665,-4.20852 -19.3619735,-10.32609 -21.0804075,-19.30754 -0.693002,-3.62199 -0.661387,-12.42706 0.05326,-14.83354 1.070321,-3.60416 4.239132,-6.01829 7.9175914,-6.03193 3.5613483,-0.0132 5.7797421,1.96179 5.7322498,5.10334 -0.01252,0.82816 -0.5067315,3.23152 -1.0982485,5.34081 -2.190634,7.81154 -2.2853125,11.00234 -0.4374271,14.74192 1.3445931,2.72107 4.19362947,6.09163 6.9159265,8.18191 2.5030185,1.9219 7.4523459,4.4944 7.9980729,4.15712 0.724552,-0.4478 0.114702,-6.4005 -0.935856,-9.13479 -0.52184,-1.35819 -1.1060224,-2.65894 -1.2981804,-2.89054 -0.1921581,-0.2316 -1.4089275,-0.76555 -2.70393,-1.18656 -1.2950029,-0.421 -3.0253251,-1.14872 -3.8451606,-1.61715 -1.6331855,-0.93315 -3.9774462,-3.73342 -3.9774462,-4.75115 0,-0.90706 2.06591372,-3.15134 3.4227412,-3.71826 1.4970225,-0.62549 3.7809377,-0.60413 6.00442,0.0562 l 1.794108,0.53279 2.679644,-1.44538 c 2.166472,-1.16858 2.679643,-1.60402 2.679643,-2.27372 0,-1.2063 0.617845,-2.63831 1.137797,-2.63714 0.247336,5.7e-4 0.767204,0.47501 1.155259,1.05434 0.891978,1.33162 1.116531,1.40896 3.022745,1.04102 2.064001,-0.39839 7.154983,-0.385 9.148089,0.0241 1.535116,0.31506 1.623656,0.28545 2.683221,-0.89731 0.602643,-0.67272 1.281261,-1.22312 1.508037,-1.22312 0.488036,0 1.100409,1.46742 1.100409,2.63691 0,0.66516 0.519077,1.11198 2.65121,2.28216 l 2.65121,1.45507 1.822542,-0.54124 c 3.719618,-1.10461 6.454257,-0.49385 8.409496,1.8782 1.305133,1.58335 1.305323,2.05575 0.0014,3.85555 -1.396012,1.92714 -3.14626,3.06042 -6.400042,4.14403 -1.487474,0.49538 -2.944573,1.17156 -3.237999,1.50264 -1.251236,1.41178 -3.10568,9.60109 -2.519843,11.12775 0.318386,0.82971 0.924592,0.73881 3.422908,-0.51322 5.333312,-2.6728 9.611015,-6.73277 11.831,-11.22881 1.225215,-2.48137 1.297439,-2.81601 1.256894,-5.82349 -0.03217,-2.3861 -0.33068,-4.25847 -1.183636,-7.42416 -0.627338,-2.32834 -1.28589,-4.83942 -1.463443,-5.58018 -0.456724,-1.90549 0.148813,-3.83018 1.608152,-5.11149 3.240342,-2.84506 8.804385,-1.31289 11.282818,3.10694 1.064521,1.89838 1.090666,2.05837 1.210734,7.40834 0.154739,6.89472 -0.442482,10.72127 -2.241367,14.36107 -2.994205,6.05836 -9.341112,10.68801 -19.176073,13.98767 -1.930545,0.6477 -3.957987,1.50392 -4.505424,1.9027 l -0.995338,0.72505 0.817541,2.53839 c 0.449647,1.39611 2.476821,5.87512 4.504828,9.95336 4.780622,9.61363 5.552416,13.08544 4.72761,21.26648 -0.872885,8.65792 -3.211526,13.93473 -6.175759,13.93473 -1.297708,0 -2.117768,-0.52615 -5.050678,-3.24049 -3.75,-3.47055 -7.552242,-4.86021 -13.30306,-4.86206 -5.43644,-0.002 -9.23633,1.42488 -12.950283,4.86206 -1.22054,1.12958 -2.6116738,2.32079 -3.0914092,2.64714 -1.2769569,0.86865 -2.9116915,0.75088 -4.0356345,-0.29076 z M 29.664764,307.18254 c 3.606384,-1.6952 6.101543,-5.0171 6.948725,-9.2511 1.369546,-6.84464 -4.569492,-14.0061 -11.614539,-14.00512 -3.723348,3.5e-4 -7.725344,2.66274 -10.291721,6.84632 -0.732314,1.19378 -0.848469,1.83208 -0.866655,4.7625 -0.0187,3.0109 0.09154,3.62863 0.999839,5.60345 2.686089,5.84005 9.418635,8.58494 14.824351,6.04395 z m -0.266171,-44.71837 c 1.564711,-0.79899 2.580951,-1.94834 2.580951,-2.91899 0,-0.52903 -0.669735,-0.58446 -6.702778,-0.55468 -6.177697,0.0305 -6.702778,0.0822 -6.702778,0.66069 0,0.96786 1.783828,2.72724 3.351389,3.30546 1.940345,0.71572 5.576387,0.47611 7.473216,-0.49248 z m -21.9001244,-2.0287 c -0.1181947,-0.308 -0.3153082,-1.22081 -0.438035,-2.02847 -0.1227265,-0.80766 -0.4679615,-1.89462 -0.7671887,-2.41547 -0.4613678,-0.80308 -0.4709979,-1.03503 -0.063366,-1.52619 0.7081514,-0.85327 -0.083841,-1.2193 -2.6489478,-1.22425 -2.2992656,-0.004 -4.4097225,0.92948 -4.4097225,1.95138 0,1.03229 3.6109986,4.24076 5.6566199,5.02606 2.3709003,0.91017 2.9548591,0.95761 2.6706401,0.21694 z m 37.8040784,-0.0451 c 2.109516,-0.66497 4.719631,-2.72682 5.59513,-4.41985 0.517137,-1.00002 0.505989,-1.10768 -0.18638,-1.80005 -0.888612,-0.88861 -5.084516,-1.27904 -6.367357,-0.59248 -0.72196,0.38638 -0.735414,0.45129 -0.178026,0.85887 0.519572,0.37992 0.539454,0.55901 0.143754,1.29491 -0.252568,0.46971 -0.569278,1.40964 -0.703802,2.08874 -0.134525,0.6791 -0.362067,1.67128 -0.505644,2.20486 -0.307569,1.14301 -0.280197,1.14754 2.202325,0.365 z m -24.460703,-7.00478 c 0.773,-0.773 0.69124,-1.817 -0.178756,-2.28261 -0.896323,-0.4797 -1.566615,-0.25597 -2.074107,0.69229 -0.309633,0.57856 -0.245823,0.85552 0.329699,1.43104 0.858876,0.85888 1.19567,0.88677 1.923164,0.15928 z m 10.57461,0.0936 c 1.322836,-0.96728 -0.08338,-3.36638 -1.465382,-2.50004 -0.869044,0.54477 -0.997695,1.93917 -0.230661,2.50004 0.346552,0.2534 0.728162,0.46073 0.848022,0.46073 0.11986,0 0.50147,-0.20733 0.848021,-0.46073 z"
         id="path1655" />
      <path
         style="fill:#14721e;fill-opacity:1;stroke-width:0.352778"
         d="m 21.85891,307.55743 c -2.953043,-0.96457 -5.640169,-3.4221 -7.018497,-6.41884 -0.908304,-1.97482 -1.018526,-2.59255 -0.999839,-5.60345 0.0182,-2.93042 0.134341,-3.56872 0.866655,-4.7625 2.566377,-4.18358 6.568373,-6.84581 10.291721,-6.84632 7.045047,-10e-4 12.984085,7.16048 11.614539,14.00512 -1.494484,7.46905 -8.12152,11.79257 -14.754579,9.62599 z m 0.06647,-44.60078 c -1.567561,-0.57822 -3.351389,-2.3376 -3.351389,-3.30546 0,-0.57844 0.525081,-0.6302 6.702778,-0.66069 6.033043,-0.0298 6.702778,0.0256 6.702778,0.55468 0,2.72054 -6.212523,4.8285 -10.054167,3.41147 z M 4.8278285,260.21853 c -2.0456213,-0.7853 -5.6566199,-3.99377 -5.6566199,-5.02606 0,-1.0219 2.1104569,-1.95582 4.4097225,-1.95138 2.565107,0.005 3.3570992,0.37098 2.6489478,1.22425 -0.4076319,0.49116 -0.3980018,0.72311 0.063366,1.52619 0.2992272,0.52085 0.6444622,1.60781 0.7671887,2.41547 0.1227268,0.80766 0.3198403,1.72047 0.438035,2.02847 0.284219,0.74067 -0.2997398,0.69323 -2.6706401,-0.21694 z m 38.2723935,-0.19319 c 0.143577,-0.53358 0.371119,-1.52576 0.505644,-2.20486 0.134524,-0.6791 0.451234,-1.61903 0.703802,-2.08874 0.3957,-0.7359 0.375818,-0.91499 -0.143754,-1.29491 -0.557388,-0.40758 -0.543934,-0.47249 0.178026,-0.85887 1.282841,-0.68656 5.478745,-0.29613 6.367357,0.59248 0.692369,0.69237 0.703517,0.80003 0.18638,1.80005 -0.875499,1.69303 -3.485614,3.75488 -5.59513,4.41985 -2.482522,0.78254 -2.509894,0.77801 -2.202325,-0.365 z M 18.91868,253.22628 c -0.575522,-0.57552 -0.639332,-0.85248 -0.329699,-1.43104 0.507492,-0.94826 1.177784,-1.17199 2.074107,-0.69229 0.869996,0.46561 0.951756,1.50961 0.178756,2.28261 -0.727494,0.72749 -1.064288,0.6996 -1.923164,-0.15928 z m 10.801731,0.25291 c -1.322835,-0.96728 0.08338,-3.36638 1.465383,-2.50004 0.869043,0.54477 0.997694,1.93917 0.23066,2.50004 -0.346551,0.2534 -0.728161,0.46073 -0.848021,0.46073 -0.11986,0 -0.50147,-0.20733 -0.848022,-0.46073 z"
         id="path1653" />
    </g>
  </g>
</svg>
