<?xml version="1.0" encoding="UTF-8" standalone="no"?>
<!-- Created with Inkscape (http://www.inkscape.org/) -->

<svg
   width="57.544399mm"
   height="57.544399mm"
   viewBox="0 0 57.544399 57.544399"
   version="1.1"
   id="svg5"
   inkscape:version="1.1 (c4e8f9ed74, 2021-05-24)"
   sodipodi:docname="aliens.svg"
   xmlns:inkscape="http://www.inkscape.org/namespaces/inkscape"
   xmlns:sodipodi="http://sodipodi.sourceforge.net/DTD/sodipodi-0.dtd"
   xmlns="http://www.w3.org/2000/svg"
   xmlns:svg="http://www.w3.org/2000/svg">
  <sodipodi:namedview
     id="namedview7"
     pagecolor="#ffffff"
     bordercolor="#666666"
     borderopacity="1.0"
     inkscape:pageshadow="2"
     inkscape:pageopacity="0"
     inkscape:pagecheckerboard="0"
     inkscape:document-units="mm"
     showgrid="false"
     inkscape:zoom="0.84096521"
     inkscape:cx="212.25611"
     inkscape:cy="498.83158"
     inkscape:window-width="1920"
     inkscape:window-height="1080"
     inkscape:window-x="1280"
     inkscape:window-y="0"
     inkscape:window-maximized="1"
     inkscape:current-layer="layer1" />
  <defs
     id="defs2" />
  <g
     inkscape:label="Layer 1"
     inkscape:groupmode="layer"
     id="layer1"
     transform="translate(-61.805259,-57.520366)">
    <g
       id="alien_teal"
       transform="matrix(0.54372657,0,0,0.54372657,-148.27542,-42.367996)">
      <path
         style="fill:#141414;fill-opacity:0;stroke-width:0.352778"
         d="m 386.37192,236.62732 v -52.91667 h 52.91667 52.91667 v 52.91667 52.91667 h -52.91667 -52.91667 z m 46.56667,39.71023 c 1.55819,-0.82071 1.75184,-1.12555 1.75849,-2.76809 0.013,-3.22204 1.95441,-5.1895 5.12068,-5.1895 3.18753,0 4.68768,1.52805 5.34949,5.44897 0.41866,2.48033 1.61506,3.12801 6.10712,3.30613 3.52836,0.13991 9.31457,-0.63642 10.02291,-1.34476 0.28796,-0.28796 0.17763,-0.73971 -0.41468,-1.69781 -2.97139,-4.80641 -4.93668,-10.77257 -5.25261,-15.94572 -0.27873,-4.56392 0.3425,-6.86312 2.88778,-10.6878 2.04284,-3.0697 3.68112,-7.03419 3.69394,-8.93899 0.0109,-1.6231 1.35565,-2.44142 3.02186,-1.83891 1.00148,0.36214 1.3414,0.76263 1.88634,2.22247 1.44418,3.86882 1.94375,11.72472 0.90474,14.22747 -0.29948,0.72137 -1.50657,2.28497 -2.68242,3.47466 -1.83864,1.86027 -2.27513,2.56777 -3.11808,5.05411 -0.76985,2.27074 -0.8792,2.92979 -0.50964,3.0716 0.25878,0.0993 0.65943,0.75299 0.89033,1.45263 0.23091,0.69964 1.1252,2.02618 1.98732,2.94786 1.18471,1.26654 1.5113,1.85286 1.33736,2.40089 -0.27035,0.8518 0.32736,0.97112 1.0824,0.21607 0.40195,-0.40194 0.73796,-0.42924 1.59708,-0.12976 0.95594,0.33325 1.06346,0.50211 0.88568,1.39099 -0.24495,1.22476 0.41169,1.36234 1.38244,0.28967 0.51124,-0.56492 1.00295,-0.69927 2.25954,-0.61737 1.52957,0.0997 1.6011,0.15192 1.5012,1.09617 -0.0923,0.87277 -0.0255,0.949 0.55819,0.63662 0.36469,-0.19517 0.86908,-0.60309 1.12088,-0.90648 0.25179,-0.3034 1.03521,-0.87615 1.74093,-1.27278 2.4125,-1.35591 3.97744,-4.81641 5.15686,-11.40317 0.9738,-5.43838 0.44337,-11.66212 -1.79232,-21.0304 -0.99959,-4.18862 -1.64064,-5.58581 -3.92487,-8.55433 -1.39834,-1.81725 -1.5777,-2.24263 -1.40202,-3.3252 0.19054,-1.17416 0.15502,-1.22972 -0.65594,-1.02619 -0.7221,0.18124 -0.89416,0.0614 -1.09045,-0.75969 -0.34813,-1.45609 -0.50254,-1.59805 -1.14069,-1.04866 -0.52176,0.44918 -1.03907,0.0267 -4.97318,-4.06103 -3.7859,-3.93378 -4.33172,-4.64369 -3.96166,-5.15266 1.75988,-2.42051 2.32563,-6.98173 1.3025,-10.50117 -0.6594,-2.26828 -2.21164,-5.51929 -3.24394,-6.79412 l -0.67035,-0.82786 -3.04811,2.29894 c -1.67646,1.26442 -3.77994,2.72782 -4.6744,3.25201 -1.4706,0.86183 -1.68405,0.90158 -2.22947,0.4152 -0.35138,-0.31334 -1.91409,-0.69636 -3.7435,-0.91753 -2.01689,-0.24385 -3.37656,-0.59347 -3.80069,-0.9773 -0.50626,-0.45815 -0.75723,-0.50078 -1.07538,-0.18263 -0.55465,0.55465 -5.99034,0.55465 -6.54499,0 -0.31815,-0.31815 -0.56912,-0.27552 -1.07537,0.18263 -0.42413,0.38383 -1.78381,0.73345 -3.8007,0.9773 -1.8294,0.22117 -3.39211,0.60419 -3.7435,0.91753 -0.54497,0.48598 -0.74921,0.45208 -2.11666,-0.3513 -0.83242,-0.48905 -2.88817,-1.9152 -4.56832,-3.16922 -1.68016,-1.25403 -3.20812,-2.18242 -3.39547,-2.06308 -0.84256,0.53668 -2.65411,4.00038 -3.48741,6.66797 -1.20191,3.84758 -1.06693,7.17204 0.4007,9.86855 l 0.98418,1.80827 -4.36664,4.60579 c -3.61595,3.81398 -4.43398,4.5149 -4.75832,4.07706 -0.57473,-0.77585 -0.78801,-0.65917 -1.12932,0.6178 -0.23783,0.88983 -0.47704,1.12772 -1.06842,1.0625 -0.66004,-0.0728 -0.76198,0.0926 -0.76198,1.23644 0,1.05218 -0.39278,1.8426 -1.93314,3.89017 -2.16077,2.87228 -3.16045,5.63061 -4.37341,12.06714 -1.67187,8.87174 -1.75654,12.90291 -0.40141,19.11189 1.23666,5.66617 2.33343,7.46252 6.28875,10.30008 1.58074,1.13404 2.03675,1.12358 1.88385,-0.0432 -0.0941,-0.71773 0.042,-0.793 1.42053,-0.78591 0.96746,0.005 1.84683,0.25993 2.4065,0.69771 1.19437,0.93425 1.48206,0.87923 1.34816,-0.2578 -0.0901,-0.7648 0.0918,-1.06214 0.88229,-1.44263 0.86305,-0.4154 1.07829,-0.40455 1.61528,0.0814 0.88181,0.79803 1.09316,0.70339 1.09316,-0.48951 0,-0.72746 0.26771,-1.22562 0.87115,-1.621 0.47913,-0.31394 1.35585,-1.54076 1.94825,-2.72627 0.59241,-1.18551 1.21733,-2.24214 1.38872,-2.34807 0.17139,-0.10592 -0.0757,-1.38307 -0.54908,-2.83811 -0.74204,-2.28079 -1.17339,-2.96165 -3.12876,-4.93858 -1.4537,-1.46971 -2.46276,-2.84732 -2.81029,-3.83671 -0.6754,-1.92284 -0.69197,-5.65052 -0.0425,-9.56884 0.73061,-4.40799 1.24251,-5.66937 2.62846,-6.47678 1.09705,-0.63911 1.25737,-0.64986 2.09672,-0.14057 0.7099,0.43075 1.00675,1.03148 1.35618,2.74449 0.55095,2.70099 1.96803,5.7813 4.07374,8.85515 2.0849,3.04347 2.54805,5.0214 2.2942,9.7976 -0.29051,5.46585 -2.05382,11.07713 -4.76605,15.16668 l -1.26059,1.90074 0.7813,0.63266 c 0.43003,0.34821 1.68919,0.735 2.80063,0.86028 1.11063,0.1252 2.17808,0.29084 2.37211,0.36809 0.19402,0.0773 2.01965,0.0975 4.05694,0.045 2.77729,-0.0716 4.01313,-0.25825 4.93889,-0.74586 z"
         id="path1445" />
      <path
         style="fill:#334939;fill-opacity:1;stroke-width:0.352778"
         d="m 403.385,273.51621 c -1.41013,-1.11588 -1.44528,-1.19022 -0.82725,-1.74954 1.03049,-0.93258 1.92732,-0.26033 2.64039,1.97921 0.33538,1.05336 -0.29225,0.97385 -1.81314,-0.22967 z m 71.30092,0.1733 c 0.10827,-0.98893 1.09184,-2.48997 1.63159,-2.48997 0.12687,0 0.53225,0.22052 0.90084,0.49004 0.64105,0.46874 0.61872,0.53389 -0.51377,1.49931 -1.95074,1.66295 -2.15135,1.7127 -2.01866,0.50062 z m -65.99618,-0.48342 c -1.21475,-0.82106 -1.54299,-2.13347 -0.62199,-2.4869 1.14694,-0.44012 1.90897,0.37067 2.19219,2.33244 0.16652,1.15342 -0.0594,1.17564 -1.5702,0.15446 z m 60.81414,-0.33085 c 0.26169,-1.41835 1.28165,-2.55385 2.0345,-2.26495 0.86524,0.33202 0.66078,1.59145 -0.41159,2.5353 -1.37718,1.21214 -1.88095,1.12822 -1.62291,-0.27035 z m -57.01649,-1.56682 c -1.21492,-1.54453 -0.47926,-3.35005 0.83108,-2.0397 0.60391,0.6039 0.79776,2.98916 0.24295,2.98916 -0.17995,0 -0.66326,-0.42726 -1.07403,-0.94946 z m 53.44953,-0.33936 c 0.14001,-1.50643 0.91352,-2.43248 1.76035,-2.10753 0.74335,0.28526 0.42931,1.86307 -0.55311,2.77899 -1.00382,0.93587 -1.33928,0.74929 -1.20724,-0.67146 z m -49.3143,-7.37245 c -1.17736,-1.37981 -1.21498,-1.85423 -0.17744,-2.23804 0.70911,-0.26232 0.85787,-0.12163 1.41082,1.33428 0.73511,1.93556 0.71245,1.69523 0.17773,1.88457 -0.24254,0.0859 -0.87754,-0.35549 -1.41111,-0.98081 z m 44.80554,0.98835 c -0.0699,-0.14552 0.12378,-0.99544 0.43037,-1.88872 0.48907,-1.4249 0.64913,-1.59021 1.30488,-1.34763 1.22793,0.45424 1.24576,0.92339 0.0853,2.24509 -1.09053,1.24205 -1.57373,1.50515 -1.82054,0.99126 z m -24.26067,-4.43219 c -8.19818,-1.82881 -7.82436,-9.21097 0.54837,-10.82919 5.19434,-1.00392 10.74495,1.82269 10.74495,5.4718 0,3.73528 -5.93779,6.55208 -11.29332,5.35739 z m -2.8489,-38.12574 c -3.4,-0.98082 -8.35973,-4.29035 -7.58725,-5.06283 0.36116,-0.36116 17.86039,-0.33551 22.17045,0.0325 2.56867,0.21933 3.43958,0.41842 3.43958,0.78633 0,0.69404 -3.33542,2.827 -5.83464,3.73118 -2.63129,0.95196 -9.64315,1.24699 -12.18814,0.51282 z m -19.54649,-7.33162 c -1.98074,-3.63926 -1.4075,-9.45271 1.40537,-14.25252 l 0.96204,-1.6416 0.78422,1.92954 c 0.97887,2.40846 2.00666,4.08674 3.17479,5.18414 1.08258,1.01704 1.16792,1.78457 0.1984,1.78457 -0.80726,0 -0.90263,0.36464 -0.26458,1.01153 0.35334,0.35824 0.31508,0.54006 -0.19252,0.91499 -0.43193,0.31903 -0.56784,0.73241 -0.42714,1.29917 0.16976,0.68383 -0.22267,1.25624 -2.21269,3.2275 l -2.41906,2.39625 z m 46.5383,-0.67288 c -2.13575,-2.15225 -2.38039,-2.53144 -2.01285,-3.11996 0.35128,-0.56249 0.29379,-0.75453 -0.35848,-1.19729 -0.62528,-0.42445 -0.69083,-0.61652 -0.3359,-0.98432 0.63686,-0.65996 0.54323,-1.02142 -0.26458,-1.02142 -0.9649,0 -0.88564,-0.76617 0.18315,-1.77024 1.37067,-1.28768 3.08106,-4.14876 3.52471,-5.89601 l 0.40052,-1.57744 1.26321,2.41698 c 0.69477,1.32935 1.51663,3.27924 1.82637,4.3331 1.0712,3.6447 0.56754,8.26324 -1.1375,10.43084 l -0.65741,0.83577 z m -28.39767,-3.52663 c -0.6581,-0.65809 -0.68039,-0.80839 -0.22243,-1.4993 0.27994,-0.42234 0.77545,-0.82069 1.10114,-0.88522 1.46182,-0.28963 2.25445,2.04419 0.93423,2.75075 -0.91306,0.48865 -0.96945,0.47726 -1.81294,-0.36623 z m 11.86911,0.17705 c -0.3049,-0.3049 -0.55436,-0.76981 -0.55436,-1.03313 0,-0.61768 0.96982,-1.5875 1.5875,-1.5875 0.60441,0 1.5875,0.96483 1.5875,1.55802 0,0.53282 -1.12526,1.61698 -1.67827,1.61698 -0.2134,0 -0.63747,-0.24947 -0.94237,-0.55437 z"
         id="path1443" />
      <path
         style="fill:#218169;fill-opacity:1;stroke-width:0.352778"
         d="m 423.94276,277.03844 c -0.19403,-0.0772 -1.26148,-0.24289 -2.37211,-0.36809 -1.11144,-0.12528 -2.3706,-0.51207 -2.80063,-0.86028 l -0.7813,-0.63266 1.26059,-1.90074 c 2.71223,-4.08955 4.47554,-9.70083 4.76605,-15.16668 0.25385,-4.7762 -0.2093,-6.75413 -2.2942,-9.7976 -2.10571,-3.07385 -3.52279,-6.15416 -4.07374,-8.85515 -0.34943,-1.71301 -0.64628,-2.31374 -1.35618,-2.74449 -0.83935,-0.50929 -0.99967,-0.49854 -2.09672,0.14057 -1.38595,0.80741 -1.89785,2.06879 -2.62846,6.47678 -0.64945,3.91832 -0.63288,7.646 0.0425,9.56884 0.34612,0.98538 1.35995,2.37296 2.80328,3.83671 1.24359,1.26119 2.42621,2.73436 2.62806,3.27373 0.32907,0.87935 0.27636,1.01512 -0.51023,1.31419 -1.11357,0.42337 -1.11214,1.06562 0.005,2.11486 0.48507,0.4557 0.88195,1.1247 0.88195,1.48666 0,0.96111 -1.32988,3.41063 -2.38009,4.38393 l -0.90917,0.84259 -0.67981,-0.72969 c -0.91233,-0.97927 -1.49899,-0.70113 -1.49899,0.71069 0,0.90295 -0.18815,1.23036 -0.84772,1.47511 -0.66646,0.24731 -0.99473,0.15676 -1.53533,-0.4235 -0.37819,-0.40594 -0.92251,-0.64793 -1.20961,-0.53776 -0.28709,0.11017 -0.58838,0.20031 -0.66953,0.20031 -0.0811,0 -0.14753,0.39687 -0.14753,0.88194 0,0.7851 -0.14634,0.88195 -1.33271,0.88195 -0.89615,0 -1.5306,-0.23112 -1.93683,-0.70556 -0.72236,-0.84365 -1.08387,-0.88185 -1.66935,-0.17639 -0.6328,0.76248 -1.15591,0.65796 -2.20711,-0.44097 -1.96798,-2.05734 -3.8122,-7.87193 -4.35743,-13.73843 -0.37794,-4.06654 1.04739,-14.00241 2.88548,-20.11447 0.65736,-2.18587 1.34546,-3.52719 2.80425,-5.46633 1.54036,-2.04757 1.93314,-2.83799 1.93314,-3.89017 0,-1.14383 0.10194,-1.30924 0.76198,-1.23644 0.59138,0.0652 0.83059,-0.17267 1.06842,-1.0625 0.33193,-1.24188 0.78929,-1.47761 1.13235,-0.58362 0.16007,0.41714 1.97406,-1.24414 7.0051,-6.41537 5.45482,-5.60683 6.77445,-7.15042 6.71456,-7.85414 -0.0416,-0.48933 0.1919,-1.07275 0.52917,-1.32199 0.48365,-0.35741 0.51601,-0.53504 0.16273,-0.89321 -0.63805,-0.64689 -0.54268,-1.01153 0.26458,-1.01153 1.02732,0 0.87057,-0.61378 -0.56161,-2.19903 -1.3996,-1.54919 -3.31823,-5.30869 -3.31867,-6.50282 -1.5e-4,-0.4204 0.18535,-0.82623 0.41222,-0.90185 0.22687,-0.0756 1.77468,0.87922 3.43958,2.12187 1.6649,1.24266 3.70817,2.6595 4.54059,3.14855 1.36745,0.80338 1.57169,0.83728 2.11666,0.3513 0.35139,-0.31334 1.9141,-0.69636 3.7435,-0.91753 2.01689,-0.24385 3.37657,-0.59347 3.8007,-0.9773 0.50625,-0.45815 0.75722,-0.50078 1.07537,-0.18263 0.55465,0.55465 5.99034,0.55465 6.54499,0 0.31815,-0.31815 0.56912,-0.27552 1.07538,0.18263 0.42413,0.38383 1.7838,0.73345 3.80069,0.9773 1.82941,0.22117 3.39212,0.60419 3.7435,0.91753 0.54542,0.48638 0.75887,0.44663 2.22947,-0.4152 0.89446,-0.52419 2.97821,-1.97271 4.63056,-3.21895 1.65235,-1.24623 3.14941,-2.17618 3.32679,-2.06655 1.06801,0.66007 -0.47844,4.60883 -2.86818,7.32371 -1.55909,1.77122 -1.73097,2.35897 -0.68987,2.35897 0.80781,0 0.90144,0.36146 0.26458,1.02142 -0.35493,0.3678 -0.28938,0.55987 0.3359,0.98432 0.64543,0.43812 0.70755,0.63833 0.36719,1.18334 -0.36176,0.57927 0.39321,1.47555 6.45508,7.6633 6.11287,6.23981 6.92853,6.95406 7.44709,6.52115 0.63885,-0.53333 0.79326,-0.38932 1.14069,1.06384 0.19629,0.82106 0.36835,0.94093 1.09045,0.75969 0.81096,-0.20353 0.84648,-0.14797 0.65594,1.02619 -0.17568,1.08257 0.004,1.50795 1.40202,3.3252 2.28423,2.96852 2.92528,4.36571 3.92487,8.55433 2.23569,9.36828 2.76612,15.59202 1.79232,21.0304 -1.04359,5.82823 -2.70819,9.92458 -4.48348,11.03327 -0.50602,0.31601 -0.83727,0.27699 -1.53617,-0.18095 -0.84563,-0.55408 -0.932,-0.54537 -1.69442,0.17089 -0.52081,0.48928 -1.26066,0.75473 -2.10354,0.75473 -1.15598,0 -1.30018,-0.099 -1.30018,-0.89302 0,-1.20432 -0.91257,-1.48358 -1.87953,-0.57517 -0.53617,0.50371 -1.04362,0.67018 -1.59962,0.52479 -0.71016,-0.18571 -0.78576,-0.36522 -0.59102,-1.40328 0.29388,-1.56649 -0.65766,-2.04791 -1.64289,-0.8312 l -0.66427,0.82035 -1.2167,-1.17927 c -0.66918,-0.6486 -1.47679,-1.86033 -1.7947,-2.69276 l -0.57801,-1.51349 1.11978,-1.27536 c 0.89048,-1.0142 1.03522,-1.37724 0.70684,-1.77292 -0.22712,-0.27366 -0.63163,-0.49756 -0.89891,-0.49756 -1.30764,0 -0.14094,-2.36521 2.34923,-4.7625 2.56484,-2.46918 3.14477,-3.88369 3.15427,-7.69354 0.009,-3.74637 -0.54102,-7.54992 -1.44149,-9.96219 -0.54494,-1.45984 -0.88486,-1.86033 -1.88634,-2.22247 -1.66621,-0.60251 -3.01094,0.21581 -3.02186,1.83891 -0.0128,1.9048 -1.6511,5.86929 -3.69394,8.93899 -2.54528,3.82468 -3.16651,6.12388 -2.88778,10.6878 0.31593,5.17315 2.28122,11.13931 5.25261,15.94572 0.59231,0.9581 0.70264,1.40985 0.41468,1.69781 -0.70834,0.70834 -6.49455,1.48467 -10.02291,1.34476 -4.49206,-0.17812 -5.68846,-0.8258 -6.10712,-3.30613 -0.66181,-3.92092 -2.16196,-5.44897 -5.34949,-5.44897 -3.16627,0 -5.10764,1.96746 -5.12068,5.1895 -0.007,1.64254 -0.2003,1.94738 -1.75849,2.76809 -0.92576,0.48761 -2.1616,0.67425 -4.93889,0.74586 -2.03729,0.0525 -3.86292,0.0323 -4.05694,-0.045 z m 20.98057,-17.76697 c 5.82542,-2.90042 4.07863,-8.6675 -3.02292,-9.98029 -3.81455,-0.70516 -8.53623,0.85942 -10.04094,3.32716 -3.25206,5.33341 6.12399,10.10842 13.06386,6.65313 z m 1.5834,-37.75726 c 2.49922,-0.90418 5.83464,-3.03714 5.83464,-3.73118 0,-0.36791 -0.87091,-0.56701 -3.43958,-0.78633 -4.31006,-0.36801 -21.80929,-0.39366 -22.17045,-0.0325 -0.77248,0.77248 4.18725,4.08201 7.58725,5.06283 2.54499,0.73417 9.55685,0.43914 12.18814,-0.51282 z m -11.78106,-10.65208 c 1.32022,-0.70656 0.52759,-3.04038 -0.93423,-2.75075 -0.32569,0.0645 -0.8212,0.46288 -1.10114,0.88522 -0.45796,0.69091 -0.43567,0.84121 0.22243,1.4993 0.84349,0.84349 0.89988,0.85488 1.81294,0.36623 z m 12.03167,-0.21865 c 0.35483,-0.32112 0.64514,-0.78603 0.64514,-1.03314 0,-0.59319 -0.98309,-1.55802 -1.5875,-1.55802 -0.61768,0 -1.5875,0.96982 -1.5875,1.5875 0,0.57538 0.95424,1.5875 1.49673,1.5875 0.21339,0 0.6783,-0.26273 1.03313,-0.58384 z"
         id="path1441" />
    </g>
  </g>
</svg>
