<?xml version="1.0" encoding="UTF-8" standalone="no"?>
<!-- Created with Inkscape (http://www.inkscape.org/) -->

<svg
   width="57.544399mm"
   height="57.544395mm"
   viewBox="0 0 57.544399 57.544395"
   version="1.1"
   id="svg5"
   inkscape:version="1.1 (c4e8f9ed74, 2021-05-24)"
   sodipodi:docname="aliens.svg"
   xmlns:inkscape="http://www.inkscape.org/namespaces/inkscape"
   xmlns:sodipodi="http://sodipodi.sourceforge.net/DTD/sodipodi-0.dtd"
   xmlns="http://www.w3.org/2000/svg"
   xmlns:svg="http://www.w3.org/2000/svg">
  <sodipodi:namedview
     id="namedview7"
     pagecolor="#ffffff"
     bordercolor="#666666"
     borderopacity="1.0"
     inkscape:pageshadow="2"
     inkscape:pageopacity="0"
     inkscape:pagecheckerboard="0"
     inkscape:document-units="mm"
     showgrid="false"
     inkscape:zoom="0.84096521"
     inkscape:cx="212.25611"
     inkscape:cy="498.83158"
     inkscape:window-width="1920"
     inkscape:window-height="1080"
     inkscape:window-x="1280"
     inkscape:window-y="0"
     inkscape:window-maximized="1"
     inkscape:current-layer="layer1" />
  <defs
     id="defs2" />
  <g
     inkscape:label="Layer 1"
     inkscape:groupmode="layer"
     id="layer1"
     transform="translate(-61.805257,-0.92892446)">
    <g
       id="alien_brightyellow"
       transform="matrix(0.54372657,0,0,0.54372657,-92.849876,-9.320584)">
      <path
         style="fill:#141414;fill-opacity:0;stroke-width:0.352778"
         d="m 284.43549,71.767153 v -52.91667 h 52.91667 52.91667 v 52.91667 52.916667 h -52.91667 -52.91667 z m 41.45139,35.936147 c 3.8617,-2.25303 6.09084,-3.14228 8.90532,-3.55249 5.00344,-0.72926 8.70559,0.20156 14.50598,3.64722 1.58202,0.93978 2.23905,1.12056 4.01184,1.10387 1.74316,-0.0164 2.37402,-0.19891 3.54912,-1.02667 2.01432,-1.41889 3.07085,-3.5748 3.07058,-6.26564 -1.2e-4,-1.1933 -0.61988,-4.97834 -1.39329,-8.509173 -1.83698,-8.386315 -3.89816,-19.313639 -3.89816,-20.666052 0,-1.513918 0.65653,-1.168954 1.99421,1.047838 1.78435,2.957002 2.91237,8.757364 2.93379,15.085735 0.007,2.013635 0.21882,3.796824 0.56623,4.7625 0.34631,0.962636 0.48242,2.102214 0.36163,3.027617 -0.20345,1.558587 0.33703,2.413244 0.89529,1.415701 0.26562,-0.474641 0.55275,-0.396138 2.07684,0.567835 1.72904,1.093593 1.76548,1.152161 1.62892,2.617929 -0.0768,0.82461 -0.0251,1.4993 0.11508,1.4993 0.42678,0 1.32329,-1.18256 1.60467,-2.11667 0.52405,-1.739733 1.84127,-1.913963 2.0003,-0.26458 0.16002,1.65973 0.72937,1.40863 1.39978,-0.61736 0.62774,-1.897041 1.61873,-2.539488 1.95191,-1.265403 0.39618,1.514979 1.16932,0.523445 1.16765,-1.497478 -3.5e-4,-0.614719 0.26016,-2.19365 0.57925,-3.508728 1.079,-4.446895 -0.34731,-9.137573 -4.78561,-15.738265 -1.43391,-2.132527 -2.11965,-3.470547 -1.97367,-3.850989 0.15184,-0.395672 -0.15111,-0.895834 -0.9428,-1.556565 -1.13819,-0.949911 -1.14725,-0.97893 -0.37277,-1.194904 1.28199,-0.357502 0.93536,-0.815415 -1.46894,-1.940525 -2.09473,-0.980239 -2.63156,-1.501232 -7.23195,-7.018508 -2.73309,-3.277817 -4.96925,-6.137338 -4.96925,-6.354494 0,-0.217156 0.41232,-0.935412 0.91627,-1.596125 0.50395,-0.660712 1.31925,-2.436058 1.81178,-3.945212 0.81411,-2.494477 0.8911,-3.23887 0.84695,-8.188523 -0.0458,-5.138233 -0.005,-5.490511 0.71785,-6.260415 1.79461,-1.910276 -1.1249,-1.286787 -4.57597,0.977243 -1.22286,0.802245 -3.52474,2.675283 -5.11528,4.162306 -2.15028,2.010344 -3.09543,2.672364 -3.68563,2.581566 -0.43656,-0.06716 -0.81359,-0.269821 -0.83785,-0.450354 -0.0243,-0.180533 -0.0838,-0.486991 -0.13229,-0.681019 -0.0485,-0.194028 -0.10804,-0.511528 -0.13229,-0.705556 -0.0723,-0.578589 -0.82776,-0.402387 -1.67094,0.389738 -1.15992,1.089689 -1.50741,0.604294 -1.28931,-1.800986 0.31199,-3.440645 -1.00532,-2.529797 -2.39925,1.65895 -0.40664,1.221959 -0.86406,2.221743 -1.01648,2.221743 -0.15243,0 -0.69736,-0.635 -1.21097,-1.411111 -0.93773,-1.417007 -1.98215,-1.877114 -1.98215,-0.873213 0,0.295844 -0.4062,0.692334 -0.90266,0.881089 -0.82238,0.312669 -1.20674,0.07502 -4.32153,-2.672084 -3.11259,-2.745153 -7.45891,-5.449682 -8.75793,-5.449682 -0.66514,0 -0.60297,0.692245 0.13559,1.509681 0.53281,0.589706 0.61938,1.463235 0.6321,6.377779 0.0136,5.236357 0.0892,5.901546 0.94055,8.268221 0.50919,1.415554 1.34437,3.1225 1.85594,3.793212 l 0.93014,1.219479 -2.93988,3.43873 c -1.61693,1.891305 -3.94183,4.660939 -5.16643,6.154741 -1.82562,2.226953 -2.63359,2.906487 -4.48705,3.773827 -2.40221,1.124126 -2.74852,1.582064 -1.46676,1.939502 0.77125,0.215074 0.75962,0.249812 -0.40994,1.225243 -0.83839,0.699226 -1.13396,1.185654 -0.97389,1.602786 0.15365,0.400399 -0.48283,1.658754 -1.92043,3.79676 -2.86147,4.255629 -4.43386,7.677585 -4.96331,10.801598 -0.37915,2.237186 -0.35694,2.880759 0.1705,4.938889 0.33356,1.301574 0.60514,2.869456 0.60351,3.484175 -0.005,2.018679 0.76912,3.013653 1.16561,1.497478 0.33318,-1.274085 1.32417,-0.631638 1.95191,1.265403 0.67041,2.02599 1.23975,2.27709 1.39978,0.61736 0.16251,-1.685444 1.56167,-1.455475 2.00988,0.33035 0.23656,0.94252 1.55366,2.44122 1.61793,1.841 0.0188,-0.1756 0.021,-0.87489 0.005,-1.55399 -0.0263,-1.108154 0.15084,-1.349387 1.7278,-2.353339 1.57892,-1.005209 1.79237,-1.058859 2.1053,-0.529167 0.29877,0.505721 0.39598,0.516643 0.68433,0.0769 0.18486,-0.281905 0.24823,-0.951886 0.14084,-1.488849 -0.10739,-0.536963 0.0544,-1.973189 0.35947,-3.191616 0.3051,-1.218424 0.63811,-4.358443 0.74002,-6.977818 0.26305,-6.761167 1.35793,-11.01258 3.61137,-14.022918 1.85133,-2.47317 1.93196,-1.353326 0.47915,6.654649 -0.57682,3.179424 -1.76744,9.095578 -2.64584,13.147009 -0.90715,4.184065 -1.59708,8.288799 -1.59708,9.501819 0,6.22817 5.38543,9.32723 10.75972,6.1917 z"
         id="path1233" />
      <path
         style="fill:#2039f4;fill-opacity:1;stroke-width:0.352778"
         d="m 320.3534,108.8265 c -1.789,-0.34673 -3.59971,-1.81936 -4.48457,-3.64725 -1.11673,-2.30685 -0.95292,-4.8289 0.85541,-13.169467 0.8784,-4.051431 2.06902,-9.967585 2.64584,-13.147009 1.45281,-8.007975 1.37218,-9.127819 -0.47915,-6.654649 -2.25344,3.010338 -3.34832,7.261751 -3.61137,14.022918 -0.10191,2.619375 -0.43492,5.759394 -0.74002,6.977818 -0.3051,1.218427 -0.46686,2.654653 -0.35947,3.191616 0.1074,0.536963 0.044,1.206944 -0.14083,1.488849 -0.28836,0.439741 -0.38557,0.428819 -0.68434,-0.0769 -0.31293,-0.529692 -0.52638,-0.476042 -2.1053,0.529167 -1.57696,1.003952 -1.75407,1.245185 -1.7278,2.353337 0.0161,0.6791 0.0139,1.37839 -0.005,1.55399 -0.0643,0.60022 -1.38137,-0.89848 -1.61793,-1.841 -0.44821,-1.785823 -1.84737,-2.015792 -2.00988,-0.33035 -0.16002,1.65973 -0.72937,1.40863 -1.39978,-0.617358 -0.62774,-1.897041 -1.61873,-2.539488 -1.95191,-1.265403 -0.39649,1.516175 -1.17096,0.521201 -1.16561,-1.497478 0.002,-0.614719 -0.26995,-2.182601 -0.60351,-3.484175 -1.1211,-4.37466 0.30941,-9.072708 4.79282,-15.740487 1.43759,-2.138006 2.07407,-3.396361 1.92042,-3.79676 -0.16006,-0.417132 0.1355,-0.90356 0.97389,-1.602786 1.16957,-0.975431 1.18119,-1.010169 0.40994,-1.225243 -1.28176,-0.357438 -0.93545,-0.815376 1.46676,-1.939502 1.85346,-0.86734 2.66143,-1.546874 4.48705,-3.773827 1.2246,-1.493802 3.5495,-4.263436 5.16643,-6.154741 l 2.93988,-3.43873 -0.93014,-1.219479 c -0.51157,-0.670712 -1.34675,-2.377658 -1.85594,-3.793212 -0.85132,-2.366675 -0.92699,-3.031864 -0.94055,-8.268221 -0.0127,-4.914544 -0.0993,-5.788073 -0.6321,-6.377779 -0.73856,-0.817436 -0.80073,-1.509681 -0.13559,-1.509681 1.29902,0 5.64534,2.704529 8.75793,5.449682 3.11479,2.747099 3.49915,2.984753 4.32153,2.672084 0.49646,-0.188755 0.90266,-0.585245 0.90266,-0.881089 0,-1.003901 1.04442,-0.543794 1.98215,0.873213 0.51361,0.776111 1.05854,1.411111 1.21097,1.411111 0.15242,0 0.60984,-0.999784 1.01648,-2.221743 1.39393,-4.188747 2.71124,-5.099595 2.39925,-1.65895 -0.2181,2.40528 0.12939,2.890675 1.28931,1.800986 0.84318,-0.792125 1.59862,-0.968327 1.67094,-0.389738 0.0242,0.194028 0.0838,0.511528 0.13229,0.705556 0.0485,0.194028 0.10804,0.500486 0.13229,0.681019 0.0242,0.180533 0.40129,0.383193 0.83785,0.450354 0.5902,0.0908 1.53535,-0.571222 3.68563,-2.581566 1.59054,-1.487023 3.89242,-3.360061 5.11528,-4.162306 3.45107,-2.26403 6.37058,-2.887519 4.57597,-0.977243 -0.72329,0.769904 -0.76368,1.122182 -0.71785,6.260415 0.0442,4.949653 -0.0328,5.694046 -0.84695,8.188523 -0.49253,1.509154 -1.30783,3.2845 -1.81178,3.945212 -0.50395,0.660713 -0.91627,1.378969 -0.91627,1.596125 0,0.217156 2.23616,3.076677 4.96925,6.354494 4.60039,5.517276 5.13722,6.038269 7.23195,7.018508 2.4043,1.12511 2.75093,1.583023 1.46894,1.940525 -0.77448,0.215974 -0.76542,0.244993 0.37277,1.194904 0.79169,0.660731 1.09464,1.160893 0.9428,1.556565 -0.14598,0.380442 0.53976,1.718462 1.97367,3.850989 4.4383,6.600692 5.86461,11.29137 4.78561,15.738265 -0.31909,1.315078 -0.57975,2.894009 -0.57925,3.508728 0.002,2.020923 -0.77147,3.012457 -1.16765,1.497478 -0.33318,-1.274085 -1.32417,-0.631638 -1.95191,1.265403 -0.67041,2.025988 -1.23976,2.277088 -1.39978,0.617358 -0.15903,-1.649381 -1.47625,-1.475151 -2.0003,0.26458 -0.28138,0.93411 -1.17789,2.11667 -1.60467,2.11667 -0.14012,0 -0.19191,-0.67469 -0.11508,-1.4993 0.13656,-1.465766 0.10012,-1.524334 -1.62892,-2.617927 -1.52409,-0.963973 -1.81122,-1.042476 -2.07684,-0.567835 -0.55826,0.997543 -1.09874,0.142886 -0.89529,-1.415701 0.12079,-0.925403 -0.0153,-2.064981 -0.36163,-3.027617 -0.34741,-0.965676 -0.55942,-2.748865 -0.56623,-4.7625 -0.0214,-6.328371 -1.14944,-12.128733 -2.93379,-15.085735 -1.33768,-2.216792 -1.99421,-2.561756 -1.99421,-1.047838 0,1.352413 2.06118,12.279737 3.89816,20.666052 0.77341,3.530833 1.39317,7.315871 1.39329,8.509171 2.7e-4,2.69084 -1.05626,4.84675 -3.07058,6.26564 -1.1751,0.82776 -1.80596,1.01024 -3.54912,1.02667 -1.77279,0.0167 -2.42982,-0.16409 -4.01184,-1.10387 -5.80039,-3.44566 -9.50254,-4.37648 -14.50598,-3.64722 -2.81448,0.41021 -5.04362,1.29946 -8.90532,3.55249 -1.9881,1.15992 -3.62727,1.49264 -5.53348,1.1232 z m 5.53348,-1.61458 c 5.23797,-3.05792 8.51811,-3.94732 13.20495,-3.5805 3.32943,0.26059 5.85362,1.11998 9.02316,3.07205 2.52518,1.55522 4.9919,2.12487 7.00897,1.61862 1.32697,-0.33305 3.06835,-1.9667 3.7901,-3.55562 0.88168,-1.94101 0.82499,-4.04732 -0.24028,-8.928222 -2.78348,-12.753458 -4.89439,-24.243159 -4.55491,-24.792448 0.34787,-0.562878 0.86136,-0.384224 1.81983,0.633159 2.25647,2.395184 3.6214,7.582937 3.87514,14.728473 0.26762,7.536321 1.43408,10.484365 4.84161,12.236436 1.10467,0.567994 1.54029,0.630834 2.22146,0.320471 0.46604,-0.212341 1.09551,-0.386073 1.39882,-0.386073 1.11605,0 4.04805,-2.251044 4.58072,-3.516849 2.06095,-4.897509 0.71791,-10.45112 -4.28309,-17.711076 -1.06736,-1.54947 -1.94064,-3.190628 -1.94064,-3.647016 0,-0.519342 -0.39596,-1.111741 -1.05834,-1.583394 -1.26437,-0.90031 -1.3297,-1.329644 -0.26458,-1.738641 0.71052,-0.272835 0.5533,-0.41469 -1.49931,-1.3528 -1.4157,-0.64703 -2.61073,-1.484348 -3.12335,-2.188436 -0.45667,-0.627232 -2.64269,-3.271648 -4.85783,-5.876471 -2.80518,-3.298656 -4.19766,-5.241981 -4.58809,-6.403044 -0.30831,-0.916849 -1.28628,-2.76337 -2.17327,-4.103379 -1.2877,-1.945359 -1.64456,-2.820348 -1.77071,-4.341573 l -0.15799,-1.905193 4.51366,-4.45834 c 2.48251,-2.452087 4.33931,-4.516459 4.12621,-4.587493 -1.02816,-0.342719 -5.1144,2.450243 -8.77127,5.995192 -2.77132,2.686499 -2.90797,2.769824 -4.05694,2.473617 -0.83249,-0.214616 -1.22283,-0.538293 -1.30176,-1.079432 -0.14004,-0.960142 -0.42593,-0.968078 -1.60018,-0.04442 -1.37821,1.084105 -1.74003,0.607977 -1.44828,-1.905827 0.21894,-1.886392 0.1845,-2.10224 -0.27463,-1.721196 -0.28872,0.239624 -0.87521,1.545449 -1.30329,2.901833 -0.4715,1.493964 -0.97127,2.466154 -1.26776,2.466154 -0.26919,0 -0.93277,-0.555621 -1.47462,-1.234712 -1.1251,-1.410073 -1.36367,-1.496234 -1.6035,-0.579113 -0.0987,0.377358 -0.60276,0.73856 -1.18767,0.851036 -0.87343,0.167957 -1.31365,-0.08684 -3.13289,-1.813301 -4.02291,-3.817737 -8.02413,-6.569844 -9.21133,-6.335699 -0.40577,0.08003 0.67138,1.290149 3.47647,3.905633 2.23543,2.084324 4.33345,4.356622 4.66227,5.049551 0.85659,1.80514 0.45654,3.471399 -1.61763,6.737529 -0.9667,1.522228 -1.84953,3.210554 -1.96186,3.751835 -0.11232,0.541281 -0.86988,1.731906 -1.68345,2.645834 -0.81358,0.913927 -3.18133,3.725435 -5.26166,6.247797 -3.39213,4.112891 -4.00819,4.689905 -5.9704,5.592015 -1.96831,0.904917 -2.10828,1.036591 -1.39422,1.31155 1.06506,0.410115 0.9998,0.839174 -0.26458,1.739491 -0.66238,0.471653 -1.05834,1.064052 -1.05834,1.583394 0,0.456388 -0.86828,2.090282 -1.92952,3.63088 -3.78477,5.494349 -5.85965,11.040189 -5.30803,14.187545 0.58693,3.348751 1.23675,4.546982 3.15726,5.821744 1.02315,0.679126 2.11418,1.234772 2.42451,1.234772 0.31034,0 0.94555,0.173732 1.41159,0.386073 0.68117,0.310363 1.11679,0.247523 2.22146,-0.320471 3.41662,-1.756745 4.33935,-4.040533 4.73011,-11.70727 0.41898,-8.220435 1.71656,-12.955778 4.24225,-15.481459 1.15671,-1.156713 1.57208,-1.320208 1.92076,-0.756035 0.29976,0.48502 -1.59073,11.172 -3.6859,20.8365 -1.89124,8.723829 -2.09697,10.883629 -1.23353,12.950109 1.70106,4.07123 5.67783,5.17029 9.86432,2.72621 z m 9.46988,-9.7066 c -6.69696,-1.324945 -10.32462,-8.260387 -7.41739,-14.180761 2.24833,-4.578547 7.40475,-6.809846 12.45958,-5.391534 4.69384,1.317025 7.69426,5.09416 7.66858,9.653753 -0.027,4.79587 -3.04274,8.442732 -8.05546,9.741261 -2.29807,0.595309 -2.50296,0.603112 -4.65531,0.177281 z m -0.95564,-30.349883 c -1.83476,-1.443225 -1.3039,-1.738284 3.12743,-1.738284 3.38848,0 4.05694,0.08805 4.05694,0.534352 0,1.752378 -5.34783,2.64855 -7.18437,1.203932 z m -4.93888,-8.466667 c -1.87705,-1.476481 -0.76298,-4.207729 1.71631,-4.207729 2.47929,0 3.59335,2.731248 1.71631,4.207729 -0.51123,0.402138 -1.28357,0.73116 -1.71631,0.73116 -0.43274,0 -1.20508,-0.329022 -1.71631,-0.73116 z m 12.54255,0.01185 c -0.97398,-0.907394 -1.00555,-2.574996 -0.0665,-3.514027 0.98263,-0.98263 2.84247,-0.928606 3.81906,0.110931 1.00492,1.069683 0.97101,2.18663 -0.0989,3.256492 -1.06478,1.064782 -2.60193,1.126466 -3.65368,0.146611 z"
         id="path1231" />
      <path
         style="fill:#f5f92e;fill-opacity:1;stroke-width:0.352778"
         d="m 318.83133,107.79968 c -2.19879,-1.35818 -3.35139,-3.53927 -3.35139,-6.34188 0,-0.95107 0.79927,-5.416063 1.77615,-9.922196 2.09517,-9.6645 3.98566,-20.35148 3.6859,-20.8365 -0.34868,-0.564173 -0.76405,-0.400678 -1.92076,0.756035 -2.52569,2.525681 -3.82327,7.261024 -4.24225,15.481459 -0.39076,7.666737 -1.31349,9.950525 -4.73011,11.70727 -1.10467,0.567994 -1.54029,0.630834 -2.22146,0.320471 -0.46604,-0.212341 -1.10125,-0.386073 -1.41159,-0.386073 -0.31033,0 -1.40136,-0.555646 -2.42451,-1.234772 -1.92051,-1.274762 -2.57033,-2.472993 -3.15726,-5.821744 -0.55162,-3.147356 1.52326,-8.693196 5.30803,-14.187545 1.06124,-1.540598 1.92952,-3.174492 1.92952,-3.63088 0,-0.519342 0.39596,-1.111741 1.05834,-1.583394 1.26438,-0.900317 1.32964,-1.329376 0.26458,-1.739491 -0.71406,-0.274959 -0.57409,-0.406633 1.39422,-1.31155 1.96221,-0.90211 2.57827,-1.479124 5.9704,-5.592015 2.08033,-2.522362 4.44808,-5.33387 5.26166,-6.247797 0.81357,-0.913928 1.57113,-2.104553 1.68345,-2.645834 0.11233,-0.541281 0.99516,-2.229607 1.96186,-3.751835 2.07417,-3.26613 2.47422,-4.932389 1.61763,-6.737529 -0.32882,-0.692929 -2.42684,-2.965227 -4.66227,-5.049551 -2.80509,-2.615484 -3.88224,-3.825606 -3.47647,-3.905633 1.1872,-0.234145 5.18842,2.517962 9.21133,6.335699 1.81924,1.726461 2.25946,1.981258 3.13289,1.813301 0.58491,-0.112476 1.08899,-0.473678 1.18767,-0.851036 0.23983,-0.917121 0.4784,-0.83096 1.6035,0.579113 0.54185,0.679091 1.20543,1.234712 1.47462,1.234712 0.29649,0 0.79626,-0.97219 1.26776,-2.466154 0.42808,-1.356384 1.01457,-2.662209 1.30329,-2.901833 0.45913,-0.381044 0.49357,-0.165196 0.27463,1.721196 -0.29175,2.513804 0.0701,2.989932 1.44828,1.905827 1.17425,-0.923661 1.46014,-0.915725 1.60018,0.04442 0.0789,0.541139 0.46927,0.864816 1.30176,1.079432 1.14897,0.296207 1.28562,0.212882 4.05694,-2.473617 3.65687,-3.544949 7.74311,-6.337911 8.77127,-5.995192 0.2131,0.07103 -1.6437,2.135406 -4.12621,4.587493 l -4.51366,4.45834 0.15799,1.905193 c 0.12615,1.521225 0.48301,2.396214 1.77071,4.341573 0.88699,1.340009 1.86496,3.18653 2.17327,4.103379 0.39043,1.161063 1.78291,3.104388 4.58809,6.403044 2.21514,2.604823 4.40116,5.249239 4.85783,5.876471 0.51262,0.704088 1.70765,1.541406 3.12335,2.188436 2.05261,0.93811 2.20983,1.079965 1.49931,1.3528 -1.06512,0.408997 -0.99979,0.838331 0.26458,1.738641 0.66238,0.471653 1.05834,1.064052 1.05834,1.583394 0,0.456388 0.87328,2.097546 1.94064,3.647016 5.001,7.259956 6.34404,12.813567 4.28309,17.711076 -0.53267,1.265805 -3.46467,3.516849 -4.58072,3.516849 -0.30331,0 -0.93278,0.173732 -1.39882,0.386073 -0.68117,0.310363 -1.11679,0.247523 -2.22146,-0.320471 -3.40753,-1.752071 -4.57399,-4.700115 -4.84161,-12.236436 -0.25374,-7.145536 -1.61867,-12.333289 -3.87514,-14.728473 -0.95847,-1.017383 -1.47196,-1.196037 -1.81983,-0.633159 -0.33948,0.549289 1.77143,12.03899 4.55491,24.792448 1.06527,4.880899 1.12196,6.987209 0.24028,8.928219 -1.87038,4.11762 -6.04317,4.86608 -10.79907,1.937 -3.16954,-1.95207 -5.69373,-2.81146 -9.02316,-3.07205 -4.68684,-0.36682 -7.96698,0.52258 -13.20495,3.5805 -2.52255,1.47266 -5.25452,1.70025 -7.05555,0.58776 z m 21.18074,-10.471641 c 5.01272,-1.298529 8.02846,-4.945391 8.05546,-9.741261 0.0257,-4.559593 -2.97474,-8.336728 -7.66858,-9.653753 -5.05483,-1.418312 -10.21125,0.812987 -12.45958,5.391534 -2.90723,5.920374 0.72043,12.855816 7.41739,14.180761 2.15235,0.425831 2.35724,0.418028 4.65531,-0.177281 z m 0.4269,-30.143131 c 0.63059,-0.384478 1.14652,-0.939511 1.14652,-1.233403 0,-0.446306 -0.66846,-0.534352 -4.05694,-0.534352 -4.43133,0 -4.96219,0.295059 -3.12743,1.738284 1.26509,0.995116 4.42875,1.010557 6.03785,0.02946 z m -7.54411,-8.496138 c 1.87704,-1.476481 0.76298,-4.207729 -1.71631,-4.207729 -2.47929,0 -3.59336,2.731248 -1.71631,4.207729 0.51123,0.402138 1.28357,0.73116 1.71631,0.73116 0.43274,0 1.20508,-0.329022 1.71631,-0.73116 z m 12.76361,-0.134751 c 1.06987,-1.069862 1.10378,-2.186809 0.0989,-3.256492 -1.58789,-1.690236 -4.52461,-0.626297 -4.52461,1.639214 0,2.259764 2.77077,3.272268 4.42575,1.617278 z"
         id="path1229" />
    </g>
  </g>
</svg>
