<?xml version="1.0" encoding="UTF-8" standalone="no"?>
<!-- Created with Inkscape (http://www.inkscape.org/) -->

<svg
   width="57.544399mm"
   height="57.544399mm"
   viewBox="0 0 57.544399 57.544399"
   version="1.1"
   id="svg5"
   inkscape:version="1.1 (c4e8f9ed74, 2021-05-24)"
   sodipodi:docname="aliens.svg"
   xmlns:inkscape="http://www.inkscape.org/namespaces/inkscape"
   xmlns:sodipodi="http://sodipodi.sourceforge.net/DTD/sodipodi-0.dtd"
   xmlns="http://www.w3.org/2000/svg"
   xmlns:svg="http://www.w3.org/2000/svg">
  <sodipodi:namedview
     id="namedview7"
     pagecolor="#ffffff"
     bordercolor="#666666"
     borderopacity="1.0"
     inkscape:pageshadow="2"
     inkscape:pageopacity="0"
     inkscape:pagecheckerboard="0"
     inkscape:document-units="mm"
     showgrid="false"
     inkscape:zoom="0.84096521"
     inkscape:cx="212.25611"
     inkscape:cy="498.83158"
     inkscape:window-width="1920"
     inkscape:window-height="1080"
     inkscape:window-x="1280"
     inkscape:window-y="0"
     inkscape:window-maximized="1"
     inkscape:current-layer="layer1" />
  <defs
     id="defs2" />
  <g
     inkscape:label="Layer 1"
     inkscape:groupmode="layer"
     id="layer1"
     transform="translate(-4.2608582,-57.520363)">
    <g
       id="alien_purple"
       transform="matrix(0.54372657,0,0,0.54372657,-97.021515,-26.629877)">
      <path
         style="fill:#141414;fill-opacity:0;stroke-width:0.352778"
         d="m 186.27446,207.6824 v -52.91667 h 52.91667 52.91667 v 52.91667 52.91667 h -52.91667 -52.91667 z m 42.4568,40.00374 c 1.78938,-0.6097 2.62941,-1.52073 4.31549,-4.68019 1.43946,-2.69732 2.87691,-3.68815 5.6024,-3.86169 3.43726,-0.21887 4.79702,0.74394 7.14149,5.05675 1.9922,3.66477 2.55869,3.87669 10.33382,3.86581 5.57123,-0.008 6.33694,-0.0832 7.84746,-0.7731 1.03627,-0.47327 1.83851,-1.12585 2.10615,-1.71324 0.39013,-0.85626 0.2901,-1.21115 -1.02583,-3.63933 -1.90955,-3.52356 -2.225,-5.87645 -2.225,-16.59615 0,-12.34187 0.2903,-13.41898 2.66216,-9.87761 1.50424,2.24594 2.59257,5.81929 2.81355,9.23783 0.23822,3.68526 0.44437,4.70334 1.29091,6.37539 1.29342,2.55472 3.91595,2.85157 7.83288,0.88663 6.14823,-3.08429 6.2113,-9.68423 0.25974,-27.17748 -0.57428,-1.68796 -0.9588,-3.39537 -0.8545,-3.79424 0.10431,-0.39887 -0.0139,-0.97053 -0.26278,-1.27035 -0.38145,-0.45962 -0.33263,-0.57648 0.31114,-0.74483 1.10259,-0.28833 0.96585,-0.61038 -0.94235,-2.2194 -1.01728,-0.85778 -2.54247,-2.79071 -3.77824,-4.7883 -1.13977,-1.84241 -3.30899,-4.76377 -4.82047,-6.49191 -2.79394,-3.19443 -3.08864,-3.77506 -2.31079,-4.55292 0.25432,-0.25432 0.42469,-1.28043 0.40708,-2.4518 -0.0341,-2.26683 -1.12655,-4.79777 -3.22979,-7.4825 -1.75501,-2.24023 -2.4942,-2.82222 -3.58451,-2.82222 -1.51335,0 -6.03365,1.28971 -9.19849,2.62447 l -2.90777,1.22634 -2.33902,-0.55394 c -2.96314,-0.70175 -7.30757,-0.69877 -10.3243,0.007 l -2.34083,0.5477 -3.01834,-1.23057 c -4.03943,-1.64686 -8.6211,-2.80932 -9.85084,-2.49936 -1.18186,0.2979 -3.85635,3.53175 -5.09771,6.1639 -1.21335,2.57275 -1.39202,4.30429 -0.64578,6.25831 l 0.61185,1.6021 -2.08679,2.36379 c -2.70445,3.06343 -4.6872,5.75357 -6.07738,8.24562 -0.61714,1.1063 -1.9759,2.73557 -3.03835,3.64325 -2.05567,1.75621 -2.34041,2.29297 -1.21639,2.29297 0.74815,0 0.9677,0.85469 0.32204,1.25372 -0.21093,0.13036 -0.29465,0.5763 -0.18605,0.99096 0.11223,0.42849 -0.47425,2.80972 -1.35866,5.51644 -2.61959,8.01723 -3.42759,11.48772 -3.62316,15.56204 -0.19681,4.1004 0.13204,5.72598 1.53985,7.61185 1.09682,1.46928 4.9781,3.38329 6.94998,3.4273 3.31159,0.0739 4.67651,-2.13884 5.13863,-8.33061 0.24451,-3.27615 0.50318,-4.48138 1.44986,-6.7554 1.30492,-3.13455 2.44794,-4.678 3.23943,-4.37427 1.14696,0.44013 1.10738,21.26604 -0.048,25.26068 -0.18784,0.64942 -0.83461,1.94918 -1.43727,2.88835 -2.07755,3.23758 -1.0213,5.28069 3.08729,5.97176 3.18751,0.53615 10.75986,0.41585 12.5662,-0.19963 z"
         id="path1339" />
      <path
         style="fill:#b0f321;fill-opacity:1;stroke-width:0.352778"
         d="m 235.66335,230.60372 c -4.36205,-2.02759 -5.39099,-5.8102 -2.3746,-8.72957 2.42574,-2.34771 6.32879,-2.89532 9.64165,-1.35274 6.31666,2.94125 3.86336,10.31451 -3.56288,10.70805 -1.58343,0.0839 -2.5166,-0.0737 -3.70417,-0.62574 z m 0.31125,-29.75836 c -2.12179,-0.75822 -3.6825,-1.89806 -4.38499,-3.20251 -1.06234,-1.97264 -0.66948,-2.11364 6.26951,-2.25021 3.32333,-0.0654 6.72884,-0.016 7.56778,0.10981 1.3191,0.19781 1.52534,0.34506 1.52534,1.08906 0,1.23078 -2.37192,3.4628 -4.42226,4.16142 -2.0168,0.68719 -4.78191,0.72618 -6.55538,0.0924 z m -5.03093,-14.86637 c -0.31459,-0.31459 -0.57198,-0.70806 -0.57198,-0.87437 0,-0.5455 1.13232,-1.44865 1.6807,-1.34054 0.87458,0.17243 1.37854,1.23853 0.92551,1.9579 -0.52988,0.84142 -1.34663,0.9446 -2.03423,0.25701 z m 14.25875,0.0245 c -0.93714,-1.12918 0.43929,-2.86377 1.66163,-2.094 1.22143,0.76921 0.78628,2.60622 -0.61736,2.60622 -0.34054,0 -0.81047,-0.2305 -1.04427,-0.51222 z M 212.89239,180.7 c -0.74014,-1.93803 -0.55865,-3.67697 0.65158,-6.24311 0.88879,-1.88457 3.89973,-5.93285 4.4126,-5.93285 0.15101,0 0.57888,0.89532 0.95084,1.98959 0.37195,1.09426 1.11436,2.59434 1.6498,3.33349 l 0.97353,1.34391 -0.783,0.94933 c -0.9585,1.16213 -1.60073,1.74917 -4.31078,3.94042 -3.00811,2.43226 -2.86192,2.40672 -3.54457,0.61922 z m 49.19389,-0.21196 c -2.77557,-2.19604 -3.79576,-3.11844 -4.79965,-4.33956 l -0.77811,-0.94648 1.03133,-1.62624 c 0.56724,-0.89443 1.28733,-2.39697 1.60022,-3.33898 0.31288,-0.942 0.69145,-1.71274 0.84126,-1.71274 0.47123,0 3.41108,3.97168 4.43916,5.99723 1.1365,2.23917 1.33595,5.19787 0.4575,6.78693 l -0.53407,0.9661 z"
         id="path1337" />
      <path
         style="fill:#722181;stroke-width:0.352778"
         d="m 216.16506,247.88577 c -4.10859,-0.69107 -5.16484,-2.73418 -3.08729,-5.97176 0.60266,-0.93917 1.24943,-2.23893 1.43727,-2.88835 1.15539,-3.99464 1.19497,-24.82055 0.048,-25.26068 -0.79149,-0.30373 -1.93451,1.23972 -3.23943,4.37427 -0.94668,2.27402 -1.20535,3.47925 -1.44986,6.7554 -0.46212,6.19177 -1.82704,8.40453 -5.13863,8.33061 -1.97188,-0.044 -5.85316,-1.95802 -6.94998,-3.4273 -1.40781,-1.88587 -1.73666,-3.51145 -1.53985,-7.61185 0.19557,-4.07432 1.00357,-7.54481 3.62316,-15.56204 0.88441,-2.70672 1.47089,-5.08795 1.35866,-5.51644 -0.1086,-0.41466 -0.0249,-0.8606 0.18605,-0.99096 0.64566,-0.39903 0.42611,-1.25372 -0.32204,-1.25372 -1.12402,0 -0.83928,-0.53676 1.21639,-2.29297 1.06285,-0.90802 2.42086,-2.53653 3.03808,-3.64325 2.6153,-4.68937 7.54312,-10.28728 11.96236,-13.58901 1.25516,-0.93776 2.5087,-2.0479 2.78564,-2.46698 0.27694,-0.41907 0.73448,-0.94994 1.01675,-1.1797 0.44041,-0.35849 0.38699,-0.5837 -0.37655,-1.5875 -0.92082,-1.21057 -2.35656,-4.51036 -2.35656,-5.41615 0,-0.33382 0.35985,-0.5161 1.01887,-0.5161 1.36062,0 6.60632,1.53947 9.62989,2.82611 l 2.43639,1.03678 2.36506,-0.55332 c 3.03906,-0.71101 7.37745,-0.71633 10.34854,-0.0127 l 2.33902,0.55394 2.90777,-1.22634 c 4.9755,-2.0984 10.24083,-3.22322 10.22109,-2.1835 -0.0141,0.7423 -1.59018,4.33319 -2.40275,5.47435 l -0.76686,1.07695 0.79524,0.95062 c 1.37759,1.64675 1.83108,2.05908 4.65008,4.22794 3.48992,2.68505 7.58007,7.33053 10.24017,11.63052 1.23577,1.99759 2.76096,3.93052 3.77824,4.7883 1.9082,1.60902 2.04494,1.93107 0.94235,2.2194 -0.64377,0.16835 -0.69259,0.28521 -0.31114,0.74482 0.24883,0.29983 0.36709,0.87149 0.26278,1.27036 -0.1043,0.39887 0.28022,2.10627 0.8545,3.79424 5.95156,17.49324 5.88849,24.09319 -0.25974,27.17748 -3.91693,1.96494 -6.53946,1.66809 -7.83288,-0.88663 -0.84654,-1.67205 -1.05269,-2.69013 -1.29091,-6.37539 -0.22098,-3.41854 -1.30931,-6.99189 -2.81355,-9.23783 -2.37186,-3.54137 -2.66216,-2.46426 -2.66216,9.87761 0,10.7197 0.31545,13.07259 2.225,16.59615 1.31593,2.42818 1.41596,2.78307 1.02583,3.63933 -0.26764,0.58739 -1.06988,1.23997 -2.10615,1.71324 -1.51052,0.68987 -2.27623,0.76531 -7.84746,0.7731 -7.77513,0.0109 -8.34162,-0.20104 -10.33382,-3.86581 -2.34447,-4.31281 -3.70423,-5.27562 -7.14149,-5.05675 -2.72549,0.17354 -4.16294,1.16437 -5.6024,3.86169 -2.53823,4.75628 -3.57814,5.26747 -10.58721,5.2044 -2.53631,-0.0228 -5.36882,-0.16888 -6.29448,-0.32458 z m 26.99981,-17.58369 c 3.24795,-1.57543 4.30743,-5.09093 2.35895,-7.82732 -1.12769,-1.5837 -3.90477,-2.7902 -6.43222,-2.79447 -2.4211,-0.004 -4.24389,0.68504 -5.80285,2.19386 -3.01639,2.91937 -1.98745,6.70198 2.3746,8.72957 2.07336,0.96374 5.1476,0.84013 7.50152,-0.30164 z m -0.63489,-29.54915 c 2.05034,-0.69862 4.42226,-2.93064 4.42226,-4.16142 0,-0.744 -0.20624,-0.89125 -1.52534,-1.08906 -0.83894,-0.12581 -4.24445,-0.17522 -7.56778,-0.10981 -6.93899,0.13657 -7.33185,0.27757 -6.26951,2.25021 1.63527,3.03652 6.8258,4.51206 10.94037,3.11008 z m -9.55208,-15.03095 c 0.45303,-0.71937 -0.0509,-1.78547 -0.92551,-1.9579 -0.54838,-0.10811 -1.6807,0.79504 -1.6807,1.34054 0,0.5455 1.13232,1.44865 1.6807,1.34054 0.2952,-0.0582 0.71168,-0.38363 0.92551,-0.72318 z m 14.31305,0.28153 c 0.93714,-1.12918 -0.43929,-2.86377 -1.66163,-2.094 -1.22143,0.76921 -0.78628,2.60622 0.61737,2.60622 0.34054,0 0.81046,-0.2305 1.04426,-0.51222 z"
         id="path1335" />
    </g>
  </g>
</svg>
