<?xml version="1.0" encoding="UTF-8" standalone="no"?>
<!-- Created with Inkscape (http://www.inkscape.org/) -->

<svg
   width="57.544399mm"
   height="57.544399mm"
   viewBox="0 0 57.544399 57.544399"
   version="1.1"
   id="svg5"
   inkscape:version="1.1 (c4e8f9ed74, 2021-05-24)"
   sodipodi:docname="aliens.svg"
   xmlns:inkscape="http://www.inkscape.org/namespaces/inkscape"
   xmlns:sodipodi="http://sodipodi.sourceforge.net/DTD/sodipodi-0.dtd"
   xmlns="http://www.w3.org/2000/svg"
   xmlns:svg="http://www.w3.org/2000/svg">
  <sodipodi:namedview
     id="namedview7"
     pagecolor="#ffffff"
     bordercolor="#666666"
     borderopacity="1.0"
     inkscape:pageshadow="2"
     inkscape:pageopacity="0"
     inkscape:pagecheckerboard="0"
     inkscape:document-units="mm"
     showgrid="false"
     inkscape:zoom="0.84096521"
     inkscape:cx="212.25611"
     inkscape:cy="498.83158"
     inkscape:window-width="1920"
     inkscape:window-height="1080"
     inkscape:window-x="1280"
     inkscape:window-y="0"
     inkscape:window-maximized="1"
     inkscape:current-layer="layer1" />
  <defs
     id="defs2" />
  <g
     inkscape:label="Layer 1"
     inkscape:groupmode="layer"
     id="layer1"
     transform="translate(-61.805257,-169.6449)">
    <g
       id="alien_blue">
      <g
         id="gxyz"
         transform="matrix(0.54372657,0,0,0.54372657,-53.023188,-87.432218)">
        <path
           style="fill:#141414;fill-opacity:0;stroke-width:0.352778"
           d="m 211.18785,525.72255 v -52.91667 h 52.91667 52.91667 v 52.91667 52.91667 h -52.91667 -52.91667 z m 44.42812,35.79948 c 3.5263,-2.27344 5.66593,-3.12995 8.19449,-3.28034 2.97284,-0.17681 4.93526,0.4544 8.59237,2.76371 1.5266,0.96399 3.29503,1.85015 3.92985,1.96924 1.56999,0.29453 4.1877,-0.98531 4.9228,-2.40683 0.74498,-1.44063 0.67497,-4.92529 -0.18268,-9.09248 l -0.68975,-3.35139 2.39092,-4.7625 c 1.315,-2.61938 3.08759,-6.38926 3.93909,-8.37751 0.92826,-2.16749 1.62504,-3.39591 1.74013,-3.06782 0.3606,1.02801 -0.2759,5.97231 -1.35989,10.56339 -0.59554,2.52236 -1.13146,5.78255 -1.19093,7.24487 l -0.10813,2.65876 1.41417,0.69263 c 0.77779,0.38094 2.04791,0.85866 2.82248,1.0616 1.09745,0.28752 1.48367,0.599 1.74973,1.41111 0.18778,0.57317 0.40046,1.12126 0.47262,1.21797 0.27645,0.37052 1.13184,-1.23688 1.13184,-2.12691 0,-0.65883 0.26492,-1.05499 0.89854,-1.34368 1.41701,-0.64564 1.93176,-0.49153 2.34818,0.70302 0.36241,1.03963 0.41894,1.06985 0.86359,0.46174 0.26169,-0.35788 0.4758,-1.17039 0.4758,-1.80557 0,-1.40112 1.28337,-2.37859 1.83315,-1.3962 0.17522,0.3131 0.44674,0.56927 0.60339,0.56927 0.46242,0 0.76792,-6.73632 0.37597,-8.29028 -0.19575,-0.77611 -0.59593,-5.61799 -0.88928,-10.75972 -0.29336,-5.14174 -0.77733,-10.77737 -1.0755,-12.52362 -1.11063,-6.50438 -3.67679,-12.45061 -7.28456,-16.87951 l -1.63611,-2.00851 0.67733,-1.4921 c 1.43346,-3.15776 0.55549,-8.60142 -1.7125,-10.61804 -0.93212,-0.8288 -2.66515,-0.57022 -5.12835,0.76518 -1.59428,0.86433 -1.74348,0.8867 -2.15555,0.32316 -0.55302,-0.7563 -1.02626,-0.76719 -1.6318,-0.0376 -0.41714,0.50262 -0.5421,0.40124 -1.08707,-0.88194 -0.80312,-1.89103 -1.70301,-1.94712 -1.70301,-0.10616 0,0.73903 -0.19844,1.60421 -0.44097,1.92262 -0.4025,0.52842 -0.65642,0.48603 -2.91042,-0.48595 -6.62962,-2.85885 -12.81018,-2.79783 -19.22639,0.18985 -1.79427,0.83549 -1.97346,0.85884 -2.38125,0.31032 -0.24254,-0.32624 -0.44097,-1.19781 -0.44097,-1.93684 0,-1.84096 -0.8999,-1.78487 -1.70302,0.10616 -0.54497,1.28318 -0.66993,1.38456 -1.08706,0.88194 -0.60027,-0.72328 -1.07828,-0.71944 -1.61382,0.013 -0.38813,0.53079 -0.59627,0.49971 -2.4146,-0.36049 -4.05152,-1.91668 -4.76999,-1.69636 -6.41393,1.96682 -0.83885,1.86922 -0.94359,2.47702 -0.80224,4.65565 0.0894,1.37817 0.423,3.00746 0.74131,3.62064 l 0.57874,1.11488 -1.59451,1.93683 c -3.57806,4.34624 -6.27123,10.56701 -7.37522,17.03553 -0.29471,1.72675 -0.77471,7.34643 -1.06668,12.48817 -0.29196,5.14173 -0.68844,9.98361 -0.88106,10.75972 -0.3863,1.55644 -0.0763,8.29028 0.38165,8.29028 0.15665,0 0.42169,-0.24457 0.58897,-0.54349 0.42223,-0.75447 1.45976,-0.28425 1.67423,0.75879 0.0953,0.46367 0.25575,1.23991 0.35646,1.72498 0.10071,0.48506 0.34276,0.88194 0.5379,0.88194 0.19513,0 0.50567,-0.39688 0.6901,-0.88194 0.3701,-0.97345 0.92451,-1.08853 2.27645,-0.47254 0.60035,0.27353 0.89855,0.69099 0.89855,1.25791 0,0.99977 0.58706,2.21324 1.07074,2.21324 0.1872,0 0.3428,-0.35719 0.34577,-0.79375 0.008,-1.21574 0.39346,-1.56751 2.01269,-1.83814 0.8189,-0.13686 1.87582,-0.55318 2.3487,-0.92514 0.47287,-0.37197 1.07404,-0.67631 1.33591,-0.67631 0.78795,0 0.37107,-5.27675 -0.78222,-9.90111 -1.12881,-4.52622 -1.87217,-10.04348 -1.4539,-10.7909 0.17996,-0.32157 0.67094,0.49591 1.45994,2.43083 0.65383,1.60344 2.41762,5.37741 3.91954,8.38661 l 2.73076,5.47125 -0.67382,3.1718 c -0.886,4.17058 -0.97048,7.76804 -0.21637,9.2137 0.7615,1.45983 3.18949,2.69728 4.81371,2.45336 0.66706,-0.10018 2.09581,-0.75141 3.175,-1.44717 z"
           id="path1869" />
        <path
           style="fill:#233fa8;fill-opacity:1;stroke-width:0.352778"
           d="m 249.74799,562.09403 c -1.88821,-1.18455 -2.40786,-2.32312 -2.34421,-5.13619 0.0309,-1.36614 0.30872,-3.56531 0.61736,-4.88704 0.30863,-1.32173 0.56116,-2.86316 0.56116,-3.4254 0,-0.56838 -1.39515,-3.88708 -3.14227,-7.47464 -1.72824,-3.54881 -3.49576,-7.44456 -3.92782,-8.65724 -0.43206,-1.21267 -0.94302,-2.20486 -1.13546,-2.20486 -0.73179,0 -0.0293,7.74673 1.11353,12.28039 1.94381,7.71082 1.3327,10.46307 -2.4821,11.17874 -2.31572,0.43442 -8.13027,-2.03107 -9.90383,-4.19944 -0.86094,-1.05259 -1.13695,-3.46034 -0.6638,-5.79059 0.22378,-1.1021 0.64615,-6.29007 0.93859,-11.52882 0.56359,-10.09615 1.20807,-14.38599 2.84781,-18.95605 2.28165,-6.35911 6.02743,-11.44428 10.73549,-14.57419 l 2.4526,-1.63048 -1.39848,-1.58876 c -1.44819,-1.64522 -2.61893,-3.7755 -3.05021,-5.55014 -0.24316,-1.00058 -0.2222,-1.01926 0.89349,-0.79612 0.62837,0.12567 1.93478,0.62644 2.90313,1.11281 2.0914,1.05045 2.35902,1.07437 2.98694,0.26695 0.45726,-0.58796 0.49775,-0.58796 0.85018,0 0.56237,0.93823 1.31055,0.73898 1.56435,-0.41659 0.12491,-0.56868 0.43414,-1.20578 0.68718,-1.41579 0.36377,-0.3019 0.49838,-0.0421 0.64301,1.24102 0.27389,2.43002 0.56635,2.54122 3.37756,1.28422 6.83629,-3.05675 12.33393,-3.05675 19.17021,0 2.81122,1.257 3.10367,1.1458 3.37757,-1.28422 0.14463,-1.28312 0.27924,-1.54292 0.643,-1.24102 0.25305,0.21001 0.56228,0.84711 0.68718,1.41579 0.25381,1.15557 1.00199,1.35482 1.56436,0.41659 0.35243,-0.58796 0.39291,-0.58796 0.85017,0 0.61572,0.79172 0.69438,0.78454 2.83662,-0.25898 2.342,-1.14083 4.09221,-1.5016 4.09183,-0.84345 -7e-4,1.00023 -2.20638,5.11852 -3.40051,6.34881 l -1.24007,1.27763 2.4823,1.65023 c 5.22297,3.47222 9.34995,9.54089 11.46625,16.86097 1.23212,4.26176 1.56329,6.9129 2.15628,17.26195 0.29299,5.11313 0.68716,9.9316 0.87595,10.70771 1.18694,4.87954 -0.63213,7.50726 -6.58825,9.51698 -3.26363,1.10123 -4.78503,1.03136 -6.32153,-0.29027 -0.79259,-0.68176 -0.94886,-1.14787 -1.08875,-3.24747 -0.13085,-1.96387 0.0583,-3.32856 0.95101,-6.86119 1.2855,-5.08702 1.93985,-12.99714 0.99221,-11.99444 -0.27506,0.29104 -0.86683,1.48167 -1.31504,2.64583 -0.44821,1.16417 -2.21027,4.97793 -3.9157,8.47502 l -3.10077,6.35834 0.67867,3.16666 c 0.37327,1.74166 0.70883,4.31473 0.74568,5.71794 0.0778,2.96267 -0.50015,4.07672 -2.67597,5.15801 -1.77523,0.88222 -3.11287,0.58076 -6.08499,-1.37134 -6.29159,-4.13233 -10.5753,-3.99201 -17.47748,0.57249 -2.12966,1.40837 -3.98747,1.64875 -5.48443,0.70964 z m 15.68869,-30.43642 c 0.52285,-0.52285 -0.0769,-1.34895 -0.97938,-1.34895 -0.90245,0 -1.50223,0.8261 -0.97939,1.34895 0.22822,0.22822 0.66894,0.41494 0.97939,0.41494 0.31044,0 0.75116,-0.18672 0.97938,-0.41494 z m 4.50405,-16.68686 c 4.19027,-2.0501 6.8455,-6.00929 7.14342,-10.65146 0.1636,-2.54931 0.15753,-2.57101 -0.8238,-2.94411 -1.4696,-0.55875 -1.79982,-0.25345 -2.01859,1.86629 -0.36499,3.5364 -2.32649,6.38385 -5.55113,8.05839 -2.34579,1.21817 -6.21799,1.17096 -8.64305,-0.10539 -3.17727,-1.67223 -4.98296,-4.39878 -5.41292,-8.17336 -0.23263,-2.04229 -0.29833,-2.16398 -1.12126,-2.07701 -1.79553,0.18977 -1.839,0.27112 -1.69593,3.17402 0.28028,5.68686 4.07178,10.33435 9.59983,11.76717 2.15613,0.55884 6.45464,0.0976 8.52343,-0.91454 z m 0.13209,-12.12471 c 0.23989,-0.44825 0.22175,-0.77844 -0.0581,-1.05834 -0.96779,-0.96778 -2.19378,0.13273 -1.32032,1.18517 0.57801,0.69646 0.95648,0.66164 1.37846,-0.12683 z"
           id="path1865" />
      </g>
      <path
         style="fill:#aceb81;fill-opacity:1;stroke-width:0.352778"
         d="m 252.56048,562.64663 c 0.92682,-0.26603 2.5483,-1.07818 3.6033,-1.80478 5.81887,-4.00761 10.47023,-4.02061 16.52144,-0.0462 1.31139,0.86133 2.85354,1.6691 3.42699,1.79505 2.25433,0.49513 5.21888,-1.53409 5.32646,-3.64595 0.0405,-0.79571 0.0714,-0.82277 0.1978,-0.1732 0.24999,1.28518 -0.8088,2.80233 -2.54087,3.64081 -2.11621,1.02444 -3.20461,0.79563 -6.69277,-1.407 -6.24101,-3.94094 -10.05483,-3.82357 -16.78686,0.51663 -1.07919,0.69576 -2.58731,1.34226 -3.35139,1.43665 -1.33331,0.16472 -1.3214,0.15216 0.2959,-0.31205 z m -3.49865,-0.60414 c -1.15736,-0.74148 -2.09313,-2.44147 -1.77748,-3.22909 0.10492,-0.26181 0.19587,-0.1517 0.21176,0.25635 0.0386,0.99179 0.96284,2.21838 2.27389,3.01782 0.60794,0.37071 0.9466,0.67193 0.75257,0.66939 -0.19402,-0.002 -0.85136,-0.32406 -1.46074,-0.71447 z m -2.21557,-4.42295 c 0.0169,-0.41096 0.10052,-0.49456 0.21313,-0.21313 0.10191,0.25466 0.0894,0.55893 -0.0278,0.67615 -0.11723,0.11723 -0.2006,-0.0911 -0.18529,-0.46302 z m -10.95155,-1.53491 c -0.20086,-0.3753 -0.36519,-1.06419 -0.36519,-1.53087 0,-0.56692 -0.2982,-0.98438 -0.89855,-1.25791 -1.35194,-0.61599 -1.90635,-0.50091 -2.27645,0.47254 -0.41688,1.09646 -0.99284,1.13859 -1.20587,0.0882 -0.0885,-0.43656 -0.24894,-1.2128 -0.35645,-1.72498 -0.24853,-1.18393 -1.19928,-1.57958 -1.80505,-0.75115 -0.25053,0.34262 -0.54914,0.5293 -0.66358,0.41486 -0.37601,-0.37602 -0.30935,-8.2147 0.0867,-10.19776 l 0.38753,-1.94028 -0.23243,2.29306 c -0.37632,3.71258 -0.30102,6.18285 0.218,7.15176 1.15874,2.16317 7.68653,5.14187 10.22479,4.6657 3.69002,-0.69226 4.42708,-3.57314 2.67876,-10.47023 -0.49398,-1.94872 -0.84713,-3.69615 -0.78479,-3.88317 0.0623,-0.18703 0.53885,1.45799 1.05891,3.65558 1.09729,4.63678 1.44744,9.46369 0.68651,9.46369 -0.26421,0 -0.86728,0.30434 -1.34015,0.67631 -0.47288,0.37196 -1.5298,0.78828 -2.3487,0.92514 -1.61923,0.27063 -2.00441,0.6224 -2.01269,1.83814 -0.007,0.97394 -0.55841,1.0324 -1.05132,0.11138 z m 45.37818,-1.40578 c -0.13,-1.2438 -0.16979,-2.32803 -0.0884,-2.40941 0.21814,-0.21814 0.66052,3.66361 0.47944,4.20688 -0.0851,0.25518 -0.26103,-0.55368 -0.39103,-1.79747 z m 10.50945,0.95256 c -0.2262,-0.76099 -0.62847,-1.21487 -1.21948,-1.37594 -0.83171,-0.22667 -0.83691,-0.24237 -0.0913,-0.27553 1.45901,-0.0649 6.2501,-1.89651 7.7555,-2.96491 1.95372,-1.38657 2.76349,-3.3916 2.41527,-5.98032 -0.51473,-3.82649 -0.52877,-4.93322 -0.0302,-2.37883 0.356,1.82389 0.4482,3.65957 0.29679,5.90903 -0.2157,3.20455 -0.47074,3.82655 -1.10458,2.69393 -0.54977,-0.98239 -1.83315,-0.005 -1.83315,1.3962 0,0.63518 -0.21411,1.44769 -0.4758,1.80557 -0.44465,0.60811 -0.50117,0.57789 -0.86359,-0.46174 -0.41642,-1.19455 -0.93117,-1.34866 -2.34818,-0.70302 -0.60032,0.27353 -0.89852,0.69099 -0.89852,1.25791 0,0.93312 -0.57712,2.21324 -0.9978,2.21324 -0.14707,0 -0.4193,-0.51102 -0.60494,-1.13559 z m -44.52219,-0.45191 c 0.004,-0.77611 0.0762,-1.05208 0.16054,-0.61325 0.0844,0.43882 0.0812,1.07382 -0.007,1.41111 -0.0883,0.33729 -0.15734,-0.0218 -0.15343,-0.79786 z m 39.95037,-2.05691 -1.41206,-0.76532 0.10601,-2.64583 c 0.0583,-1.45521 0.56437,-4.63021 1.12457,-7.05556 0.56021,-2.42534 1.08982,-4.72722 1.17693,-5.11527 0.15657,-0.69754 0.15884,-0.69744 0.1993,0.009 0.0225,0.39292 -0.4484,2.6948 -1.04645,5.11528 -0.84875,3.43516 -1.05271,4.92228 -0.92941,6.77697 0.17143,2.57899 0.56876,3.30626 2.19303,4.01415 0.58216,0.25371 0.82035,0.45472 0.5293,0.44667 -0.29104,-0.008 -1.16459,-0.35902 -1.94122,-0.77994 z m -39.64161,-0.0598 c -0.008,-0.38806 0.20284,-1.57868 0.46916,-2.64583 0.26633,-1.06716 0.491,-1.62278 0.49928,-1.23473 0.008,0.38806 -0.20284,1.57868 -0.46916,2.64584 -0.26633,1.06715 -0.491,1.62278 -0.49928,1.23472 z m 32.86012,-3.00255 -0.38041,-1.92393 3.09972,-6.3562 c 1.70484,-3.49592 3.46643,-7.30871 3.91464,-8.47288 0.44821,-1.16416 1.02216,-2.34912 1.27546,-2.63323 0.38929,-0.43667 0.45669,-0.32753 0.43573,0.70555 -0.0168,0.82783 -0.10354,1.02326 -0.26886,0.60573 -0.17569,-0.44372 -0.6778,0.39635 -1.79225,2.99861 -0.8515,1.98825 -2.62686,5.76125 -3.94523,8.38443 -2.31466,4.60548 -2.38515,4.82241 -2.05062,6.3113 0.19054,0.84804 0.28924,1.71349 0.21933,1.92322 -0.0699,0.20973 -0.29829,-0.48445 -0.50751,-1.5426 z m -35.26555,-8.73751 c -1.76221,-3.63241 -3.48504,-7.3672 -3.82851,-8.29953 -0.42891,-1.16423 -0.71595,-1.55094 -0.91652,-1.23472 -0.19539,0.30807 -0.2938,0.13941 -0.29742,-0.50972 -0.009,-1.60552 0.55876,-1.10167 1.39118,1.23472 0.43206,1.21268 2.20618,5.12191 3.9425,8.68718 1.73631,3.56528 3.102,6.53725 3.03486,6.60439 -0.0671,0.0671 -1.56388,-2.8499 -3.32609,-6.48232 z m 54.69682,-4.48772 c -10e-4,-1.74625 0.0586,-2.5051 0.13256,-1.68634 0.074,0.81876 0.0749,2.24751 0.002,3.175 -0.0729,0.92749 -0.13345,0.25759 -0.13452,-1.48866 z m -70.90834,-0.35278 c -0.001,-1.74625 0.0586,-2.5051 0.13257,-1.68633 0.074,0.81876 0.0749,2.24751 0.002,3.175 -0.0729,0.92748 -0.13345,0.25758 -0.13452,-1.48867 z m 11.39186,0.98101 c -0.12123,-0.73358 -0.20158,-1.96878 -0.17854,-2.7449 0.0274,-0.92309 0.1469,-0.50508 0.34552,1.2087 0.3203,2.76355 0.20745,3.8018 -0.16698,1.5362 z m 48.21168,-2.7449 c 0.002,-1.16416 0.0678,-1.59788 0.14636,-0.96382 0.0785,0.63407 0.0769,1.58657 -0.004,2.11667 -0.0805,0.5301 -0.14474,0.0113 -0.14276,-1.15285 z m 10.95398,-4.7625 c 0,-1.84326 0.0595,-2.59732 0.13213,-1.67569 0.0727,0.92163 0.0727,2.42976 0,3.35139 -0.0727,0.92163 -0.13213,0.16757 -0.13213,-1.6757 z m -70.20279,-0.35277 c 0,-1.84327 0.0595,-2.59733 0.13213,-1.6757 0.0727,0.92163 0.0727,2.42976 0,3.35139 -0.0727,0.92163 -0.13213,0.16757 -0.13213,-1.67569 z m 34.17122,2.0545 c -0.52284,-0.52285 0.0769,-1.34895 0.97939,-1.34895 0.90245,0 1.50223,0.8261 0.97938,1.34895 -0.22822,0.22822 -0.66894,0.41494 -0.97938,0.41494 -0.31045,0 -0.75117,-0.18672 -0.97939,-0.41494 z m 35.6152,-6.50318 c -0.035,-0.79754 -0.13898,-2.22629 -0.23113,-3.175 l -0.16754,-1.72494 0.35025,1.5875 c 0.19264,0.87313 0.29665,2.30188 0.23113,3.175 l -0.11912,1.5875 z m -69.4551,-0.84299 c 0,-1.06715 0.0661,-1.50372 0.14696,-0.97014 0.0808,0.53358 0.0808,1.4067 0,1.94028 -0.0808,0.53357 -0.14696,0.097 -0.14696,-0.97014 z m 0.43235,-3.79691 c 0.53187,-5.11658 3.64465,-12.56137 7.02327,-16.79747 l 1.93517,-2.42631 -0.5718,-1.10146 c -0.31449,-0.60581 -0.64496,-2.22906 -0.73437,-3.60723 -0.14135,-2.17862 -0.0366,-2.78643 0.80224,-4.65565 1.64394,-3.66318 2.36241,-3.8835 6.41393,-1.96682 1.81833,0.86021 2.02647,0.89128 2.4146,0.36049 0.53554,-0.73241 1.01355,-0.73625 1.61382,-0.013 0.41713,0.50262 0.54209,0.40124 1.08706,-0.88194 0.80312,-1.89103 1.70302,-1.94712 1.70302,-0.10616 0,0.73903 0.19843,1.6106 0.44097,1.93684 0.40783,0.54858 0.5862,0.52555 2.37357,-0.30643 2.42243,-1.12758 6.5345,-2.28153 7.93809,-2.22762 0.65607,0.0252 0.79433,0.0943 0.35987,0.17986 -0.38806,0.0764 -1.57868,0.31032 -2.64584,0.51979 -1.06715,0.20947 -3.26221,0.94178 -4.87791,1.62737 -3.33393,1.41467 -3.57498,1.34538 -3.85142,-1.10722 -0.14463,-1.28312 -0.27924,-1.54292 -0.64301,-1.24102 -0.25304,0.21001 -0.56227,0.84711 -0.68718,1.41579 -0.2538,1.15557 -1.00198,1.35482 -1.56435,0.41659 -0.35243,-0.58796 -0.39292,-0.58796 -0.85018,0 -0.62792,0.80742 -0.89554,0.7835 -2.98694,-0.26695 -0.96835,-0.48637 -2.27476,-0.98714 -2.90313,-1.11281 -1.11569,-0.22314 -1.13665,-0.20446 -0.89349,0.79612 0.43128,1.77464 1.60202,3.90492 3.05021,5.55014 l 1.39848,1.58876 -2.4526,1.63048 c -6.15667,4.09295 -10.28632,10.94169 -12.40812,20.57801 -0.49426,2.24469 -0.62487,2.57337 -0.48396,1.21782 z m 67.84333,-2.9853 c -1.78571,-7.93331 -6.32235,-15.0616 -11.97884,-18.82203 l -2.4823,-1.65023 1.24007,-1.27763 c 1.19413,-1.23029 3.39994,-5.34858 3.40051,-6.34881 3.5e-4,-0.65815 -1.74983,-0.29738 -4.09183,0.84345 -2.14224,1.04352 -2.2209,1.0507 -2.83662,0.25898 -0.45726,-0.58796 -0.49774,-0.58796 -0.85017,0 -0.56237,0.93823 -1.31055,0.73898 -1.56436,-0.41659 -0.1249,-0.56868 -0.43413,-1.20578 -0.68718,-1.41579 -0.36376,-0.3019 -0.49837,-0.0421 -0.643,1.24102 -0.27087,2.4032 -0.58142,2.53824 -3.15764,1.37314 -1.22117,-0.55228 -3.17281,-1.29274 -4.33698,-1.64546 -1.59399,-0.48295 -1.76822,-0.5895 -0.70555,-0.4315 0.77611,0.1154 2.68111,0.74022 4.23333,1.38849 2.55767,1.06818 2.86356,1.12513 3.2632,0.60754 0.24253,-0.31411 0.44097,-1.17577 0.44097,-1.9148 0,-1.84096 0.89989,-1.78487 1.70301,0.10616 0.54497,1.28318 0.66993,1.38456 1.08707,0.88194 0.60554,-0.72963 1.07878,-0.71874 1.6318,0.0376 0.41207,0.56354 0.56127,0.54117 2.15555,-0.32316 3.73939,-2.02728 5.12887,-1.68335 6.69829,1.65798 1.07253,2.28343 1.13908,5.99971 0.1466,8.18587 l -0.67331,1.48309 1.91946,2.39747 c 1.0557,1.3186 2.62689,3.82621 3.49152,5.57246 1.58942,3.21004 3.51549,9.18868 3.30012,10.24377 -0.0644,0.31539 -0.38106,-0.59943 -0.70372,-2.03292 z m -36.49639,-1.64394 c -5.52805,-1.43282 -9.31955,-6.08031 -9.59983,-11.76717 -0.14307,-2.9029 -0.0996,-2.98425 1.69593,-3.17402 0.82293,-0.087 0.88863,0.0347 1.12126,2.07701 0.42996,3.77458 2.23565,6.50113 5.41292,8.17336 2.42506,1.27635 6.29726,1.32356 8.64305,0.10539 3.22464,-1.67454 5.18614,-4.52199 5.55113,-8.05839 0.21877,-2.11974 0.54899,-2.42504 2.01859,-1.86629 0.98133,0.3731 0.9874,0.3948 0.8238,2.94411 -0.29792,4.64217 -2.95315,8.60136 -7.14342,10.65146 -2.06879,1.01217 -6.3673,1.47338 -8.52343,0.91454 z m 7.27706,-12.91242 c -0.87346,-1.05244 0.35253,-2.15295 1.32032,-1.18517 0.27989,0.2799 0.29803,0.61009 0.0581,1.05834 -0.42198,0.78847 -0.80045,0.82329 -1.37846,0.12683 z m -2.73776,-14.18239 c 0.33955,-0.0887 0.89518,-0.0887 1.23473,0 0.33954,0.0887 0.0617,0.16133 -0.61737,0.16133 -0.67909,0 -0.95691,-0.0726 -0.61736,-0.16133 z"
         id="path1867"
         transform="matrix(0.54372658,0,0,0.54372658,-53.023188,-87.432219)" />
      <path
         style="fill:#aceb81;fill-opacity:1;stroke-width:0.352778"
         d="m 252.56048,562.64663 c 0.92682,-0.26603 2.5483,-1.07818 3.6033,-1.80478 5.81887,-4.00761 10.47023,-4.02061 16.52144,-0.0462 1.31139,0.86133 2.85354,1.6691 3.42699,1.79505 2.25433,0.49513 5.21888,-1.53409 5.32646,-3.64595 0.0405,-0.79571 0.0714,-0.82277 0.1978,-0.1732 0.24999,1.28518 -0.8088,2.80233 -2.54087,3.64081 -2.11621,1.02444 -3.20461,0.79563 -6.69277,-1.407 -6.24101,-3.94094 -10.05483,-3.82357 -16.78686,0.51663 -1.07919,0.69576 -2.58731,1.34226 -3.35139,1.43665 -1.33331,0.16472 -1.3214,0.15216 0.2959,-0.31205 z m -3.49865,-0.60414 c -1.15736,-0.74148 -2.09313,-2.44147 -1.77748,-3.22909 0.10492,-0.26181 0.19587,-0.1517 0.21176,0.25635 0.0386,0.99179 0.96284,2.21838 2.27389,3.01782 0.60794,0.37071 0.9466,0.67193 0.75257,0.66939 -0.19402,-0.002 -0.85136,-0.32406 -1.46074,-0.71447 z m -2.21557,-4.42295 c 0.0169,-0.41096 0.10052,-0.49456 0.21313,-0.21313 0.10191,0.25466 0.0894,0.55893 -0.0278,0.67615 -0.11723,0.11723 -0.2006,-0.0911 -0.18529,-0.46302 z m -10.95155,-1.53491 c -0.20086,-0.3753 -0.36519,-1.06419 -0.36519,-1.53087 0,-0.56692 -0.2982,-0.98438 -0.89855,-1.25791 -1.35194,-0.61599 -1.90635,-0.50091 -2.27645,0.47254 -0.41688,1.09646 -0.99284,1.13859 -1.20587,0.0882 -0.0885,-0.43656 -0.24894,-1.2128 -0.35645,-1.72498 -0.24853,-1.18393 -1.19928,-1.57958 -1.80505,-0.75115 -0.25053,0.34262 -0.54914,0.5293 -0.66358,0.41486 -0.37601,-0.37602 -0.30935,-8.2147 0.0867,-10.19776 l 0.38753,-1.94028 -0.23243,2.29306 c -0.37632,3.71258 -0.30102,6.18285 0.218,7.15176 1.15874,2.16317 7.68653,5.14187 10.22479,4.6657 3.69002,-0.69226 4.42708,-3.57314 2.67876,-10.47023 -0.49398,-1.94872 -0.84713,-3.69615 -0.78479,-3.88317 0.0623,-0.18703 0.53885,1.45799 1.05891,3.65558 1.09729,4.63678 1.44744,9.46369 0.68651,9.46369 -0.26421,0 -0.86728,0.30434 -1.34015,0.67631 -0.47288,0.37196 -1.5298,0.78828 -2.3487,0.92514 -1.61923,0.27063 -2.00441,0.6224 -2.01269,1.83814 -0.007,0.97394 -0.55841,1.0324 -1.05132,0.11138 z m 45.37818,-1.40578 c -0.13,-1.2438 -0.16979,-2.32803 -0.0884,-2.40941 0.21814,-0.21814 0.66052,3.66361 0.47944,4.20688 -0.0851,0.25518 -0.26103,-0.55368 -0.39103,-1.79747 z m 10.50945,0.95256 c -0.2262,-0.76099 -0.62847,-1.21487 -1.21948,-1.37594 -0.83171,-0.22667 -0.83691,-0.24237 -0.0913,-0.27553 1.45901,-0.0649 6.2501,-1.89651 7.7555,-2.96491 1.95372,-1.38657 2.76349,-3.3916 2.41527,-5.98032 -0.51473,-3.82649 -0.52877,-4.93322 -0.0302,-2.37883 0.356,1.82389 0.4482,3.65957 0.29679,5.90903 -0.2157,3.20455 -0.47074,3.82655 -1.10458,2.69393 -0.54977,-0.98239 -1.83315,-0.005 -1.83315,1.3962 0,0.63518 -0.21411,1.44769 -0.4758,1.80557 -0.44465,0.60811 -0.50117,0.57789 -0.86359,-0.46174 -0.41642,-1.19455 -0.93117,-1.34866 -2.34818,-0.70302 -0.60032,0.27353 -0.89852,0.69099 -0.89852,1.25791 0,0.93312 -0.57712,2.21324 -0.9978,2.21324 -0.14707,0 -0.4193,-0.51102 -0.60494,-1.13559 z m -44.52219,-0.45191 c 0.004,-0.77611 0.0762,-1.05208 0.16054,-0.61325 0.0844,0.43882 0.0812,1.07382 -0.007,1.41111 -0.0883,0.33729 -0.15734,-0.0218 -0.15343,-0.79786 z m 39.95037,-2.05691 -1.41206,-0.76532 0.10601,-2.64583 c 0.0583,-1.45521 0.56437,-4.63021 1.12457,-7.05556 0.56021,-2.42534 1.08982,-4.72722 1.17693,-5.11527 0.15657,-0.69754 0.15884,-0.69744 0.1993,0.009 0.0225,0.39292 -0.4484,2.6948 -1.04645,5.11528 -0.84875,3.43516 -1.05271,4.92228 -0.92941,6.77697 0.17143,2.57899 0.56876,3.30626 2.19303,4.01415 0.58216,0.25371 0.82035,0.45472 0.5293,0.44667 -0.29104,-0.008 -1.16459,-0.35902 -1.94122,-0.77994 z m -39.64161,-0.0598 c -0.008,-0.38806 0.20284,-1.57868 0.46916,-2.64583 0.26633,-1.06716 0.491,-1.62278 0.49928,-1.23473 0.008,0.38806 -0.20284,1.57868 -0.46916,2.64584 -0.26633,1.06715 -0.491,1.62278 -0.49928,1.23472 z m 32.86012,-3.00255 -0.38041,-1.92393 3.09972,-6.3562 c 1.70484,-3.49592 3.46643,-7.30871 3.91464,-8.47288 0.44821,-1.16416 1.02216,-2.34912 1.27546,-2.63323 0.38929,-0.43667 0.45669,-0.32753 0.43573,0.70555 -0.0168,0.82783 -0.10354,1.02326 -0.26886,0.60573 -0.17569,-0.44372 -0.6778,0.39635 -1.79225,2.99861 -0.8515,1.98825 -2.62686,5.76125 -3.94523,8.38443 -2.31466,4.60548 -2.38515,4.82241 -2.05062,6.3113 0.19054,0.84804 0.28924,1.71349 0.21933,1.92322 -0.0699,0.20973 -0.29829,-0.48445 -0.50751,-1.5426 z m -35.26555,-8.73751 c -1.76221,-3.63241 -3.48504,-7.3672 -3.82851,-8.29953 -0.42891,-1.16423 -0.71595,-1.55094 -0.91652,-1.23472 -0.19539,0.30807 -0.2938,0.13941 -0.29742,-0.50972 -0.009,-1.60552 0.55876,-1.10167 1.39118,1.23472 0.43206,1.21268 2.20618,5.12191 3.9425,8.68718 1.73631,3.56528 3.102,6.53725 3.03486,6.60439 -0.0671,0.0671 -1.56388,-2.8499 -3.32609,-6.48232 z m 54.69682,-4.48772 c -10e-4,-1.74625 0.0586,-2.5051 0.13256,-1.68634 0.074,0.81876 0.0749,2.24751 0.002,3.175 -0.0729,0.92749 -0.13345,0.25759 -0.13452,-1.48866 z m -70.90834,-0.35278 c -0.001,-1.74625 0.0586,-2.5051 0.13257,-1.68633 0.074,0.81876 0.0749,2.24751 0.002,3.175 -0.0729,0.92748 -0.13345,0.25758 -0.13452,-1.48867 z m 11.39186,0.98101 c -0.12123,-0.73358 -0.20158,-1.96878 -0.17854,-2.7449 0.0274,-0.92309 0.1469,-0.50508 0.34552,1.2087 0.3203,2.76355 0.20745,3.8018 -0.16698,1.5362 z m 48.21168,-2.7449 c 0.002,-1.16416 0.0678,-1.59788 0.14636,-0.96382 0.0785,0.63407 0.0769,1.58657 -0.004,2.11667 -0.0805,0.5301 -0.14474,0.0113 -0.14276,-1.15285 z m 10.95398,-4.7625 c 0,-1.84326 0.0595,-2.59732 0.13213,-1.67569 0.0727,0.92163 0.0727,2.42976 0,3.35139 -0.0727,0.92163 -0.13213,0.16757 -0.13213,-1.6757 z m -70.20279,-0.35277 c 0,-1.84327 0.0595,-2.59733 0.13213,-1.6757 0.0727,0.92163 0.0727,2.42976 0,3.35139 -0.0727,0.92163 -0.13213,0.16757 -0.13213,-1.67569 z m 34.17122,2.0545 c -0.52284,-0.52285 0.0769,-1.34895 0.97939,-1.34895 0.90245,0 1.50223,0.8261 0.97938,1.34895 -0.22822,0.22822 -0.66894,0.41494 -0.97938,0.41494 -0.31045,0 -0.75117,-0.18672 -0.97939,-0.41494 z m 35.6152,-6.50318 c -0.035,-0.79754 -0.13898,-2.22629 -0.23113,-3.175 l -0.16754,-1.72494 0.35025,1.5875 c 0.19264,0.87313 0.29665,2.30188 0.23113,3.175 l -0.11912,1.5875 z m -69.4551,-0.84299 c 0,-1.06715 0.0661,-1.50372 0.14696,-0.97014 0.0808,0.53358 0.0808,1.4067 0,1.94028 -0.0808,0.53357 -0.14696,0.097 -0.14696,-0.97014 z m 0.43235,-3.79691 c 0.53187,-5.11658 3.64465,-12.56137 7.02327,-16.79747 l 1.93517,-2.42631 -0.5718,-1.10146 c -0.31449,-0.60581 -0.64496,-2.22906 -0.73437,-3.60723 -0.14135,-2.17862 -0.0366,-2.78643 0.80224,-4.65565 1.64394,-3.66318 2.36241,-3.8835 6.41393,-1.96682 1.81833,0.86021 2.02647,0.89128 2.4146,0.36049 0.53554,-0.73241 1.01355,-0.73625 1.61382,-0.013 0.41713,0.50262 0.54209,0.40124 1.08706,-0.88194 0.80312,-1.89103 1.70302,-1.94712 1.70302,-0.10616 0,0.73903 0.19843,1.6106 0.44097,1.93684 0.40783,0.54858 0.5862,0.52555 2.37357,-0.30643 2.42243,-1.12758 6.5345,-2.28153 7.93809,-2.22762 0.65607,0.0252 0.79433,0.0943 0.35987,0.17986 -0.38806,0.0764 -1.57868,0.31032 -2.64584,0.51979 -1.06715,0.20947 -3.26221,0.94178 -4.87791,1.62737 -3.33393,1.41467 -3.57498,1.34538 -3.85142,-1.10722 -0.14463,-1.28312 -0.27924,-1.54292 -0.64301,-1.24102 -0.25304,0.21001 -0.56227,0.84711 -0.68718,1.41579 -0.2538,1.15557 -1.00198,1.35482 -1.56435,0.41659 -0.35243,-0.58796 -0.39292,-0.58796 -0.85018,0 -0.62792,0.80742 -0.89554,0.7835 -2.98694,-0.26695 -0.96835,-0.48637 -2.27476,-0.98714 -2.90313,-1.11281 -1.11569,-0.22314 -1.13665,-0.20446 -0.89349,0.79612 0.43128,1.77464 1.60202,3.90492 3.05021,5.55014 l 1.39848,1.58876 -2.4526,1.63048 c -6.15667,4.09295 -10.28632,10.94169 -12.40812,20.57801 -0.49426,2.24469 -0.62487,2.57337 -0.48396,1.21782 z m 67.84333,-2.9853 c -1.78571,-7.93331 -6.32235,-15.0616 -11.97884,-18.82203 l -2.4823,-1.65023 1.24007,-1.27763 c 1.19413,-1.23029 3.39994,-5.34858 3.40051,-6.34881 3.5e-4,-0.65815 -1.74983,-0.29738 -4.09183,0.84345 -2.14224,1.04352 -2.2209,1.0507 -2.83662,0.25898 -0.45726,-0.58796 -0.49774,-0.58796 -0.85017,0 -0.56237,0.93823 -1.31055,0.73898 -1.56436,-0.41659 -0.1249,-0.56868 -0.43413,-1.20578 -0.68718,-1.41579 -0.36376,-0.3019 -0.49837,-0.0421 -0.643,1.24102 -0.27087,2.4032 -0.58142,2.53824 -3.15764,1.37314 -1.22117,-0.55228 -3.17281,-1.29274 -4.33698,-1.64546 -1.59399,-0.48295 -1.76822,-0.5895 -0.70555,-0.4315 0.77611,0.1154 2.68111,0.74022 4.23333,1.38849 2.55767,1.06818 2.86356,1.12513 3.2632,0.60754 0.24253,-0.31411 0.44097,-1.17577 0.44097,-1.9148 0,-1.84096 0.89989,-1.78487 1.70301,0.10616 0.54497,1.28318 0.66993,1.38456 1.08707,0.88194 0.60554,-0.72963 1.07878,-0.71874 1.6318,0.0376 0.41207,0.56354 0.56127,0.54117 2.15555,-0.32316 3.73939,-2.02728 5.12887,-1.68335 6.69829,1.65798 1.07253,2.28343 1.13908,5.99971 0.1466,8.18587 l -0.67331,1.48309 1.91946,2.39747 c 1.0557,1.3186 2.62689,3.82621 3.49152,5.57246 1.58942,3.21004 3.51549,9.18868 3.30012,10.24377 -0.0644,0.31539 -0.38106,-0.59943 -0.70372,-2.03292 z m -36.49639,-1.64394 c -5.52805,-1.43282 -9.31955,-6.08031 -9.59983,-11.76717 -0.14307,-2.9029 -0.0996,-2.98425 1.69593,-3.17402 0.82293,-0.087 0.88863,0.0347 1.12126,2.07701 0.42996,3.77458 2.23565,6.50113 5.41292,8.17336 2.42506,1.27635 6.29726,1.32356 8.64305,0.10539 3.22464,-1.67454 5.18614,-4.52199 5.55113,-8.05839 0.21877,-2.11974 0.54899,-2.42504 2.01859,-1.86629 0.98133,0.3731 0.9874,0.3948 0.8238,2.94411 -0.29792,4.64217 -2.95315,8.60136 -7.14342,10.65146 -2.06879,1.01217 -6.3673,1.47338 -8.52343,0.91454 z m -2.0647,-13.27767 c -1.07715,0 0.1995,-2.19238 1.32032,-1.18517 0.29442,0.26457 0.29803,0.61009 0.0581,1.05834 -0.42198,0.78847 -0.68647,0.52593 -1.37846,0.12683 z m 6.604,-13.81714 c 0.33955,-0.0887 0.89518,-0.0887 1.23473,0 0.33954,0.0887 0.0617,0.16133 -0.61737,0.16133 -0.67909,0 -0.95691,-0.0726 -0.61736,-0.16133 z"
         id="path13954"
         transform="matrix(0.54372658,0,0,0.54372658,-53.023188,-87.432219)"
         sodipodi:nodetypes="ssssscsssssssssscssssssssssssssscssssssssscssssssssssssssssssssssscscccccsssssssscccscscscsssssssssssssssssssssssssssssssscscccssssssssssssssscsscssssssscssssssssssssssssssssssscsssssscsssssssssssssssssssscssssssssssssssssssscsssss" />
    </g>
  </g>
</svg>
