<?xml version="1.0" encoding="UTF-8" standalone="no"?>
<!-- Created with Inkscape (http://www.inkscape.org/) -->

<svg
   width="52.384735mm"
   height="40.184273mm"
   viewBox="0 0 52.384735 40.184273"
   version="1.1"
   id="svg5"
   inkscape:version="1.1 (c4e8f9ed74, 2021-05-24)"
   sodipodi:docname="creatures.svg"
   xmlns:inkscape="http://www.inkscape.org/namespaces/inkscape"
   xmlns:sodipodi="http://sodipodi.sourceforge.net/DTD/sodipodi-0.dtd"
   xmlns="http://www.w3.org/2000/svg"
   xmlns:svg="http://www.w3.org/2000/svg">
  <sodipodi:namedview
     id="namedview7"
     pagecolor="#ffffff"
     bordercolor="#666666"
     borderopacity="1.0"
     inkscape:pageshadow="2"
     inkscape:pageopacity="0.0"
     inkscape:pagecheckerboard="0"
     inkscape:document-units="mm"
     showgrid="false"
     inkscape:zoom="0.49930474"
     inkscape:cx="595.82851"
     inkscape:cy="629.87586"
     inkscape:window-width="1920"
     inkscape:window-height="1080"
     inkscape:window-x="1280"
     inkscape:window-y="0"
     inkscape:window-maximized="1"
     inkscape:current-layer="layer1" />
  <defs
     id="defs2" />
  <g
     inkscape:label="Layer 1"
     inkscape:groupmode="layer"
     id="layer1"
     transform="translate(-106.02147,-1.0024786)">
    <g
       id="phoenix"
       transform="matrix(0.41464607,0,0,0.41464607,-45.912347,0.71029072)">
      <rect
         style="fill:none;fill-opacity:0.111192;stroke:none;stroke-width:0.765"
         id="rect19278"
         width="126.33602"
         height="96.912224"
         x="366.41809"
         y="0.7046681" />
      <path
         d="m 451.08491,94.831032 c -4.15374,-2.07701 -9.99085,-6.87966 -12.32532,-10.141 -0.29482,-0.41187 -0.59181,-0.69309 -0.65998,-0.62493 -0.18139,0.1814 0.67043,1.75677 1.56645,2.89703 0.42777,0.54437 0.75718,1.14451 0.73205,1.33366 -0.0903,0.67984 0.0249,0.95648 0.46932,1.12705 0.38198,0.14658 0.37167,0.0832 -0.0666,-0.41037 -0.5172,-0.58228 -0.51705,-0.583 0.0569,-0.2821 1.35494,0.7104 4.78952,5.09981 4.52658,5.78501 -0.13447,0.3504 -0.3524,0.27239 -1.2841,-0.4596 -4.70637,-3.69763 -7.97478,-7.92375 -9.44902,-12.21776 l -0.50366,-1.46703 -0.0784,1.78216 c -0.0729,1.6566 0.0446,2.092 1.66708,6.18018 1.86485,4.69867 1.94158,4.97419 1.38515,4.97419 -0.32804,0 -2.04021,-3.42494 -2.04021,-4.08113 0,-0.15288 -0.18948,-0.48732 -0.42106,-0.74322 -0.23159,-0.25591 -0.74763,-1.48075 -1.14675,-2.72188 -0.70744,-2.19985 -0.71741,-2.3195 -0.39687,-4.75702 0.56254,-4.27779 0.13978,-6.6271 -1.7021,-9.45861 l -0.7747,-1.19096 -1.08215,1.80736 c -0.86065,1.43743 -1.1981,1.79021 -1.6487,1.72359 -0.32781,-0.0485 -0.63401,0.092 -0.72664,0.33342 -0.24434,0.63674 -0.9952,0.53102 -0.82592,-0.1163 0.16572,-0.6337 -0.055,-0.67491 -0.75982,-0.14184 -0.91162,0.68951 -1.39748,0.0718 -0.51777,-0.65835 0.22006,-0.18264 0.39951,-0.4674 0.39877,-0.63281 -8e-4,-0.16541 -0.28942,0.0594 -0.64153,0.49944 -0.35213,0.44011 -0.74358,0.8002 -0.86989,0.8002 -0.42562,0 -3.54503,2.60129 -3.40028,2.8355 0.0788,0.12755 0.6078,0.23192 1.17547,0.23192 1.61861,0 2.35437,1.10335 1.50781,2.26109 -0.34992,0.47854 -0.39433,0.47366 -1.26698,-0.13943 -0.4974,-0.34945 -0.94429,-0.72951 -0.99311,-0.84459 -0.0488,-0.11507 -0.38046,-0.13601 -0.73698,-0.0466 -0.35652,0.0895 -0.7967,0.0431 -0.97817,-0.10308 -0.20775,-0.16735 -0.92269,-0.1834 -1.93035,-0.0433 -1.77506,0.2467 -2.80068,-0.14059 -2.80068,-1.05759 0,-0.81432 0.69169,-1.17824 1.92504,-1.01281 l 1.11974,0.15019 -0.83681,-0.52984 c -0.94347,-0.59736 -3.02309,-0.80705 -3.19476,-0.32212 -0.0721,0.20355 0.0912,0.25966 0.46845,0.16099 0.50926,-0.13317 0.55508,-0.0744 0.38007,0.48777 -0.10944,0.35156 -0.30315,0.67921 -0.43046,0.72812 -0.12731,0.0489 -0.23529,0.28896 -0.23996,0.53346 -0.0123,0.64262 -0.79171,-0.4142 -0.79171,-1.07345 0,-0.59124 -0.23693,-0.60705 -1.00759,-0.0672 -0.3585,0.2511 -0.5928,0.29903 -0.5928,0.12123 0,-0.53825 -1.30024,-1.60338 -1.95729,-1.60338 -0.7295,0 -1.03869,-0.83761 -0.67354,-1.82471 0.27271,-0.73721 1.11387,-0.74496 2.7409,-0.0253 1.91876,0.84876 4.2677,-0.21418 5.23176,-2.36748 0.25526,-0.57015 0.83819,-1.303 1.2954,-1.62856 0.80854,-0.57573 0.83127,-0.64864 0.83127,-2.66628 0,-1.73561 0.0871,-2.15319 0.53347,-2.55713 0.63815,-0.57752 0.6761,-1.0166 0.12726,-1.4721 -0.33965,-0.28188 -0.37867,-0.26538 -0.23819,0.10072 0.0924,0.24081 0.049,0.43782 -0.0966,0.43782 -0.40162,0 -1.12592,-1.2358 -1.12791,-1.92442 -0.002,-0.77717 -0.85203,-2.07352 -1.64925,-2.51592 -0.88319,-0.49009 -1.07678,-0.43876 -0.73736,0.19547 0.43057,0.80451 0.12506,0.92406 -0.70098,0.27429 -0.45276,-0.35613 -1.0721,-0.55432 -1.68112,-0.53794 l -0.96429,0.0259 1.00026,0.41037 c 1.3537,0.55539 1.28511,0.96647 -0.12161,0.72881 -1.89199,-0.31966 -3.44635,-0.18793 -3.93795,0.33372 -0.24658,0.26166 -0.78821,0.71581 -1.20361,1.00922 -0.41541,0.2934 -1.54667,1.2851 -2.51391,2.20377 -2.1034,1.99778 -2.57278,2.04763 -2.46295,0.26159 0.0678,-1.10108 0.0107,-1.26506 -0.43984,-1.26506 -0.78647,0 -1.86111,0.97698 -2.05733,1.87037 -0.21478,0.97789 -0.59326,1.02331 -0.93945,0.11276 -0.4741,-1.24698 -0.30493,-2.51383 0.47339,-3.54515 1.14082,-1.51166 1.32281,-1.96675 1.19935,-2.99933 -0.11774,-0.98489 0.83746,-3.70737 1.30076,-3.70737 0.12864,0 0.2339,0.10591 0.2339,0.23536 0,0.12944 0.51012,-0.24236 1.1336,-0.82622 0.6235,-0.58387 1.50922,-1.41259 1.96828,-1.84161 l 0.83467,-0.78004 0.12859,0.6727 c 0.0708,0.36998 0.015,0.67269 -0.12367,0.67269 -0.60263,0 -3.36726,2.46318 -3.21372,2.86329 0.13686,0.35664 0.20649,0.34636 0.51543,-0.0761 0.19647,-0.26867 0.35721,-0.35262 0.35721,-0.18653 0,0.16608 -0.12003,0.37615 -0.26674,0.46682 -0.1467,0.0906 -0.26672,0.76499 -0.26672,1.49851 0,0.82119 -0.1025,1.27032 -0.26673,1.16881 -0.14672,-0.0906 -0.26858,-0.60788 -0.27083,-1.14935 -0.003,-0.73384 -0.07,-0.88264 -0.26264,-0.58441 -0.14222,0.22005 -0.26041,0.7902 -0.26265,1.26698 -0.002,0.47678 -0.12412,0.86689 -0.27082,0.86689 -0.1467,0 -0.26673,-0.28724 -0.26673,-0.6383 0,-0.35107 -0.18005,-0.70739 -0.4001,-0.79183 -0.54838,-0.21044 -0.50036,0.32886 0.11986,1.34605 0.36965,0.60622 0.42665,0.88662 0.19906,0.97919 -0.17541,0.0714 0.0112,0.13917 0.4146,0.15075 0.48354,0.0139 0.73351,-0.11528 0.73351,-0.37903 0,-0.22005 0.13811,-0.4001 0.30692,-0.4001 0.1688,0 0.94632,-0.66017 1.72781,-1.46704 1.25995,-1.30085 1.81952,-1.62416 2.58369,-1.49285 0.11953,0.0206 0.52582,-0.2053 0.90286,-0.50188 0.69651,-0.54787 1.41377,-0.71331 1.41377,-0.32608 0,0.11724 -0.42909,0.36831 -0.95354,0.55796 -0.52444,0.18964 -0.88788,0.41046 -0.80763,0.49069 0.12601,0.12602 -0.21209,0.62338 -1.45416,2.13905 -0.56916,0.69453 0.11493,0.28889 1.48099,-0.87817 1.19372,-1.01982 1.53428,-1.18244 2.15181,-1.02745 0.68735,0.17251 0.70276,0.20672 0.24424,0.542 -0.26917,0.19682 -0.41236,0.4349 -0.31821,0.52905 0.29064,0.29065 -0.32945,1.15663 -0.72069,1.0065 -0.20298,-0.0779 -0.44829,-0.0134 -0.54515,0.1433 -0.0969,0.1567 -0.026,0.28492 0.15737,0.28492 0.18761,0 0.10699,0.18103 -0.1843,0.41391 -0.4976,0.39779 -0.4918,0.40702 0.14907,0.23706 1.60696,-0.42618 2.43636,-0.96611 1.98783,-1.29408 -0.62344,-0.45587 1.8139,-1.97401 3.66977,-2.28579 2.32335,-0.3903 4.87833,-1.50335 4.87833,-2.12518 0,-0.14168 0.24007,-0.43901 0.53347,-0.66071 0.51756,-0.39108 0.51817,-0.40335 0.0202,-0.41158 -0.47732,-0.008 -0.46939,-0.0551 0.11317,-0.67531 0.69857,-0.74359 0.32197,-0.89009 -0.65037,-0.253 -0.34738,0.22761 -1.63347,0.52395 -2.85799,0.65853 -2.82157,0.31009 -3.49336,0.50298 -3.32054,0.95337 0.0912,0.23776 -0.1725,0.41318 -0.79755,0.53043 -0.89854,0.16857 -1.6607,-0.10303 -0.97567,-0.34769 0.18338,-0.0655 0.33342,-0.23218 0.33342,-0.37042 0,-0.13825 -0.36009,-0.0651 -0.8002,0.16243 -1.07315,0.55496 -1.02629,0.11521 0.0558,-0.52402 0.47082,-0.27812 0.72629,-0.54892 0.56773,-0.60178 -0.3693,-0.1231 0.62498,-2.10408 1.00525,-2.00285 0.37347,0.0994 1.83869,-0.79292 1.83869,-1.11978 0,-0.1462 0.50511,-0.78048 1.12247,-1.40953 0.75225,-0.76648 0.98052,-1.14371 0.69207,-1.14371 -0.49076,0 -2.21937,1.33084 -3.87368,2.9823 -0.61908,0.61801 -1.21797,1.03128 -1.33087,0.91839 -0.1129,-0.1129 0.41471,-0.79668 1.17245,-1.51951 0.75774,-0.72283 1.32904,-1.31425 1.26956,-1.31425 -1.29322,0 -3.73791,2.22901 -3.40271,3.10252 0.0784,0.20449 -0.005,0.55032 -0.18656,0.7685 -0.26142,0.31498 -0.26083,0.39669 0.003,0.39669 0.26383,0 0.26432,0.0817 0.002,0.39717 -0.18129,0.21844 -0.41859,0.34217 -0.52736,0.27495 -0.10875,-0.0672 -0.48525,0.18557 -0.83665,0.56174 -0.35141,0.37619 -0.95493,0.84841 -1.34119,1.0494 -0.38624,0.201 -0.77862,0.66972 -0.87195,1.04159 -0.23157,0.9226 -0.7443,0.86878 -0.54656,-0.0574 0.15196,-0.71164 0.14381,-0.71761 -0.27323,-0.20005 -0.23642,0.2934 -0.49767,0.80354 -0.58056,1.13361 -0.19149,0.76263 -0.51976,0.76979 -0.71695,0.0156 -0.20336,-0.77763 0.73272,-2.40787 1.71615,-2.9888 0.88068,-0.52022 1.07727,-0.21126 0.21016,0.33026 -0.40905,0.25545 -0.48438,0.43332 -0.27303,0.64467 0.3056,0.3056 0.57051,0.13656 2.37166,-1.51335 0.84877,-0.77752 1.25558,-1.61082 0.46678,-0.95619 -0.33012,0.27398 -0.40011,0.24914 -0.40011,-0.14204 0,-0.45093 -0.0261,-0.45044 -0.53509,0.0102 -0.89146,0.80677 -0.91412,0.22642 -0.028,-0.719 0.45509,-0.48558 0.82798,-0.97289 0.82867,-1.08292 0.003,-0.43328 0.53506,-0.17061 0.54063,0.26673 0.005,0.38233 0.0957,0.34997 0.50221,-0.17881 0.49029,-0.63781 0.48746,-0.65779 -0.23436,-1.65421 -0.40184,-0.55474 -1.05609,-1.64456 -1.45387,-2.42182 -0.39776,-0.77729 -1.16518,-1.75128 -1.70534,-2.16446 -2.47623,-1.89403 -4.36743,-5.20492 -2.36497,-4.14032 0.40252,0.21401 0.27343,-0.0336 -0.41763,-0.80096 -1.11668,-1.24 -1.32469,-2.05644 -0.46679,-1.83209 0.6939,0.18146 0.68025,0.12071 -0.26673,-1.18654 -0.95071,-1.31242 -1.07135,-2.22466 -0.26635,-2.01415 0.2936,0.0768 0.46657,0.0308 0.38436,-0.10226 -0.36981,-0.59835 0.3642,-0.14329 1.4384,0.89176 0.64706,0.62348 1.12651,1.01358 1.06545,0.86687 -0.92725,-2.22752 -1.61851,-3.22425 -3.7854,-5.4582 -3.19017,-3.28885 -4.03399,-4.91317 -4.0228,-7.74352 0.0132,-3.33963 0.99997,-4.37276 1.28166,-1.34188 0.19191,2.06487 0.95159,4.32288 1.79704,5.34134 0.30446,0.36675 0.47603,0.51679 0.38128,0.33342 -0.33418,-0.64688 0.2685,-0.32752 1.00221,0.53106 0.69079,0.80836 0.67624,0.74526 -0.2076,-0.90037 -1.77457,-3.30409 -2.71491,-8.61693 -1.98823,-11.23356 0.38618,-1.39058 0.78616,-1.24946 0.78616,0.27738 0,1.42132 0.50964,3.59843 1.24784,5.33069 l 0.48593,1.14029 v -3.54088 c 0,-3.93379 0.41952,-5.33611 2.29421,-7.6689298 1.01668,-1.26511 2.00061,-1.48216 1.72406,-0.38031 -0.0957,0.38111 -0.0786,0.64505 0.0378,0.58652 3.61448,-1.81682 4.25827,-1.61182 1.98606,0.6323898 -2.3459,2.317 -3.78657,5.6007 -3.77038,8.59381 l 0.004,0.83047 0.52974,-0.82671 c 0.61955,-0.96687 2.52861,-1.94739 2.95719,-1.51883 0.19205,0.19206 -0.0103,0.45522 -0.65768,0.85532 -2.01269,1.24392 -2.25746,4.33466 -0.68332,8.62803 1.79392,4.89278 6.64937,13.84901 8.84154,16.30883 l 1.21155,1.3595 0.64818,-0.60016 c 0.9924,-0.91882 1.90153,-0.52752 0.96058,0.41344 -0.24897,0.24895 -0.24205,0.32008 0.031,0.32008 0.23164,0 0.30737,0.22914 0.22247,0.67319 -0.16704,0.87385 -0.1048,0.89536 1.88815,0.65256 1.13828,-0.13866 1.8825,-0.38811 2.28442,-0.76572 0.32788,-0.30801 0.73844,-0.56003 0.91237,-0.56003 0.6013,0 0.31299,0.76407 -0.54032,1.43187 l -0.85654,0.67034 1.50687,-0.0576 c 4.35222,-0.16618 6.24106,-5.71397 6.50822,-19.11556 0.13036,-6.53932 0.3725,-8.6115 1.33858,-11.4553 1.02384,-3.01374 3.65698,-7.4827098 4.40888,-7.4827098 0.41077,0 0.22275,0.61317 -0.46415,1.5137398 -0.37641,0.4935 -1.10692,1.82516 -1.62337,2.95924 l -0.93897,2.06197 2.18559,-2.13387 c 3.26617,-3.1888498 5.42009,-5.7932598 6.51604,-7.8788698 1.12947,-2.14939 1.59552,-2.18493 1.42333,-0.10855 -0.17891,2.1574 -1.45401,4.42071 -4.16997,7.4016698 -2.08704,2.2907 -4.30976,5.60812 -3.97908,5.9388 0.0628,0.0628 0.26926,-0.17561 0.45881,-0.52979 0.18954,-0.35419 0.57031,-0.70299 0.84616,-0.77512 0.32956,-0.0862 0.44535,-0.2775 0.33772,-0.55799 -0.10849,-0.2827 0.19248,-0.76388 0.89132,-1.42502 0.58031,-0.54901 1.94488,-1.8384 3.03237,-2.86533 2.18321,-2.0616 3.05245,-3.1374998 3.9867,-4.9345498 1.82254,-3.50571 2.99407,-5.06792 3.80053,-5.06792 0.64161,0 0.52256,0.82856 -0.50777,3.53421 -0.50595,1.32861 -0.81519,1.80044 -1.18003,1.80044 -0.65171,0 -0.94065,0.49341 -0.40851,0.69761 0.61833,0.23727 -0.57626,2.2928598 -2.7079,4.6596398 -0.94103,1.04483 -1.63515,1.97551 -1.54247,2.06817 0.0926,0.0926 0.37032,-0.086 0.61702,-0.39709 0.2467,-0.31106 1.5402,-1.80964 2.87445,-3.33016 1.33425,-1.5205298 3.11165,-3.8743798 3.94978,-5.2307698 1.34843,-2.18227 2.08887,-3.00185 2.71194,-3.00185 0.75598,0 -1.06552,5.09607 -2.72799,7.6321398 -1.50287,2.29261 -1.93521,2.77223 -6.34441,7.03815 -1.76937,1.71188 -3.30388,3.86868 -2.98169,4.19086 0.0911,0.0911 0.16577,0.0429 0.16577,-0.10746 0,-0.15028 1.24272,-1.3046 2.76161,-2.56515 1.51889,-1.26057 3.57533,-3.07809 4.56987,-4.03895 2.34291,-2.26357 2.83992,-2.30768 1.7415,-0.15459 -1.43585,2.81449 -8.45182,10.85387 -8.99668,10.30902 -0.0953,-0.0953 0.22564,-0.58471 0.71312,-1.08765 0.75127,-0.77512 0.79855,-0.89149 0.31028,-0.76382 -0.31682,0.0829 -0.82698,0.50307 -1.13369,0.93381 -0.30673,0.43074 -0.61768,0.72315 -0.69103,0.6498 -0.0734,-0.0734 0.12796,-0.50037 0.44735,-0.94892 0.31941,-0.44857 0.5381,-0.81556 0.486,-0.81556 -0.0521,0 0.52955,-0.66016 1.29254,-1.46703 1.47753,-1.56245 1.92516,-1.84197 1.38823,-0.86688 -0.18177,0.33008 -0.33603,0.78019 -0.3428,1.00024 -0.007,0.22006 -0.20638,0.36851 -0.44354,0.3299 -0.63636,-0.10361 -1.17747,0.62561 -0.62233,0.83864 0.2942,0.11289 0.85663,-0.30361 1.80725,-1.33833 1.42754,-1.55381 1.86536,-2.20858 1.2147,-1.81662 -0.31152,0.18766 -0.3122,0.15286 -0.004,-0.22667 0.2,-0.2466 0.45402,-0.3925 0.5645,-0.32422 0.27132,0.16769 1.20448,-0.887 0.98181,-1.10967 -0.0969,-0.0969 -0.17619,-0.0362 -0.17619,0.13499 0,0.17835 -0.4021,0.31119 -0.94194,0.31119 -0.59122,0 -0.9991,0.14898 -1.09547,0.40011 -0.0845,0.22005 -0.32885,0.40009 -0.54313,0.40009 -0.49886,0 -4.51293,4.03972 -4.74706,4.77738 -0.0973,0.3065 -0.28584,0.55727 -0.41902,0.55727 -0.13988,0 -0.13139,-0.29134 0.0201,-0.68976 0.19154,-0.5038 0.17847,-0.66184 -0.0485,-0.58618 -0.17092,0.057 -0.66409,0.99753 -1.09594,2.09012 -0.43184,1.09258 -0.90943,2.10655 -1.06129,2.25325 -0.35828,0.34608 -0.1776,-0.36399 0.55995,-2.20054 0.3093,-0.7702 0.45475,-1.40035 0.32323,-1.40035 -0.35847,0 -1.47882,1.4153 -1.87226,2.36515 -0.32897,0.79422 -0.81488,1.13584 -0.81488,0.57292 0,-0.53742 1.67183,-2.95548 2.48846,-3.59919 0.46514,-0.36665 0.69405,-0.66795 0.5087,-0.66959 -0.25886,-0.002 -0.24258,-0.22891 0.0702,-0.97747 0.22396,-0.53599 0.37004,-1.01167 0.32465,-1.05706 -0.22679,-0.22678 -1.83771,1.05121 -2.05912,1.63355 -0.13982,0.36776 -0.34688,0.65357 -0.46013,0.63513 -0.74789,-0.12182 -1.23058,0.6308 -2.62772,4.09731 -1.05302,2.61271 -1.60674,2.52278 -0.67506,-0.10964 0.45906,-1.29709 0.74638,-2.45009 1.24441,-4.9938 0.12815,-0.65453 0.24086,-0.80106 0.41034,-0.53347 0.16324,0.25776 0.23488,0.12111 0.23773,-0.45349 0.002,-0.45233 0.0941,-0.91241 0.20414,-1.02238 0.11003,-0.10998 0.20865,-0.46007 0.21916,-0.77798 0.0105,-0.3179 0.10555,-0.87808 0.21119,-1.24484 l 0.19205,-0.66683 -0.40177,0.66683 c -0.22097,0.36676 -0.40602,0.9369 -0.41123,1.26698 -0.005,0.33008 -0.12947,0.60015 -0.27617,0.60015 -0.36937,0 -0.33426,-0.389 0.13686,-1.51655 0.22199,-0.53127 0.35374,-1.01582 0.29279,-1.07677 -0.21302,-0.21302 -1.26226,2.97405 -1.13691,3.45336 0.0696,0.266 -0.0945,1.53165 -0.36457,2.81254 -0.31548,1.49627 -0.49774,2.00074 -0.5098,1.41104 -0.0178,-0.87419 -0.0384,-0.89323 -0.43075,-0.4001 -0.37877,0.47603 -0.39834,0.37801 -0.24276,-1.216 0.17322,-1.77492 0.46045,-3.28294 0.76382,-4.01042 0.11635,-0.27898 0.0101,-0.42163 -0.33326,-0.44748 -0.64748,-0.0488 -0.84167,1.61193 -0.8455,7.23104 -0.006,9.45107 -1.40042,17.25386 -3.45853,19.35927 -1.40004,1.43222 -2.25631,1.69735 -4.88029,1.5111 -2.20025,-0.15617 -3.92813,0.18808 -3.92813,0.78262 0,0.0769 0.19149,0.0327 0.42553,-0.0984 0.49381,-0.27634 1.70833,-0.10378 1.70833,0.24273 0,0.1296 0.27007,0.2374 0.60015,0.23957 0.64475,0.004 0.24839,0.32175 -1.27794,1.02376 -0.56653,0.26056 -1.38861,1.10615 -1.07538,1.10615 0.35422,0 1.66568,-0.77347 2.0053,-1.18269 0.19066,-0.22973 0.45199,-0.41769 0.58073,-0.41769 0.44344,0 0.233,1.23422 -0.30978,1.81682 l -0.54385,0.58376 1.01063,0.0426 c 0.98493,0.0416 0.98858,0.0455 0.14376,0.15027 -0.89918,0.11158 -1.22155,0.60414 -0.40011,0.61133 0.30285,0.003 0.35819,0.0732 0.15757,0.20083 -0.22234,0.14148 -0.17544,0.36194 0.16694,0.78477 0.26189,0.32342 0.54535,0.51882 0.62993,0.43425 0.16116,-0.16117 0.97938,0.54515 0.97938,0.84543 0,0.23746 -1.66996,-0.13146 -1.99827,-0.44144 -0.17274,-0.1631 -0.12647,-0.33701 0.13337,-0.50128 0.34416,-0.21759 0.33926,-0.25209 -0.0363,-0.25563 -0.62855,-0.006 -1.05433,0.59852 -0.75501,1.07179 0.44723,0.7071 0.27112,0.8257 -1.01142,0.68106 -1.2149,-0.137 -1.2286,-0.13127 -0.33341,0.13977 0.51347,0.15545 1.28884,0.4331 1.72308,0.617 0.85467,0.36194 0.52873,0.36371 -2.65664,0.0144 -1.06277,-0.11654 -1.06355,-0.11595 -0.20006,0.15209 0.4768,0.14801 0.86689,0.38273 0.86689,0.52161 0,0.14621 -0.25265,0.16416 -0.60015,0.0426 -0.33009,-0.11541 -0.78019,-0.19074 -1.00025,-0.16739 -1.50675,0.15986 -1.49753,0.15216 -0.66683,0.55692 l 0.8002,0.38991 -0.8002,-0.1575 c -0.44011,-0.0866 -1.01025,-0.2199 -1.26698,-0.29618 -0.25673,-0.0762 -0.46678,-0.0106 -0.46678,0.14604 0,0.15659 0.16386,0.2847 0.36412,0.2847 0.20028,0 0.6804,0.24878 1.06694,0.55283 0.38654,0.30406 0.7028,0.42307 0.7028,0.26447 0,-0.19171 0.17878,-0.1767 0.53346,0.0448 0.37979,0.23718 0.53347,0.62203 0.53347,1.33592 0,0.55152 0.11627,1.00277 0.25836,1.00277 0.1421,0 0.18928,-0.18004 0.10483,-0.40009 -0.0972,-0.25335 0.004,-0.40011 0.2751,-0.40011 0.65592,0 0.51226,-0.65426 -0.34521,-1.57218 -0.42562,-0.45564 -0.62036,-0.82842 -0.43275,-0.82842 0.1876,0 0.49504,0.18551 0.68321,0.41224 0.18817,0.22673 0.47293,0.36649 0.63281,0.31057 0.15988,-0.0559 0.65077,0.32735 1.09088,0.8517 l 0.8002,0.95334 -0.72602,-0.46497 c -0.718,-0.45982 -0.73019,-0.45684 -1.10151,0.2698 -0.46071,0.90153 -0.19368,1.75303 0.87851,2.80129 0.90815,0.88788 1.091,1.47098 0.73521,2.34449 -0.24504,0.60163 -0.27622,0.61201 -0.37067,0.12342 -0.28231,-1.4604 -0.37888,-1.73377 -0.61253,-1.73377 -0.13931,0 -0.1928,0.15761 -0.11888,0.35026 0.13784,0.35918 -0.60688,1.20101 -1.08471,1.22618 -0.1467,0.008 -0.32675,0.83858 -0.4001,1.84635 -0.0734,1.00777 -0.30051,2.03317 -0.50479,2.27863 -0.20428,0.24548 -0.31056,0.50719 -0.23618,0.58157 0.0744,0.0744 0.36091,-0.19858 0.63671,-0.60659 l 0.50147,-0.74183 0.18595,1.06692 c 0.11282,0.64737 0.14095,0.25402 0.0715,-1.00025 -0.0698,-1.25975 -0.0115,-2.06717 0.14892,-2.06717 0.14483,0 0.26333,-0.23298 0.26333,-0.51773 0,-0.28474 0.12286,-0.59365 0.27302,-0.68646 0.17762,-0.10977 0.21842,0.18764 0.11675,0.85114 -0.086,0.56093 -0.0312,1.5 0.12153,2.0868 l 0.27779,1.06694 -0.0964,-1.27873 c -0.0649,-0.86129 0.001,-1.24622 0.20231,-1.17916 0.3044,0.10147 0.91208,-1.22651 1.15957,-2.53404 0.1102,-0.58221 -0.0772,-0.94831 -0.95588,-1.86714 -1.24048,-1.29718 -1.25801,-1.34549 -0.66581,-1.83696 0.37708,-0.31296 0.54847,-0.22261 1.32942,0.70085 0.49309,0.58308 0.86093,1.17266 0.81741,1.3102 -0.0909,0.28725 0.76945,1.21696 1.12617,1.21696 0.13898,0 0.13632,0.45421 -0.006,1.08928 -0.15604,0.69451 -0.14631,1.44369 0.0269,2.06718 0.14939,0.53784 0.27228,1.61514 0.2731,2.39399 8e-4,0.77884 0.10869,1.34983 0.2397,1.26885 0.13743,-0.0849 0.14931,0.24699 0.0281,0.78446 -0.20074,0.89001 0.0356,1.25549 0.41488,0.64171 0.0986,-0.15948 0.41163,-0.22918 0.6957,-0.15491 0.37286,0.0975 0.49778,0.0113 0.44924,-0.31017 -0.13057,-0.86464 0.29255,-1.90136 0.71054,-1.74095 0.28941,0.11104 0.39739,-0.0365 0.39739,-0.54289 0,-0.38245 0.12002,-0.69536 0.26674,-0.69536 0.31694,0 0.31874,0.27667 0.0121,1.86653 -0.12727,0.65984 -0.13048,1.38001 -0.007,1.6004 0.38865,0.69447 0.72728,-0.75646 0.62237,-2.66673 -0.0667,-1.21426 -0.0207,-1.57391 0.15344,-1.20031 0.13675,0.29341 0.2609,0.89357 0.27587,1.33367 0.0259,0.76221 0.0459,0.77562 0.41885,0.28244 0.34149,-0.45149 0.39162,-0.46002 0.39162,-0.0666 0,0.56923 0.42361,0.58859 0.63829,0.0291 0.47807,-1.24582 -0.095,-2.46874 -1.48067,-3.16003 -0.57891,-0.2888 -0.93872,-0.3344 -1.16393,-0.14748 -0.32074,0.26618 -0.41724,0.10861 -1.06474,-1.73859 -0.18067,-0.5154 -0.19339,-0.51634 -0.37565,-0.0275 -0.167,0.44787 -0.25459,0.40194 -0.7631,-0.4001 -0.31596,-0.49832 -0.78727,-1.19769 -1.04739,-1.55414 -0.46519,-0.63747 -0.46314,-0.64552 0.12527,-0.49165 0.32917,0.0861 0.53098,0.0477 0.44873,-0.0854 -0.0822,-0.13302 -0.022,-0.24186 0.13376,-0.24186 0.15579,0 -0.20007,-0.43664 -0.79077,-0.97029 -0.64951,-0.5868 -1.02778,-1.14028 -0.95704,-1.40036 0.0743,-0.27306 -0.35456,-0.8195 -1.17474,-1.49696 -0.71043,-0.58682 -1.30035,-1.15695 -1.31095,-1.26698 -0.0392,-0.40745 0.5204,-0.17856 1.37181,0.56111 0.95573,0.83028 2.77628,2.07087 3.98279,2.714 0.4207,0.22426 1.0655,0.85011 1.4329,1.39078 0.43299,0.6372 0.80765,0.92944 1.06497,0.8307 0.49151,-0.18859 0.523,-0.62873 0.0451,-0.62873 -0.45961,0 -1.51512,-1.2202 -1.51512,-1.75153 0,-0.23298 -0.1282,-0.33459 -0.29335,-0.23251 -0.21089,0.13034 -0.2144,0.0338 -0.0125,-0.3435 0.20061,-0.37485 0.19425,-0.6114 -0.0223,-0.82794 -0.16673,-0.16673 -0.22432,-0.38197 -0.12799,-0.47832 0.21116,-0.21116 1.93392,1.28162 2.93494,2.54314 1.06272,1.33929 0.90703,1.98563 -0.17128,0.71105 -0.58533,-0.69186 -0.95084,-0.9404 -1.07871,-0.73351 -0.23951,0.38755 0.0204,0.84639 0.47932,0.84639 0.18866,0 0.55596,0.2353 0.81622,0.52288 0.26025,0.28758 0.60894,0.49764 0.77485,0.46678 0.16591,-0.0308 0.31337,0.24456 0.32767,0.61203 0.0143,0.36746 0.22437,1.05167 0.46678,1.52046 0.24243,0.46879 0.44077,0.93302 0.44077,1.03162 0,0.37501 -0.82733,-0.52878 -1.2112,-1.32314 -0.67221,-1.39105 -1.28363,-2.04093 -1.68431,-1.79026 -0.29637,0.18541 -0.27413,0.35961 0.1234,0.96631 l 0.48494,0.74012 -0.65686,-0.34834 c -0.36127,-0.19158 -0.8369,-0.53955 -1.05695,-0.77325 -0.59172,-0.62841 -1.39537,-0.6385 -1.06078,-0.0133 0.14226,0.26582 0.18775,0.70207 0.10109,0.96942 -0.12814,0.39533 -0.10577,0.41283 0.11982,0.0938 0.15257,-0.21581 0.32025,-0.33583 0.37262,-0.26674 0.0524,0.0692 0.30424,0.45956 0.55969,0.86766 0.25545,0.40811 0.56573,0.67943 0.68952,0.60292 0.27541,-0.17021 2.41883,2.61706 2.41883,3.14542 0,0.44908 0.7054,1.09782 0.85959,0.79057 0.0588,-0.11716 0.0713,-0.45306 0.0277,-0.74647 -0.20958,-1.4115 -0.29912,-2.53395 -0.20218,-2.53395 0.24638,0 1.79624,3.3959 2.12066,4.64657 0.42766,1.64863 0.30741,1.89985 -0.25971,0.54259 -0.23056,-0.55185 -0.48337,-0.93921 -0.56176,-0.86081 -0.0784,0.0784 0.15161,0.787 0.51114,1.57467 0.35954,0.78767 0.78985,1.77771 0.95625,2.20011 0.5614,1.42511 0.56234,0.52708 0.002,-2.37393 -0.30623,-1.58683 -0.85064,-3.46505 -1.20979,-4.17381 -0.35904,-0.70877 -0.54368,-1.28866 -0.4102,-1.28866 0.13348,0 0.31836,0.19722 0.41086,0.43827 0.0926,0.24105 0.24164,0.36483 0.33141,0.27505 0.0897,-0.0897 -0.043,-0.47797 -0.29509,-0.86267 -0.51323,-0.7833 -0.80386,-1.98452 -0.48014,-1.98452 1.02241,0 3.5335,3.46037 3.5335,4.86929 0,0.34062 0.24006,1.09016 0.53348,1.66566 0.66041,1.29537 0.7203,1.95414 0.13336,1.46703 -0.6111,-0.50717 -0.52838,0.3347 0.0877,0.89223 1.04058,0.9417 1.78478,0.17147 1.11981,-1.15896 -0.25663,-0.51346 -0.41061,-1.09154 -0.34218,-1.2846 0.0707,-0.19934 -0.1268,-0.41675 -0.45693,-0.50308 -0.43891,-0.11478 -0.54574,-0.29397 -0.43597,-0.73134 0.0872,-0.34749 -0.1742,-1.25508 -0.65323,-2.26801 -0.91853,-1.94223 -0.88586,-3.31879 0.0504,-2.12571 l 0.50582,0.64452 -0.26523,-0.73532 c -0.49516,-1.37278 -1.13442,-2.46228 -2.18997,-3.73245 -0.57909,-0.69684 -0.89573,-1.26633 -0.70362,-1.26555 0.19212,8e-4 0.82579,0.66095 1.40817,1.46702 1.29383,1.79083 1.36912,1.81863 0.55019,0.2031 -0.35199,-0.69437 -0.57153,-1.32453 -0.48786,-1.40034 0.0837,-0.0758 0.20004,-0.005 0.2586,0.15775 0.0586,0.16257 0.2884,0.52266 0.51076,0.8002 0.38475,0.48022 0.39561,0.4734 0.2247,-0.14103 -0.26918,-0.96771 -1.80855,-3.25675 -2.75113,-4.09092 -0.45713,-0.40457 -0.83115,-0.9147 -0.83115,-1.13362 0,-0.21892 -0.12712,-0.39805 -0.28248,-0.39805 -0.15536,0 -0.2083,0.12003 -0.11763,0.26674 0.24267,0.39264 -0.45587,0.30855 -1.02617,-0.12353 -0.27099,-0.20531 -0.64707,-0.31406 -0.83575,-0.24166 -0.18866,0.0724 -0.7918,-0.0558 -1.34031,-0.28505 -0.5485,-0.22918 -1.37271,-0.41833 -1.83158,-0.42033 -1.35435,-0.006 -2.0346,-0.28264 -2.0346,-0.82767 0,-0.57489 0.56865,-0.64838 1.41788,-0.18325 0.32043,0.17552 1.48284,0.32567 2.5831,0.33368 1.60674,0.0117 2.43194,0.18514 4.19244,0.88119 2.45574,0.97092 4.00324,1.09204 5.57742,0.43654 1.09449,-0.45575 1.49352,-0.85646 1.24817,-1.25343 -0.0823,-0.13308 0.18719,-0.5313 0.59874,-0.88493 0.55424,-0.47625 0.80134,-0.55708 0.95298,-0.31172 0.15604,0.25247 0.23421,0.23788 0.32873,-0.0614 0.3023,-0.95723 0.37916,-1.61695 0.17958,-1.54146 -0.55904,0.21141 -2.67299,2.4041 -2.53424,2.62861 0.0863,0.13969 0.0426,0.25398 -0.097,0.25398 -1.34711,0 0.27738,-1.82803 3.74406,-4.21315 2.23761,-1.53953 2.30215,-1.24118 0.35682,1.64932 -2.33584,3.47073 -3.27522,4.19096 -5.94187,4.5557 -1.60262,0.21921 -1.61264,0.0968 0.23696,2.89487 1.19403,1.80635 1.21359,1.87698 0.45282,1.63552 -0.56296,-0.17867 -0.56174,-0.16628 0.0666,0.67633 1.13331,1.51959 1.20025,1.66248 0.84019,1.79348 -0.53927,0.19619 -0.38905,0.66087 0.51524,1.59386 0.46675,0.48157 0.75483,0.96741 0.64019,1.07963 -0.11465,0.11222 -0.60547,-0.25321 -1.09071,-0.81208 l -0.88223,-1.01614 -0.17635,0.80292 c -0.31096,1.41577 0.99834,3.61353 3.15008,5.28766 0.94457,0.73491 0.71933,1.30096 -0.30423,0.76453 -0.3951,-0.20706 -0.99638,-0.6388 -1.33616,-0.95941 -1.28618,-1.21359 -0.8846,0.40471 0.4885,1.96858 1.0322,1.17561 2.11415,1.49781 5.06384,1.50798 1.83491,0.006 2.57239,0.13913 3.86762,0.69646 0.88022,0.37875 2.19378,0.85527 2.91905,1.05892 2.8445,0.79875 2.0962,1.17032 -1.05192,0.52236 -1.02692,-0.21137 -3.41084,-0.5054 -5.29761,-0.65341 -2.48502,-0.19493 -3.73074,-0.41765 -4.5199,-0.80809 -1.48431,-0.73438 -1.50975,-0.53463 -0.081,0.63611 2.10993,1.72893 4.32815,2.34158 10.16525,2.80752 3.66394,0.29247 5.69778,0.76293 8.06867,1.8664 2.34928,1.09342 2.29712,1.8278 -0.0859,1.20964 -1.36049,-0.35291 -10.48102,-0.68832 -9.89792,-0.36401 0.17312,0.0963 1.69439,0.37782 3.3806,0.6256 2.87275,0.42215 4.00259,0.73553 4.00259,1.11021 0,0.14611 -0.82926,0.0738 -4.00099,-0.34879 l -1.2003,-0.15994 1.86713,1.4222 c 2.51047,1.91223 5.20128,4.56224 5.20128,5.12243 0,0.59042 -0.41223,0.57661 -1.29248,-0.0434 -0.8049,-0.56687 -2.85838,-1.63523 -3.14306,-1.63523 -0.10399,0 0.67143,0.88743 1.72314,1.97206 2.34727,2.42075 2.66524,3.82848 0.49407,2.18731 -0.46701,-0.35299 -2.87003,-1.73259 -5.34006,-3.06578 -4.75977,-2.56905 -5.72777,-3.16564 -6.92927,-4.27061 -0.41301,-0.37983 -1.03868,-0.69612 -1.39037,-0.70285 -0.77713,-0.0149 -0.70827,0.0642 0.93949,1.07917 7.07215,4.35624 14.24271,10.34502 12.93549,10.80357 -0.33398,0.11716 -1.44584,-0.22638 -3.16222,-0.97704 -1.45592,-0.63674 -2.70432,-1.15772 -2.77422,-1.15772 -0.0699,0 0.67108,0.84611 1.64661,1.88023 1.53963,1.63208 1.9514,2.40097 1.27591,2.38244 -0.10137,-0.003 -1.20456,-0.51522 -2.45154,-1.13876 z m -1.56038,-1.92361 c 0,-0.13937 -0.12904,-0.29641 -0.28674,-0.34898 -0.15771,-0.0525 -0.28674,0.10447 -0.28674,0.34898 0,0.2445 0.12903,0.40155 0.28674,0.34898 0.1577,-0.0525 0.28674,-0.20961 0.28674,-0.34898 z m 4.89454,-0.66683 c -0.56691,-0.62644 -0.93357,-0.68649 -0.93357,-0.15292 0,0.33518 0.39487,0.55545 1.17496,0.65544 0.13276,0.017 0.0241,-0.20911 -0.24139,-0.50252 z m -6.26822,0.11833 c 0,-0.24388 -1.69809,-1.71873 -1.9789,-1.71873 -0.14279,0 0.14757,0.42011 0.64524,0.93357 0.83289,0.85932 1.33366,1.15414 1.33366,0.78516 z m 1.86713,-0.23596 c 0,-0.0647 -0.12003,-0.1918 -0.26673,-0.28247 -0.14671,-0.0906 -0.26673,-0.0377 -0.26673,0.11762 0,0.15537 0.12002,0.28248 0.26673,0.28248 0.1467,0 0.26673,-0.0529 0.26673,-0.11763 z m 1.00855,-1.57 c -0.36836,-0.34138 -1.37613,-1.09842 -2.23949,-1.6823 -5.04905,-3.41465 -7.97355,-5.65231 -7.71942,-5.90643 0.0769,-0.0769 -0.068,-0.29199 -0.32232,-0.47788 -0.25422,-0.18589 -0.36963,-0.43058 -0.25646,-0.54375 0.11317,-0.11317 0.3733,0.027 0.57806,0.31161 1.05433,1.46524 1.14184,1.53635 1.64405,1.33619 0.47245,-0.18832 0.46235,-0.23022 -0.15517,-0.6435 -1.10833,-0.74174 -2.43312,-1.97178 -2.28414,-2.12076 0.0774,-0.0774 0.37392,0.0704 0.65899,0.32836 0.52808,0.4779 1.08866,0.37468 1.08128,-0.1991 -0.003,-0.21813 -0.0744,-0.20685 -0.22831,0.036 -0.17496,0.27598 -0.39378,0.2038 -0.99615,-0.32861 -0.6576,-0.58122 -0.71267,-0.72509 -0.37184,-0.9713 0.32807,-0.23698 0.30406,-0.26262 -0.13337,-0.14249 -0.39734,0.10914 -0.69641,-0.0921 -1.17209,-0.78869 -0.35125,-0.51437 -0.69091,-0.88293 -0.75483,-0.81902 -0.16631,0.16631 0.76281,1.54886 1.39335,2.07334 0.29346,0.24409 0.44308,0.53464 0.33247,0.64565 -0.51176,0.51362 -2.02329,-1.56152 -2.93075,-4.02354 -1.25931,-3.41663 -1.31338,-4.59155 -0.0648,-1.40927 0.41608,1.0605 0.80542,1.78143 0.86522,1.60205 0.17729,-0.53187 0.55419,-0.37499 0.97863,0.40737 0.61018,1.12474 0.49278,0.43587 -0.17308,-1.01557 -0.32581,-0.71018 -0.84252,-1.42512 -1.14827,-1.58875 -0.30573,-0.16363 -0.78935,-0.90126 -1.0747,-1.6392 -0.53227,-1.37646 -2.18992,-3.54851 -1.90145,-2.49147 0.08,0.2934 0.28695,1.24557 0.45973,2.11592 0.40806,2.05565 0.93889,3.53955 1.44848,4.04913 0.22439,0.2244 0.40799,0.6995 0.40799,1.05578 0,0.35627 0.12002,0.64777 0.26673,0.64777 0.14671,0 0.26673,0.29327 0.26673,0.65171 0,0.36051 0.25129,0.82772 0.56239,1.04562 0.30931,0.21664 0.4932,0.50583 0.40865,0.64262 -0.33411,0.54063 4.27712,5.39133 4.93878,5.19525 0.12377,-0.0367 0.22504,0.0533 0.22504,0.20005 0,0.1467 0.15003,0.23673 0.3334,0.20005 0.18339,-0.0367 0.30044,0.0922 0.26013,0.28656 -0.0403,0.19428 0.0497,0.27722 0.20005,0.1843 0.15034,-0.093 0.40618,-0.0868 0.56855,0.0135 0.21013,0.12986 0.20034,0.24109 -0.034,0.38588 -0.44665,0.27605 2.32255,2.13591 2.90514,1.95118 0.32425,-0.1028 0.34669,-0.0746 0.0884,0.111 -0.43756,0.31455 -0.13132,0.58398 1.54634,1.36043 1.72266,0.79728 2.42901,0.77635 1.54202,-0.0457 z m -9.01052,-5.91425 c 0,-0.0734 0.06,-0.13337 0.13336,-0.13337 0.0734,0 0.13337,0.06 0.13337,0.13337 0,0.0734 -0.06,0.13337 -0.13337,0.13337 -0.0734,0 -0.13336,-0.06 -0.13336,-0.13337 z m -3.03907,-3.75654 c -0.0997,-0.25978 -0.0401,-0.38172 0.15484,-0.31675 0.39872,0.13291 0.61825,0.73913 0.26766,0.73913 -0.14323,0 -0.33336,-0.19007 -0.4225,-0.42238 z m 13.70837,9.90714 c 0,-0.0647 -0.13858,-0.20328 -0.30795,-0.30795 -0.19079,-0.11792 -0.23554,-0.0732 -0.11762,0.11762 0.19003,0.30748 0.42557,0.41282 0.42557,0.19033 z m -6.97951,-0.36045 c -0.0489,-0.11623 -1.31921,-1.32462 -2.82292,-2.6853 -1.5037,-1.36069 -2.73401,-2.60061 -2.73401,-2.75539 0,-0.17489 0.15145,-0.15572 0.40011,0.0506 0.73789,0.6124 0.40979,-0.0478 -0.65702,-1.32194 -1.61052,-1.92358 -2.80212,-3.79295 -3.50655,-5.50102 -0.5057,-1.22616 -0.65648,-1.41597 -0.72878,-0.91732 -0.0501,0.3458 0.17333,1.23859 0.49656,1.98396 0.32323,0.74538 0.75577,1.75237 0.96117,2.23776 0.65585,1.54977 2.35895,3.60205 5.30959,6.39822 2.53671,2.40391 3.56939,3.19382 3.28185,2.5104 z m -7.95752,-8.59084 c 0,-0.19561 0.08,-0.27562 0.17782,-0.17782 0.0978,0.0978 0.0978,0.25783 0,0.35564 -0.0978,0.0978 -0.17782,0.0177 -0.17782,-0.17782 z m 9.86911,8.59862 c 0,-0.5076 -4.41609,-3.47124 -4.71984,-3.1675 -0.12016,0.12016 4.23748,3.36973 4.51979,3.37051 0.11003,2.6e-4 0.20005,-0.091 0.20005,-0.20301 z m 3.86987,-0.95587 c -1.03038,-1.57256 -6.00951,-4.82496 -6.65925,-4.34986 -0.37838,0.27668 -0.0869,0.5568 2.13079,2.04803 5.18396,3.48571 5.36421,3.57734 4.52846,2.30183 z m -10.00472,0.49259 c 0,-0.0734 -0.06,-0.13336 -0.13337,-0.13336 -0.0734,0 -0.13336,0.06 -0.13336,0.13336 0,0.0734 0.06,0.13337 0.13336,0.13337 0.0734,0 0.13337,-0.06 0.13337,-0.13337 z m 13.39594,-2.27177 c -0.6081,-0.58431 -1.23327,-1.06238 -1.38928,-1.06238 -0.15599,0 -0.40046,-0.3073 -0.54326,-0.68288 -0.1428,-0.37559 -0.38287,-0.60673 -0.53347,-0.51364 -0.15062,0.0931 -0.24086,0.0103 -0.20056,-0.18401 0.0413,-0.19911 -0.15791,-0.35344 -0.45661,-0.35372 -0.29145,-2.6e-4 -0.56547,-0.18519 -0.60895,-0.41096 -0.0994,-0.51612 -3.4941,-2.78944 -6.42744,-4.30423 -1.22741,-0.63385 -2.78927,-1.64804 -3.47081,-2.25377 -1.441,-1.28073 -2.69751,-3.50483 -2.16572,-3.83349 0.18405,-0.11375 0.25216,-0.34027 0.15136,-0.50337 -0.20398,-0.33004 -1.22201,-0.41103 -1.21299,-0.0965 0.0152,0.53082 2.61432,4.99315 2.876,4.93775 0.16492,-0.0349 0.24659,0.0851 0.18147,0.26673 -0.14303,0.39895 1.94639,2.68444 3.60511,3.94342 0.66016,0.50106 1.03556,0.70327 0.83422,0.44936 -0.20134,-0.25392 -0.24605,-0.46167 -0.0993,-0.46167 0.34531,0 0.90472,0.67208 0.71625,0.86054 -0.12243,0.12244 3.4537,2.34025 3.77358,2.34025 0.49813,0 -0.17626,-0.55389 -1.62383,-1.33367 -1.72006,-0.92656 -2.40684,-1.6152 -1.00023,-1.00294 1.53565,0.66845 6.37973,3.6775 7.38146,4.58525 1.41639,1.28347 1.60145,0.94807 0.21304,-0.38606 z m -11.06204,-6.20701 c -0.55015,-0.47126 -1.00025,-0.95961 -1.00024,-1.0852 0,-0.12559 -0.30639,-0.46936 -0.68088,-0.76393 -1.10983,-0.87299 -0.559,-0.82951 0.98198,0.0775 2.32306,1.36737 2.88794,1.83532 2.72573,2.25801 -0.23537,0.61339 -0.94025,0.44423 -2.02659,-0.48639 z m -4.28994,6.03373 c -0.0978,-0.0978 -0.17782,-0.0177 -0.17782,0.17782 0,0.19561 0.08,0.27562 0.17782,0.17783 0.0978,-0.0978 0.0978,-0.25784 0,-0.35565 z m 12.62534,-0.7272 c 0,-0.0577 -0.18627,-0.17631 -0.41396,-0.26368 -0.23736,-0.0911 -0.34443,-0.0464 -0.25098,0.10483 0.15664,0.25345 0.66494,0.37488 0.66494,0.15885 z m -14.68861,-2.70577 c -1.22807,-2.44866 -1.58897,-2.90347 -1.80046,-2.26899 -0.0541,0.16229 0.0563,0.26131 0.24523,0.22005 0.18897,-0.0412 0.41029,0.22506 0.49179,0.59182 0.0815,0.36675 0.49286,1.24239 0.91412,1.94586 0.9961,1.6634 0.73238,1.91755 -0.35292,0.34011 -0.86827,-1.26197 -1.47217,-1.73139 -0.71042,-0.55221 0.23693,0.36675 0.62858,0.97293 0.87033,1.34706 0.24176,0.37413 0.598,0.61942 0.79166,0.54512 0.19365,-0.0743 0.42304,-0.0204 0.50975,0.11996 0.5584,0.90351 0.13399,-0.10931 -0.95908,-2.28878 z m 17.76878,1.22428 c -0.46771,-0.51681 -3.84386,-2.27336 -4.02375,-2.09347 -0.2522,0.25221 0.46042,0.80757 2.13965,1.66752 2.08922,1.06991 2.56402,1.17726 1.8841,0.42595 z m -2.81343,-1.21437 c 0,-0.0734 0.06,-0.13336 0.13336,-0.13336 0.0734,0 0.13337,0.06 0.13337,0.13336 0,0.0734 -0.06,0.13336 -0.13337,0.13336 -0.0734,0 -0.13336,-0.06 -0.13336,-0.13336 z m 1.86712,-0.26339 c 0,-0.0715 -0.46095,-0.42101 -1.02433,-0.77665 -0.56339,-0.35566 -1.19354,-0.81297 -1.40034,-1.01628 -0.90254,-0.88724 -3.009,-2.12393 -5.59343,-3.28384 -1.53151,-0.68736 -2.9046,-1.32275 -3.0513,-1.41198 -0.1467,-0.0892 0.17485,0.29285 0.71457,0.84908 0.53972,0.55623 1.29253,1.04549 1.67294,1.08724 0.3804,0.0417 0.89905,0.25819 1.15255,0.48098 0.55897,0.49122 2.59504,1.53414 2.99506,1.53414 0.28667,0 1.65936,0.89757 2.34559,1.53372 0.19782,0.18338 0.51644,0.33342 0.70805,0.33342 0.19162,0 0.49781,0.18004 0.68045,0.40009 0.31701,0.38198 0.80019,0.54506 0.80019,0.27008 z m -10.6693,-0.27008 c 0,-0.0734 -0.06,-0.13337 -0.13337,-0.13337 -0.0734,0 -0.13337,0.06 -0.13337,0.13337 0,0.0734 0.06,0.13336 0.13337,0.13336 0.0734,0 0.13337,-0.06 0.13337,-0.13336 z m 7.20178,-0.78445 c 0,-0.0647 -0.13857,-0.20328 -0.30795,-0.30795 -0.1908,-0.11792 -0.23554,-0.0732 -0.11762,0.11763 0.19004,0.30747 0.42557,0.41281 0.42557,0.19032 z m -0.82242,-0.49236 c -2.01453,-1.38681 -4.30873,-2.64715 -4.19442,-2.30422 0.10712,0.32139 4.01144,2.62249 4.19442,2.47208 0.0611,-0.0502 0.0611,-0.12578 0,-0.16786 z m -14.22892,-2.74323 c -0.0981,-0.3909 -0.2384,-0.65072 -0.31175,-0.57736 -0.0734,0.0734 -0.0531,0.45319 0.0451,0.84409 0.0981,0.3909 0.2384,0.65071 0.31175,0.57736 0.0734,-0.0734 0.0531,-0.45319 -0.045,-0.84409 z m 4.37795,-0.58109 c -0.0119,-0.58469 -0.5214,-0.97272 -0.52529,-0.40011 -0.002,0.33008 0.11594,0.60016 0.26264,0.60016 0.1467,0 0.2649,-0.09 0.26265,-0.20005 z m 14.47433,-0.0987 c -3.32579,-0.68857 -3.49868,-0.75526 -1.6004,-0.61737 0.99024,0.072 1.80045,0.0721 1.80045,2.6e-4 0,-0.25124 -2.0148,-0.65453 -3.60089,-0.72076 l -1.6004,-0.0668 -0.009,0.85173 -0.009,0.85171 3.07647,-0.0321 c 2.50802,-0.0261 2.867,-0.0754 1.94285,-0.26674 z m -19.35596,-0.81818 c -0.0852,-0.21278 -0.14835,-0.14958 -0.16114,0.16116 -0.0116,0.28117 0.0514,0.43871 0.14008,0.35008 0.0886,-0.0886 0.0981,-0.31869 0.0211,-0.51124 z m -12.71864,-0.0834 c -0.18262,-0.22006 -0.50212,-0.40011 -0.71,-0.40011 -0.31061,0 -0.31667,0.0695 -0.0341,0.38996 0.48497,0.54987 1.20004,0.55962 0.74402,0.0102 z m 12.00297,-0.13337 c 0,-0.1467 -0.12003,-0.26674 -0.26673,-0.26674 -0.1467,0 -0.26673,0.12004 -0.26673,0.26674 0,0.1467 0.12003,0.26673 0.26673,0.26673 0.1467,0 0.26673,-0.12003 0.26673,-0.26673 z m -18.67128,-0.13337 c 0,-0.0734 -0.06,-0.13337 -0.13336,-0.13337 -0.0734,0 -0.13337,0.06 -0.13337,0.13337 0,0.0734 0.06,0.13337 0.13337,0.13337 0.0734,0 0.13336,-0.06 0.13336,-0.13337 z m 4.05434,-0.18671 c -0.5513,-0.5513 -0.40278,-1.81378 0.21338,-1.81378 0.31215,0 0.53347,-0.17783 0.53347,-0.42864 0,-0.27142 0.14674,-0.37233 0.40009,-0.2751 0.22006,0.0845 0.40011,0.0501 0.40011,-0.0763 0,-0.69969 -0.91307,-0.40028 -2.13809,0.70112 -1.35309,1.21655 -1.37586,1.2251 -2.54766,0.95694 -0.6503,-0.1488 -1.18237,-0.16718 -1.18237,-0.0408 0,0.12635 0.16721,0.22973 0.37157,0.22973 0.20435,0 0.44677,0.19604 0.53873,0.43564 0.13249,0.34528 0.40241,0.40339 1.30148,0.28014 0.62389,-0.0855 1.31169,-0.0434 1.52845,0.0938 0.56541,0.35754 0.95862,0.31511 0.58084,-0.0627 z m -1.03137,-0.92467 c 0.0978,-0.0978 0.25785,-0.0978 0.35564,0 0.0978,0.0978 0.0177,0.17781 -0.17782,0.17781 -0.19559,0 -0.27562,-0.08 -0.17782,-0.17781 z m 26.45098,0.97801 c -0.0906,-0.1467 -0.28488,-0.26673 -0.43159,-0.26673 -0.1467,0 -0.19255,0.12003 -0.10188,0.26673 0.0906,0.14671 0.28488,0.26674 0.43158,0.26674 0.14671,0 0.19255,-0.12003 0.10189,-0.26674 z m -11.0694,-0.40009 c 0,-0.0734 -0.06,-0.13337 -0.13337,-0.13337 -0.0734,0 -0.13336,0.06 -0.13336,0.13337 0,0.0734 0.06,0.13336 0.13336,0.13336 0.0734,0 0.13337,-0.06 0.13337,-0.13336 z m 8.53545,0 c 0,-0.0734 -0.06,-0.13337 -0.13338,-0.13337 -0.0734,0 -0.13336,0.06 -0.13336,0.13337 0,0.0734 0.06,0.13336 0.13336,0.13336 0.0734,0 0.13338,-0.06 0.13338,-0.13336 z m 1.73497,-0.22985 c 0.30649,-0.30647 0.1889,-0.41422 -0.75256,-0.68962 -0.61368,-0.17951 -1.52101,-0.56107 -2.01629,-0.84791 -1.00412,-0.58153 -1.35425,-0.53488 -0.63484,0.0846 0.44041,0.37924 2.76837,1.80814 2.95475,1.81362 0.0472,0.001 0.24918,-0.16092 0.44895,-0.36069 z m -2.26844,-0.0369 c 0,-0.0734 -0.06,-0.13338 -0.13337,-0.13338 -0.0734,0 -0.13336,0.06 -0.13336,0.13338 0,0.0734 0.06,0.13336 0.13336,0.13336 0.0734,0 0.13337,-0.06 0.13337,-0.13336 z m 3.64534,-0.0445 c -0.0978,-0.0978 -0.25784,-0.0978 -0.35565,0 -0.0978,0.0978 -0.0177,0.17782 0.17783,0.17782 0.1956,0 0.27562,-0.08 0.17782,-0.17782 z m -4.97901,-0.75575 c 0,-0.0734 -0.06,-0.13337 -0.13336,-0.13337 -0.0734,0 -0.13337,0.06 -0.13337,0.13337 0,0.0734 0.06,0.13337 0.13337,0.13337 0.0734,0 0.13336,-0.06 0.13336,-0.13337 z m -20.90567,-1.77847 c 0.45817,-0.48883 0.91658,-1.24886 1.0187,-1.68898 0.10212,-0.4401 0.56746,-1.20831 1.03409,-1.70713 0.98834,-1.0565 0.57439,-0.8694 -1.25059,0.56523 -0.87761,0.6899 -1.3979,0.93878 -1.60435,0.76743 -0.45201,-0.37513 -3.36504,1.46849 -3.36504,2.12969 0,0.4038 0.1904,0.51201 0.90091,0.51201 0.49549,0 1.04823,0.17752 1.2283,0.3945 0.4025,0.48498 0.88958,0.25248 2.03798,-0.97275 z m -7.80498,0.71162 c 0.10443,-0.27214 -0.0144,-0.4001 -0.37157,-0.4001 -0.52414,0 -0.68369,0.28595 -0.34726,0.62238 0.28806,0.28806 0.55461,0.20563 0.71883,-0.22228 z m 0.8371,-0.13337 c 0.0906,-0.1467 0.0377,-0.26673 -0.11762,-0.26673 -0.15537,0 -0.28248,0.12003 -0.28248,0.26673 0,0.1467 0.0529,0.26673 0.11763,0.26673 0.0647,0 0.1918,-0.12003 0.28247,-0.26673 z m 26.80662,0.13337 c 0,-0.0734 -0.06,-0.13337 -0.13336,-0.13337 -0.0734,0 -0.13337,0.06 -0.13337,0.13337 0,0.0734 0.06,0.13336 0.13337,0.13336 0.0734,0 0.13336,-0.06 0.13336,-0.13336 z m -6.04139,-1.13098 c -0.22365,-0.89107 -0.89366,-1.67028 -0.89366,-1.0393 0,0.66156 0.5002,1.77018 0.79868,1.77018 0.1703,0 0.20718,-0.28383 0.095,-0.73088 z m -18.54806,-0.25462 c 0.0544,-0.38259 0.21615,-0.53441 0.46678,-0.43824 0.23544,0.0903 0.38348,-0.0183 0.38348,-0.28149 0,-0.23575 0.18004,-0.42863 0.40009,-0.42863 0.22006,0 0.40011,-0.12003 0.40011,-0.26673 0,-0.1467 0.18713,-0.26674 0.41584,-0.26674 0.22871,0 0.34695,-0.11145 0.26278,-0.24766 -0.0842,-0.13621 0.11877,-0.28625 0.45103,-0.33341 0.93997,-0.13344 1.02425,-1.51313 0.0891,-1.45883 -0.51567,0.0299 -0.64318,0.15094 -0.53124,0.5041 0.28636,0.90341 -3.05648,3.1362 -4.69538,3.1362 -0.48397,0 -0.75644,0.11063 -0.65936,0.26771 0.091,0.14724 0.45818,0.19425 0.81594,0.10445 0.41302,-0.10365 0.65049,-0.0489 0.65049,0.15011 0,0.6065 1.46039,0.19125 1.55033,-0.44084 z m 7.25183,0.50538 c 0,-0.11736 -0.15004,-0.37091 -0.33341,-0.56344 -0.27114,-0.28468 -0.23378,-0.32069 0.20005,-0.1928 0.2934,0.0865 0.71351,0.0418 0.93356,-0.0993 0.32283,-0.20701 0.2842,-0.25734 -0.20004,-0.26064 -0.79883,-0.005 -0.76072,-0.57253 0.10783,-1.60473 0.52659,-0.62583 0.72887,-1.19482 0.78955,-2.22101 0.0755,-1.27622 0.007,-1.2179 -0.30584,0.26007 -0.0666,0.31503 -0.53653,1.0699 -1.04417,1.67751 -0.53722,0.64301 -0.85889,1.27174 -0.76963,1.50434 0.0844,0.21978 -0.0415,0.61492 -0.27969,0.87811 -0.23817,0.26317 -0.35275,0.55877 -0.25463,0.65689 0.25048,0.25048 1.15642,0.22308 1.15642,-0.035 z m -11.37304,-0.45344 c 0.0935,-0.24372 5.4e-4,-0.4001 -0.23819,-0.4001 -0.21545,0 -0.39172,0.18005 -0.39172,0.4001 0,0.22005 0.10718,0.4001 0.23819,0.4001 0.131,0 0.30728,-0.18005 0.39172,-0.4001 z m -1.05838,-0.55576 c 0.0997,-0.25977 0.0401,-0.38171 -0.15483,-0.31674 -0.39873,0.13291 -0.61827,0.73913 -0.26767,0.73913 0.14323,0 0.33336,-0.19008 0.4225,-0.42239 z m 32.56973,0.15566 c -0.0906,-0.14671 -0.42783,-0.2649 -0.74926,-0.26265 -0.47511,0.003 -0.50957,0.0524 -0.1843,0.26265 0.52549,0.3396 1.14345,0.3396 0.93356,0 z m -14.40356,-0.53347 c 0.0906,-0.1467 0.0377,-0.26673 -0.11762,-0.26673 -0.15536,0 -0.28247,0.12003 -0.28247,0.26673 0,0.14671 0.0529,0.26674 0.11763,0.26674 0.0647,0 0.1918,-0.12003 0.28246,-0.26674 z m -2.08939,-0.71128 c -0.0978,-0.0978 -0.17783,-0.0177 -0.17783,0.17782 0,0.19561 0.08,0.27562 0.17783,0.17782 0.0978,-0.0978 0.0978,-0.25784 0,-0.35564 z m 13.15879,0.31118 c 0,-0.0734 -0.06,-0.13336 -0.13336,-0.13336 -0.0734,0 -0.13336,0.06 -0.13336,0.13336 0,0.0734 0.06,0.13337 0.13336,0.13337 0.0734,0 0.13336,-0.06 0.13336,-0.13337 z m -0.48456,-0.99135 c -0.19139,-0.1914 -0.31563,-0.20714 -0.31563,-0.04 0,0.35603 0.31544,0.67147 0.49345,0.49345 0.0758,-0.0758 -0.004,-0.27984 -0.17782,-0.45344 z m 0.66239,-0.12003 c -0.0978,-0.0978 -0.17783,-0.0177 -0.17783,0.17782 0,0.19561 0.08,0.27562 0.17783,0.17783 0.0978,-0.0978 0.0978,-0.25785 0,-0.35565 z m -19.11583,-0.48901 c 0,-0.0734 -0.06,-0.13337 -0.13338,-0.13337 -0.0734,0 -0.13336,0.06 -0.13336,0.13337 0,0.0734 0.06,0.13336 0.13336,0.13336 0.0734,0 0.13338,-0.06 0.13338,-0.13336 z m 15.65269,-0.45011 c -0.0852,-0.21278 -0.14835,-0.14958 -0.16115,0.16115 -0.0116,0.28118 0.0514,0.43871 0.14009,0.35008 0.0886,-0.0886 0.0981,-0.31869 0.0211,-0.51123 z m -15.47487,-0.39455 c -0.0978,-0.0978 -0.17782,-0.0177 -0.17782,0.17783 0,0.1956 0.08,0.27562 0.17782,0.17782 0.0978,-0.0978 0.0978,-0.25784 0,-0.35565 z m 14.34182,-1.45051 c -0.23275,-0.37661 -0.64955,-0.27847 -0.64955,0.15294 0,0.23794 0.15646,0.33168 0.39857,0.23878 0.21921,-0.0841 0.33216,-0.2604 0.25098,-0.39172 z m -0.73846,-0.95008 c -0.0978,-0.0978 -0.17782,-0.0177 -0.17782,0.17782 0,0.19561 0.08,0.27562 0.17782,0.17783 0.0978,-0.0978 0.0978,-0.25784 0,-0.35565 z m -10.54508,-1.70135 c -0.18261,-1.48975 -0.23984,-1.6197 -0.42478,-0.96449 -0.1333,0.47225 -0.084,1.15032 0.131,1.80177 0.46818,1.41861 0.54387,1.2029 0.29378,-0.83728 z m 11.43419,1.74581 c 0,-0.0734 -0.06,-0.13337 -0.13337,-0.13337 -0.0734,0 -0.13336,0.06 -0.13336,0.13337 0,0.0734 0.06,0.13336 0.13336,0.13336 0.0734,0 0.13337,-0.06 0.13337,-0.13336 z m 3.46752,-0.26673 c 0,-0.0734 -0.06,-0.13338 -0.13337,-0.13338 -0.0734,0 -0.13336,0.06 -0.13336,0.13338 0,0.0734 0.06,0.13336 0.13336,0.13336 0.0734,0 0.13337,-0.06 0.13337,-0.13336 z m -6.66831,-0.53347 c 0,-0.0734 -0.06,-0.13336 -0.13337,-0.13336 -0.0734,0 -0.13336,0.06 -0.13336,0.13336 0,0.0734 0.06,0.13337 0.13336,0.13337 0.0734,0 0.13337,-0.06 0.13337,-0.13337 z m 5.20128,-3.06743 c 0.0906,-0.1467 0.10483,-0.26673 0.0314,-0.26673 -0.0734,0 -0.20756,0.12003 -0.29823,0.26673 -0.0906,0.1467 -0.10483,0.26673 -0.0315,0.26673 0.0734,0 0.20756,-0.12003 0.29822,-0.26673 z m -0.57478,-0.67833 c -0.0869,-0.22639 -0.21516,-0.3544 -0.28508,-0.28447 -0.07,0.07 -0.048,0.25513 0.0487,0.41159 0.26302,0.42556 0.41674,0.34289 0.23638,-0.12712 z m 1.1527,-0.033 c -0.0978,-0.0978 -0.17782,-0.0177 -0.17782,0.17782 0,0.19561 0.08,0.27563 0.17782,0.17783 0.0978,-0.0978 0.0978,-0.25784 0,-0.35565 z m -33.87503,-0.26674 c -0.0978,-0.0978 -0.17782,-0.0177 -0.17782,0.17783 0,0.1956 0.08,0.27562 0.17782,0.17782 0.0978,-0.0978 0.0978,-0.25784 0,-0.35565 z m 1.62614,-1.56054 c 0.20654,-0.99272 0.27582,-1.05677 1.0573,-0.97747 1.11753,0.11341 2.22973,-0.62123 2.08733,-1.37873 -0.0593,-0.31529 -0.11669,-0.68728 -0.12759,-0.82665 -0.0109,-0.13937 -0.15877,-0.11445 -0.3286,0.0554 -0.23387,0.23388 -0.22595,0.40856 0.0327,0.72019 0.29324,0.35331 0.24046,0.41139 -0.37379,0.41139 -0.39338,0 -0.64883,0.10746 -0.56766,0.23878 0.14064,0.22757 -0.41721,0.56142 -0.93811,0.56142 -0.38709,0 -0.28522,-0.57848 0.15923,-0.90416 0.31651,-0.23193 0.0996,-0.30449 -1.00025,-0.33467 -1.33625,-0.0367 -1.37527,-0.019 -0.80424,0.36595 0.56168,0.37856 0.84965,1.40635 0.39404,1.40635 -0.11337,0 -0.20611,0.47684 -0.20611,1.05965 0,1.27152 0.31021,1.07131 0.61579,-0.39743 z m 31.57016,0.49139 c -0.31443,-0.54072 -0.39036,-0.36764 -0.13297,0.3031 0.0914,0.23838 0.22251,0.37723 0.29118,0.30856 0.0686,-0.0686 -0.002,-0.34393 -0.15821,-0.61166 z m -15.04236,-0.0867 c -0.37301,-0.29341 -0.77929,-0.53079 -0.90286,-0.52753 -0.29129,0.008 1.03396,1.04725 1.34503,1.05507 0.12981,0.003 -0.0692,-0.23413 -0.44217,-0.52754 z m -19.20094,-0.46772 c 0.71404,-0.46678 0.55415,-0.86594 -0.34686,-0.86594 -0.35811,0 -0.65109,-0.12002 -0.65109,-0.26674 0,-0.1467 0.30715,-0.26673 0.68257,-0.26673 0.38713,0 0.61122,-0.11545 0.51772,-0.26673 -0.25589,-0.41404 -0.81453,-0.31699 -1.50416,0.26132 -0.49934,0.41874 -0.55498,0.57736 -0.26874,0.76627 0.28733,0.18964 0.29626,0.35911 0.0437,0.83086 -0.29391,0.54918 -0.27149,0.57818 0.30587,0.39558 0.34267,-0.10839 0.89208,-0.37293 1.2209,-0.58789 z m 23.40808,0.0571 c -0.29341,-0.21652 -0.92356,-0.7697 -1.40035,-1.22927 -0.47679,-0.45959 -0.86688,-0.70807 -0.86688,-0.55219 0,0.35127 2.12406,2.19524 2.51529,2.18362 0.15697,-0.005 0.0454,-0.18563 -0.24806,-0.40216 z m 11.15622,-0.61714 c -0.40302,-1.026 -2.22068,-3.3149 -2.22068,-2.79641 0,0.15053 0.30736,0.62244 0.68303,1.0487 0.37567,0.42625 0.91824,1.22511 1.20572,1.77525 0.67678,1.29515 0.84598,1.2811 0.33193,-0.0275 z m -18.83999,-1.03432 c -0.0676,-0.25952 -0.12741,-0.11177 -0.13285,0.32834 -0.005,0.44012 0.0499,0.65245 0.12296,0.47186 0.0731,-0.18058 0.0775,-0.54068 0.0101,-0.8002 z m -12.18781,-1.80545 c 0,-0.22006 -0.0472,-0.40011 -0.10483,-0.40011 -0.0577,0 -0.17392,0.18005 -0.25836,0.40011 -0.0845,0.22005 -0.0373,0.40009 0.10483,0.40009 0.1421,0 0.25836,-0.18004 0.25836,-0.40009 z m 7.91307,-0.3112 c -0.0978,-0.0978 -0.17782,-0.0177 -0.17782,0.17782 0,0.19561 0.08,0.27563 0.17782,0.17782 0.0978,-0.0978 0.0978,-0.25783 0,-0.35564 z m -0.97802,0.0445 c 0,-0.0734 -0.06,-0.13337 -0.13337,-0.13337 -0.0734,0 -0.13336,0.06 -0.13336,0.13337 0,0.0734 0.06,0.13336 0.13336,0.13336 0.0734,0 0.13337,-0.06 0.13337,-0.13336 z m 0.53347,-0.26673 c 0,-0.0734 -0.06,-0.13337 -0.13338,-0.13337 -0.0734,0 -0.13336,0.06 -0.13336,0.13337 0,0.0734 0.06,0.13336 0.13336,0.13336 0.0734,0 0.13338,-0.06 0.13338,-0.13336 z m 20.7929,-0.42295 c -0.16375,-0.30597 -0.36512,-0.48891 -0.44749,-0.40654 -0.0824,0.0824 0.002,0.3327 0.18764,0.55631 0.47953,0.5778 0.60923,0.50305 0.25985,-0.14977 z m -31.73302,-1.92671 c 0.002,-0.11868 -0.11595,-0.14161 -0.26265,-0.0509 -0.14671,0.0906 -0.2649,0.36782 -0.26266,0.6159 0.004,0.47744 0.51599,-0.0728 0.52531,-0.56495 z m 18.40863,-1.3846 c 0,-0.0734 -0.06,-0.13337 -0.13338,-0.13337 -0.0734,0 -0.13336,0.06 -0.13336,0.13337 0,0.0734 0.06,0.13336 0.13336,0.13336 0.0734,0 0.13338,-0.06 0.13338,-0.13336 z m -4.40993,-2.30148 c 2.02785,-1.57429 2.9837,-2.75033 1.38288,-1.70143 -0.37,0.24243 -1.00438,0.40206 -1.40974,0.35473 l -0.73699,-0.0861 0.88075,-1.00025 c 1.07189,-1.21731 0.87053,-1.24105 -1.06233,-0.12529 -2.70681,1.56252 -4.52147,3.55445 -2.12379,2.33124 1.12496,-0.5739 2.01689,-0.71305 1.7444,-0.27215 -0.0906,0.1467 -0.37489,0.26673 -0.6316,0.26673 -0.25671,0 -0.69973,0.17895 -0.9845,0.39768 -0.47027,0.36118 -0.37176,0.38165 1.0738,0.2232 0.87535,-0.096 1.71556,-0.27073 1.86712,-0.3884 z m -6.30971,-5.50044 c -0.15073,-0.55013 -0.3931,-1.22478 -0.53858,-1.49922 -0.18708,-0.3529 -0.17863,-0.4459 0.0288,-0.31767 0.41541,0.25673 0.36353,-0.27439 -0.11766,-1.20493 -0.22605,-0.43714 -0.34826,-0.8963 -0.27157,-1.02038 0.0767,-0.12407 -0.0491,-0.77882 -0.27947,-1.45498 -0.2304,-0.67615 -0.36163,-1.38131 -0.29167,-1.56702 0.12811,-0.33998 0.48971,0.40582 1.38813,2.86317 0.32201,0.88078 1.02249,1.8771 2.06283,2.93405 1.3643,1.3861 1.51647,1.481 1.13636,0.70873 -0.24138,-0.49042 -0.37452,-0.95605 -0.29584,-1.03472 0.0786,-0.0786 0.28607,0.17086 0.46087,0.55451 0.50037,1.09819 1.56743,1.70327 1.75292,0.994 0.079,-0.30233 0.28013,-0.48212 0.44684,-0.39954 0.16668,0.0826 0.0664,-0.0414 -0.22272,-0.27562 -0.28921,-0.23417 -0.64995,-0.37814 -0.80165,-0.31992 -0.1517,0.0582 -0.49084,-0.1792 -0.75362,-0.52758 -0.41708,-0.55295 -0.42431,-0.63343 -0.0569,-0.63343 0.23152,0 0.48785,0.1744 0.56964,0.38755 0.11768,0.30667 0.2515,0.32336 0.64121,0.0799 0.27086,-0.16916 0.43195,-0.40553 0.35795,-0.52526 -0.074,-0.11974 -0.23348,-0.15656 -0.3544,-0.0819 -0.12091,0.0747 -0.29495,-0.16337 -0.38675,-0.52912 -0.0918,-0.36573 -0.34088,-0.66499 -0.55354,-0.66499 -0.25374,0 -0.32951,0.16047 -0.22044,0.46678 0.0914,0.25673 -0.15226,0.1067 -0.54151,-0.33341 -0.7879,-0.89085 -0.85504,-1.10695 -0.39189,-1.26133 0.20487,-0.0682 -0.017,-0.66406 -0.62934,-1.68931 -0.52019,-0.8711 -1.28363,-2.21728 -1.69653,-2.99151 -0.49862,-0.93498 -0.81984,-1.29586 -0.95656,-1.07466 -0.24829,0.40175 -0.37113,0.28991 -0.64028,-0.58298 -0.19014,-0.61662 -0.17025,-0.63592 0.2748,-0.26673 0.45898,0.38073 0.46099,0.36162 0.0465,-0.44022 -0.70573,-1.36512 -3.38333,-8.1065 -3.38333,-8.51823 0,-0.2086 -0.11556,-0.37927 -0.25681,-0.37927 -0.29843,0 -0.10512,2.52451 0.24313,3.17522 0.25597,0.47827 2.14754,8.83164 2.14754,9.4837 0,0.72242 -0.50666,0.44283 -1.20651,-0.6658 -0.37843,-0.59948 -0.80623,-0.99859 -0.96509,-0.9004 -0.17677,0.10924 -0.0209,0.42164 0.40965,0.82083 0.66542,0.61702 0.90301,1.15634 0.5094,1.15634 -0.10209,0 -0.69452,-0.57015 -1.31649,-1.26698 -0.86248,-0.96627 -1.09476,-1.12012 -0.97871,-0.64823 0.0837,0.34033 0.49136,0.86954 0.90592,1.17604 0.41458,0.3065 0.68011,0.67642 0.59012,0.82205 -0.09,0.14563 0.0347,0.40981 0.27712,0.58708 0.41664,0.30465 1.77459,2.1483 1.77459,2.40931 0,0.28686 -0.76299,0.0876 -1.06694,-0.27858 -0.18261,-0.22005 -0.45161,-0.4001 -0.59777,-0.4001 -0.14615,0 0.0907,0.3646 0.52642,0.81022 0.86263,0.88232 1.28383,1.62423 1.50863,2.6573 0.12324,0.5665 1.61563,2.66733 1.89481,2.66733 0.0508,0 -0.0308,-0.45011 -0.18161,-1.00025 z m 1.50326,-2.80069 c -0.56458,-0.52077 -0.96238,-1.15397 -0.99632,-1.58592 -0.0682,-0.86732 0.37031,-1.02998 0.7541,-0.27973 0.15243,0.29798 0.41556,0.70855 0.58472,0.91238 0.36355,0.43805 0.91636,1.82015 0.72801,1.82015 -0.0719,0 -0.5536,-0.3901 -1.07051,-0.86688 z m -1.02475,-3.6633 c -0.4022,-0.73897 -0.69192,-1.61238 -0.64381,-1.94091 0.0805,-0.54939 0.1247,-0.52777 0.55164,0.26955 1.23384,2.30424 1.31791,2.52044 1.07469,2.76366 -0.15719,0.15721 -0.52502,-0.2517 -0.98252,-1.0923 z m 2.50588,7.06414 c 0,-0.0734 -0.06,-0.13337 -0.13337,-0.13337 -0.0734,0 -0.13336,0.06 -0.13336,0.13337 0,0.0734 0.06,0.13337 0.13336,0.13337 0.0734,0 0.13337,-0.06 0.13337,-0.13337 z m 4.97901,-1.11139 c -0.0978,-0.0978 -0.17783,-0.0177 -0.17783,0.17782 0,0.19561 0.08,0.27563 0.17783,0.17782 0.0978,-0.0978 0.0978,-0.25783 0,-0.35564 z m -7.11287,0.0445 c 0,-0.0734 -0.06,-0.13337 -0.13337,-0.13337 -0.0734,0 -0.13337,0.06 -0.13337,0.13337 0,0.0734 0.06,0.13337 0.13337,0.13337 0.0734,0 0.13337,-0.06 0.13337,-0.13337 z m 5.51247,-0.31119 c -0.0978,-0.0978 -0.17782,-0.0177 -0.17782,0.17782 0,0.19561 0.08,0.27562 0.17782,0.17782 0.0978,-0.0978 0.0978,-0.25783 0,-0.35564 z m -9.36912,-2.73849 c -0.0967,-0.15646 -0.30347,-0.28448 -0.45947,-0.28448 -0.17687,0 -0.15664,0.15304 0.0537,0.40655 0.36583,0.4408 0.69279,0.34243 0.40571,-0.12207 z m -1.68782,-1.93275 c -0.81632,-0.32395 -0.94932,-0.22939 -0.45131,0.32091 0.3718,0.41083 0.53863,0.45863 0.6984,0.20012 0.13157,-0.21288 0.0393,-0.40736 -0.24709,-0.52103 z m 0.20982,-0.61896 c 0,-0.0734 -0.06,-0.13336 -0.13337,-0.13336 -0.0734,0 -0.13336,0.06 -0.13336,0.13336 0,0.0734 0.06,0.13337 0.13336,0.13337 0.0734,0 0.13337,-0.06 0.13337,-0.13337 z m -0.26673,-4.49311 c 0,-0.0506 -0.25706,-0.32069 -0.57125,-0.60015 -0.56922,-0.50632 -0.56995,-0.50599 -0.20258,0.092 0.31332,0.51003 0.77383,0.81242 0.77383,0.50813 z m 0.56655,-1.31277 c -0.26342,-0.26147 -0.29406,-0.23083 -0.14931,0.14932 0.10021,0.26305 0.24931,0.4111 0.33144,0.32897 0.0822,-0.0822 1.7e-4,-0.29735 -0.18213,-0.47829 z m -1.90022,-0.0465 c 0,-0.0647 -0.12002,-0.19181 -0.26673,-0.28248 -0.14671,-0.0906 -0.26673,-0.0377 -0.26673,0.11763 0,0.15536 0.12002,0.28248 0.26673,0.28248 0.14671,0 0.26673,-0.0529 0.26673,-0.11763 z m 2.13387,-0.54921 c 0,-0.0734 -0.06,-0.13336 -0.13338,-0.13336 -0.0734,0 -0.13336,0.06 -0.13336,0.13336 0,0.0734 0.06,0.13337 0.13336,0.13337 0.0734,0 0.13338,-0.06 0.13338,-0.13337 z m -0.26674,-0.51772 c 0,-0.0647 -0.13858,-0.20327 -0.30794,-0.30794 -0.1908,-0.11792 -0.23554,-0.0732 -0.11763,0.11761 0.19003,0.30748 0.42557,0.41282 0.42557,0.19033 z m -4.26772,-6.41732 c 0,-0.0734 -0.06,-0.13337 -0.13337,-0.13337 -0.0734,0 -0.13336,0.06 -0.13336,0.13337 0,0.0734 0.06,0.13337 0.13336,0.13337 0.0734,0 0.13337,-0.06 0.13337,-0.13337 z m 2.7563,-0.7807 c 0.0803,-0.20932 -0.0298,-0.52661 -0.24492,-0.70508 -0.34081,-0.28284 -0.33022,-0.3939 0.0826,-0.86554 0.26043,-0.29759 0.32348,-0.45335 0.1401,-0.34611 -0.18338,0.10722 -0.33341,0.0678 -0.33341,-0.0875 0,-0.15536 0.138,-0.28248 0.30667,-0.28248 0.21934,0 0.2632,-0.66463 0.15402,-2.33391 -0.14644,-2.23879 0.0889,-6.01582 0.44455,-7.1351 0.0932,-0.2934 -0.0399,-0.11336 -0.29594,0.4001 -0.36857,0.73927 -0.46654,1.6414 -0.4707,4.33444 -0.004,2.70524 -0.0803,3.40087 -0.37199,3.40084 -0.26526,-2e-5 -0.32247,0.22143 -0.20673,0.80017 0.088,0.4401 0.0564,0.80019 -0.0704,0.80019 -0.1267,0 -0.30919,-0.4201 -0.40552,-0.93356 -0.0964,-0.51346 -0.28164,-0.93356 -0.4118,-0.93356 -0.13017,0 -0.31287,-0.24007 -0.40599,-0.53347 -0.0932,-0.29341 -0.28125,-0.53347 -0.41807,-0.53347 -0.46059,0 -0.24425,0.92421 0.55627,2.37653 0.43745,0.79362 0.79537,1.71386 0.79537,2.04495 0,0.52962 0.27574,0.82304 0.83834,0.89212 0.0944,0.0116 0.23723,-0.15021 0.31756,-0.35954 z m 0.71122,-0.0194 c 0,-0.0734 -0.06,-0.13336 -0.13336,-0.13336 -0.0734,0 -0.13337,0.06 -0.13337,0.13336 0,0.0734 0.06,0.13337 0.13337,0.13337 0.0734,0 0.13336,-0.06 0.13336,-0.13337 z m -2.13385,-0.53346 c 0,-0.0734 -0.06,-0.13337 -0.13338,-0.13337 -0.0734,0 -0.13336,0.06 -0.13336,0.13337 0,0.0734 0.06,0.13336 0.13336,0.13336 0.0734,0 0.13338,-0.06 0.13338,-0.13336 z m 2.50061,-1.43368 c -0.0938,-0.46864 -0.22602,-0.79647 -0.29397,-0.72851 -0.0679,0.0679 -0.0407,0.5008 0.0606,0.96189 0.24026,1.09391 0.45575,0.87843 0.23339,-0.23338 z m -3.03408,0.38249 c 0,-0.0647 -0.12003,-0.19181 -0.26673,-0.28248 -0.14671,-0.0906 -0.26674,-0.0377 -0.26674,0.11763 0,0.15536 0.12003,0.28247 0.26674,0.28247 0.1467,0 0.26673,-0.0529 0.26673,-0.11762 z m 32.09416,-0.6159 c 0.0647,-0.11002 0.19046,-0.62014 0.27933,-1.13361 0.0889,-0.51346 0.0865,-0.75351 -0.005,-0.53346 -0.0917,0.22006 -0.3904,0.61483 -0.66369,0.87727 -0.27331,0.26245 -0.49691,0.59252 -0.49691,0.73351 0,0.30172 0.71527,0.34714 0.88646,0.0562 z m 4.18147,-0.33341 c 0,-0.1467 0.18004,-0.26673 0.40009,-0.26673 0.22006,0 0.4001,-0.18814 0.4001,-0.41808 0,-0.31123 -0.15337,-0.3702 -0.60014,-0.23078 -0.92331,0.28814 -1.37721,1.18233 -0.60016,1.18233 0.22007,0 0.40011,-0.12004 0.40011,-0.26674 z m -33.2337,-2.00054 c 0.128,-0.76447 0.10139,-0.95351 -0.0939,-0.66683 -0.1499,0.22005 -0.27438,0.75018 -0.27663,1.17807 -0.005,1.02492 0.14898,0.81194 0.37052,-0.51124 z m 31.63713,0.064 c 0.80897,-0.40195 1.68295,-0.73082 1.94218,-0.73082 0.25923,0 0.53846,-0.21005 0.62051,-0.46678 0.29671,-0.9284 0.69879,-1.60874 1.39343,-2.35777 0.38932,-0.4198 0.71344,-1.03532 0.72023,-1.36782 0.0123,-0.60148 0.009,-0.60093 -0.73073,0.10739 -1.58221,1.51586 -0.95005,0.30701 0.81271,-1.55411 3.14694,-3.32253 3.81351,-4.27555 3.23884,-4.6307198 -0.14725,-0.091 -0.20078,-0.48818 -0.11897,-0.88263 0.14422,-0.69541 0.12605,-0.68891 -0.59918,0.21441 -0.41134,0.51237 -1.2385,1.4726098 -1.83812,2.1338698 -0.59961,0.66125 -1.16598,1.41234 -1.2586,1.66907 -0.0927,0.25672 -0.35221,0.46678 -0.57687,0.46678 -0.22466,0 -0.40847,0.18004 -0.40847,0.40009 0,0.63921 0.27726,0.48105 1.50945,-0.86107 1.763,-1.92027 1.38126,-1.14624 -0.61795,1.25296 -1.46257,1.75521 -1.87964,2.10507 -2.36444,1.98339 -0.40428,-0.10147 -0.64367,-0.004 -0.76442,0.31038 -0.22203,0.57861 0.0182,0.84047 0.41087,0.44782 0.22017,-0.22016 0.40015,-0.19684 0.68587,0.0889 0.33868,0.33867 0.28383,0.4841 -0.4363,1.1568 -0.45303,0.42318 -0.82367,0.96133 -0.82367,1.19587 0,0.23455 -0.14553,0.42646 -0.3234,0.42646 -0.17786,0 -0.59513,0.33007 -0.92726,0.7335 -0.4681,0.56862 -0.6569,0.65353 -0.83978,0.37774 -0.18908,-0.28515 -0.26976,-0.26759 -0.4064,0.0885 -0.23643,0.61609 -0.21437,1.13905 0.0337,0.79805 0.10778,-0.14819 0.85785,-0.5983 1.66683,-1.00025 z m 6.84028,-10.3332 c 0.25998,-0.44011 0.56684,-0.8001998 0.68191,-0.8001998 0.30818,0 0.25892,0.2096598 -0.22155,0.9429498 -0.61694,0.94158 -1.02597,0.81474 -0.46036,-0.14275 z m -40.98587,10.53596 c 0,-0.0734 -0.06,-0.13337 -0.13338,-0.13337 -0.0734,0 -0.13336,0.06 -0.13336,0.13337 0,0.0734 0.06,0.13336 0.13336,0.13336 0.0734,0 0.13338,-0.06 0.13338,-0.13336 z m 0.66682,-0.13337 c 0.0906,-0.1467 0.0377,-0.26672 -0.11762,-0.26672 -0.15536,0 -0.28247,0.12002 -0.28247,0.26672 0,0.14671 0.0529,0.26673 0.11762,0.26673 0.0647,0 0.19181,-0.12002 0.28247,-0.26673 z m 31.5189,-0.44455 c -0.0978,-0.0978 -0.17782,-0.0177 -0.17782,0.17783 0,0.19559 0.08,0.27562 0.17782,0.17782 0.0978,-0.0978 0.0978,-0.25785 0,-0.35565 z m 5.6903,-0.66498 c 0,-0.11407 -0.17186,-0.14143 -0.3819,-0.0608 -0.21005,0.0806 -0.36398,0.38443 -0.34207,0.6752 0.0374,0.49621 0.0608,0.49995 0.38189,0.0608 0.18814,-0.2573 0.34208,-0.56114 0.34208,-0.67519 z m -3.79972,-1.62453 c 0.49795,-1.13873 0.14438,-0.86402 -0.51497,0.40011 -0.42205,0.80918 -0.62004,1.00002 -0.6918,0.66682 -0.11596,-0.53828 -0.74308,-0.62697 -0.93304,-0.13196 -0.14389,0.37498 0.45764,1.05717 0.70982,0.80499 0.089,-0.089 0.16224,0.008 0.16278,0.21608 10e-4,0.39947 0.72756,-0.72194 1.26721,-1.95604 z m -35.27661,1.66709 c -0.0906,-0.1467 -0.27779,-0.26674 -0.41584,-0.26674 -0.13804,0 -0.25099,0.12004 -0.25099,0.26674 0,0.1467 0.18713,0.26672 0.41584,0.26672 0.22871,0 0.34166,-0.12002 0.25099,-0.26672 z m 1.73377,-0.13338 c 0,-0.0734 -0.06,-0.13336 -0.13337,-0.13336 -0.0734,0 -0.13336,0.06 -0.13336,0.13336 0,0.0734 0.06,0.13338 0.13336,0.13338 0.0734,0 0.13337,-0.06 0.13337,-0.13338 z m -0.26673,-0.53355 c 0,-0.0734 -0.06,-0.13336 -0.13337,-0.13336 -0.0734,0 -0.13336,0.06 -0.13336,0.13336 0,0.0734 0.06,0.13337 0.13336,0.13337 0.0734,0 0.13337,-0.06 0.13337,-0.13337 z m -2.37618,-1.49483 c -0.28612,-0.64487 -0.52868,-0.98089 -0.53904,-0.74669 -0.0215,0.48509 0.77907,2.19934 0.94812,2.03029 0.0611,-0.0611 -0.12298,-0.63873 -0.40908,-1.2836 z m 44.51992,-2.63337 c 2.57927,-2.5895 2.99736,-3.11535 3.08071,-3.87468 0.0417,-0.38028 0.22057,-0.86572 0.39738,-1.07877 0.17682,-0.2130398 0.25056,-0.3873598 0.16387,-0.3873598 -0.0867,0 -0.66287,0.6901698 -1.28041,1.5337098 -0.61754,0.84355 -2.14668,2.674 -3.3981,4.06768 -1.25141,1.39368 -2.52036,2.83151 -2.81992,3.1952 -0.73139,0.88801 1.69997,-1.29075 3.85647,-3.45578 z m -41.87701,2.51206 c 0,-0.5048 -0.12003,-0.91781 -0.26673,-0.91781 -0.14671,0 -0.26673,0.48719 -0.26673,1.08266 0,0.65386 0.10564,1.01739 0.26673,0.91783 0.1467,-0.0906 0.26673,-0.57787 0.26673,-1.08268 z m 28.45585,0.63257 c -0.0852,-0.21279 -0.14834,-0.14959 -0.16114,0.16115 -0.0116,0.28117 0.0515,0.43871 0.14009,0.35009 0.0886,-0.0886 0.0981,-0.3187 0.0211,-0.51124 z m 5.597,-0.12781 c -0.0978,-0.0978 -0.17782,-0.0177 -0.17782,0.17782 0,0.1956 0.08,0.27562 0.17782,0.17782 0.0978,-0.0978 0.0978,-0.25784 0,-0.35564 z m -4.71227,0.0445 c 0,-0.0734 -0.06,-0.13337 -0.13337,-0.13337 -0.0734,0 -0.13337,0.06 -0.13337,0.13337 0,0.0734 0.06,0.13336 0.13337,0.13336 0.0734,0 0.13337,-0.06 0.13337,-0.13336 z m 0.91987,-1.80045 c 0.40217,-0.69684 0.66485,-1.26698 0.58375,-1.26698 -0.18154,0 -1.50362,2.22909 -1.50362,2.53517 0,0.29916 0.0749,0.19586 0.91987,-1.26819 z m -1.54224,0.68906 c -0.0978,-0.0978 -0.17783,-0.0177 -0.17783,0.17783 0,0.19559 0.08,0.27562 0.17783,0.17781 0.0978,-0.0978 0.0978,-0.25784 0,-0.35564 z m 9.95801,0.0445 c 0,-0.0734 -0.06,-0.13336 -0.13337,-0.13336 -0.0734,0 -0.13336,0.06 -0.13336,0.13336 0,0.0734 0.06,0.13337 0.13336,0.13337 0.0734,0 0.13337,-0.06 0.13337,-0.13337 z m -6.33966,-0.86688 c 0.20225,-0.40343 0.60081,-1.08782 0.8857,-1.52087 0.49513,-0.75266 0.49611,-0.77898 0.0222,-0.59712 -0.3817,0.14647 -0.45845,0.0931 -0.33363,-0.23227 0.11323,-0.29506 0.0292,-0.39654 -0.27851,-0.33644 -0.24235,0.0474 -0.47368,0.3118 -0.51404,0.5877 -0.0404,0.27591 -0.20175,0.62999 -0.35862,0.78687 -0.42924,0.42924 -0.34265,0.7911 0.14458,0.60413 0.3094,-0.11873 0.38412,-0.052 0.26673,0.2382 -0.0897,0.22171 -0.23592,0.58317 -0.32497,0.80322 -0.28169,0.69611 0.1068,0.43208 0.49056,-0.33342 z m -32.07392,-0.81595 c -0.004,-0.3887 -0.0398,-0.39574 -0.26264,-0.0509 -0.33758,0.52236 -0.33758,0.87546 0,0.66683 0.1467,-0.0906 0.26489,-0.36781 0.26264,-0.61589 z m 34.27922,0.48253 c 0.0906,-0.1467 0.10484,-0.26674 0.0315,-0.26674 -0.0734,0 -0.20755,0.12004 -0.29821,0.26674 -0.0906,0.1467 -0.10484,0.26673 -0.0314,0.26673 0.0734,0 0.20754,-0.12003 0.29821,-0.26673 z m 5.57686,-0.4001 c 0.24031,-0.36676 0.39506,-0.66684 0.3439,-0.66684 -0.0511,0 -0.37492,0.30008 -0.71947,0.66684 -0.34455,0.36675 -0.49931,0.66683 -0.34391,0.66683 0.1554,0 0.47917,-0.30008 0.71948,-0.66683 z m 2.17564,-2.77278 c -0.0724,-0.11716 0.22417,-0.55391 0.65906,-0.97057 0.4349,-0.41665 0.79072,-0.8681 0.79072,-1.00322 0,-0.34211 -2.53232,2.50876 -2.54101,2.86065 -0.004,0.15703 -0.10411,0.46557 -0.22275,0.68562 -0.11863,0.22006 0.15811,0.004 0.61497,-0.47968 0.45686,-0.48388 0.77141,-0.97564 0.69901,-1.0928 z m -5.84687,-2.07883 c -0.0978,-0.0978 -0.77121,0.47366 -1.49642,1.26994 -0.7252,0.7963 -1.324,1.31869 -1.33066,1.16089 -0.007,-0.15782 0.29899,-0.57792 0.67921,-0.93358 0.38023,-0.35564 0.81475,-0.88669 0.96559,-1.18011 0.15085,-0.2934 -0.27815,-5.3e-4 -0.95333,0.65106 -1.12126,1.08192 -1.19217,1.22367 -0.81849,1.63658 0.37891,0.41867 0.50969,0.34573 1.77054,-0.98743 0.74877,-0.79172 1.28138,-1.51952 1.18356,-1.61735 z m -34.0469,0.18378 c 0,-0.1467 -0.0529,-0.26673 -0.11762,-0.26673 -0.0647,0 -0.19182,0.12003 -0.28248,0.26673 -0.0906,0.1467 -0.0377,0.26674 0.11762,0.26674 0.15536,0 0.28248,-0.12004 0.28248,-0.26674 z m 34.67523,-1.7337598 c 0,-0.0734 -0.06,-0.13337 -0.13336,-0.13337 -0.0734,0 -0.13337,0.06 -0.13337,0.13337 0,0.0734 0.06,0.13336 0.13337,0.13336 0.0734,0 0.13336,-0.06 0.13336,-0.13336 z m 5.86812,-2.53396 c 0,-0.1467 -0.12711,-0.26673 -0.28247,-0.26673 -0.15536,0 -0.2083,0.12003 -0.11763,0.26673 0.0906,0.1467 0.21779,0.26673 0.28248,0.26673 0.0647,0 0.11762,-0.12003 0.11762,-0.26673 z m 1.36776,-1.46036 c 0.0103,-0.45015 -0.49426,-0.44906 -0.66713,10e-4 -0.11404,0.29717 -0.0371,0.40406 0.24796,0.34469 0.22729,-0.0473 0.41591,-0.2031 0.41917,-0.34613 z m 0.23264,-1.34034 c 0,-0.0734 -0.06,-0.13336 -0.13337,-0.13336 -0.0734,0 -0.13337,0.06 -0.13337,0.13336 0,0.0734 0.06,0.13338 0.13337,0.13338 0.0734,0 0.13337,-0.06 0.13337,-0.13338 z M 425.48261,69.917312 c 0.009,-0.49212 0.52097,-1.0424 0.5253,-0.56495 0.002,0.24807 -0.11595,0.52522 -0.26266,0.61589 -0.1467,0.0906 -0.26489,0.0678 -0.26264,-0.0509 z m 5.5973,-1.54949 c 0,-0.0734 0.06,-0.13337 0.13336,-0.13337 0.0734,0 0.13337,0.06 0.13337,0.13337 0,0.0734 -0.06,0.13336 -0.13337,0.13336 -0.0734,0 -0.13336,-0.06 -0.13336,-0.13336 z m 0.26673,-0.53345 c 0,-0.0734 0.06,-0.13337 0.13336,-0.13337 0.0734,0 0.13338,0.06 0.13338,0.13337 0,0.0734 -0.06,0.13336 -0.13338,0.13336 -0.0734,0 -0.13336,-0.06 -0.13336,-0.13336 z m -5.86813,-1.46704 c 0,-0.19559 0.08,-0.27562 0.17783,-0.17781 0.0978,0.0978 0.0978,0.25784 0,0.35564 -0.0978,0.0978 -0.17783,0.0177 -0.17783,-0.17783 z m 4.69636,-0.15518 c -0.089,-0.23204 -0.1619,-0.73884 -0.1619,-1.1262 0,-0.70097 0.002,-0.7018 0.52597,-0.17823 0.35015,0.35021 0.47349,0.72668 0.36899,1.12621 -0.18318,0.70029 -0.50289,0.77803 -0.73306,0.17822 z m -1.65441,-2.01988 c -0.11791,-0.1908 -0.0732,-0.23555 0.11763,-0.11763 0.16937,0.10467 0.30794,0.24325 0.30794,0.30795 0,0.2225 -0.23553,0.11716 -0.42557,-0.19032 z m 3.41358,-2.37 c -0.51317,-0.6978 -0.74304,-1.2268 -0.57751,-1.3291 0.15122,-0.0934 0.19418,-0.40039 0.0955,-0.68207 -0.15289,-0.4362 -0.085,-0.41852 0.45774,0.11923 0.43805,0.43401 0.53243,0.67044 0.30195,0.75637 -0.24433,0.091 -0.18436,0.33699 0.22098,0.90623 0.30595,0.42968 0.51073,0.91787 0.45506,1.08488 -0.0556,0.167 -0.48482,-0.21799 -0.95368,-0.85554 z m -7.70023,-0.43387 c 0.0978,-0.0978 0.25784,-0.0978 0.35565,0 0.0978,0.0978 0.0177,0.17782 -0.17782,0.17782 -0.19561,0 -0.27563,-0.08 -0.17783,-0.17782 z m -1.02245,-0.62225 c -0.0906,-0.1467 -0.0449,-0.26673 0.10188,-0.26673 0.1467,0 0.34091,0.12003 0.43158,0.26673 0.0906,0.14671 0.0449,0.26674 -0.10189,0.26674 -0.1467,0 -0.3409,-0.12003 -0.43157,-0.26674 z m 11.0694,-1.46702 c 0,-0.0734 0.06,-0.13337 0.13336,-0.13337 0.0734,0 0.13337,0.06 0.13337,0.13337 0,0.0734 -0.06,0.13337 -0.13337,0.13337 -0.0734,0 -0.13336,-0.06 -0.13336,-0.13337 z m -12.2697,-0.41584 c 0,-0.15536 0.12003,-0.2083 0.26673,-0.11763 0.1467,0.0906 0.26673,0.21779 0.26673,0.28248 0,0.0647 -0.12003,0.11762 -0.26673,0.11762 -0.1467,0 -0.26673,-0.12712 -0.26673,-0.28247 z m 9.08783,-0.89503 c -0.19892,-0.23969 -0.28256,-0.51492 -0.18585,-0.61162 0.2491,-0.24911 0.78195,0.34413 0.65397,0.72809 -0.0736,0.2207 -0.21815,0.18473 -0.46812,-0.11647 z m -10.95497,-1.08974 c 0,-0.0734 0.06,-0.13338 0.13336,-0.13338 0.0734,0 0.13338,0.06 0.13338,0.13338 0,0.0734 -0.06,0.13336 -0.13338,0.13336 -0.0734,0 -0.13336,-0.06 -0.13336,-0.13336 z m 10.25824,-0.68462 c -0.29056,-0.47014 0.0157,-0.53606 0.5639,-0.12135 0.45128,0.3414 0.45896,0.3899 0.0629,0.39735 -0.24807,0.005 -0.53017,-0.11954 -0.62686,-0.276 z m -4.52349,-0.51573 c -0.0906,-0.1467 0.0152,-0.26672 0.23525,-0.26672 0.22006,0 0.47428,0.12002 0.56495,0.26672 0.0906,0.14671 -0.0152,0.26674 -0.23525,0.26674 -0.22005,0 -0.47428,-0.12003 -0.56495,-0.26674 z m 0.54755,-0.77775 c -0.0859,-0.13896 -0.0424,-0.32292 0.0965,-0.4088 0.13896,-0.0859 0.32292,-0.0424 0.4088,0.0965 0.0859,0.13896 0.0424,0.32292 -0.0965,0.4088 -0.13896,0.0859 -0.32291,0.0424 -0.40879,-0.0965 z m 7.97422,-0.54178 c -0.74104,-0.26384 -1.76129,-0.69848 -2.26722,-0.96587 -0.65091,-0.344 -1.52432,-0.4905 -2.98691,-0.50104 -2.39952,-0.0173 -2.69913,-0.50558 -0.38544,-0.62817 1.1571,-0.0613 1.89441,0.084 3.17972,0.62647 0.92033,0.38845 2.30326,0.90448 3.07317,1.14674 0.76992,0.24225 1.40008,0.53049 1.40035,0.64051 7.9e-4,0.29697 -0.51294,0.21569 -2.01367,-0.31864 z m -19.85789,-0.0141 c 0.22006,-0.14221 0.64016,-0.25855 0.93357,-0.25855 0.44174,0 0.46467,0.0445 0.13336,0.25855 -0.22005,0.14222 -0.64016,0.25856 -0.93356,0.25856 -0.44175,0 -0.46467,-0.0445 -0.13337,-0.25856 z m -1.43295,-0.24821 c 0.41699,-0.45292 2.11009,-0.81064 3.70017,-0.78177 1.23431,0.0224 1.17469,0.0498 -0.8002,0.36709 -1.17361,0.18857 -2.37391,0.43253 -2.66732,0.54214 -0.41255,0.15411 -0.46529,0.12522 -0.23265,-0.12746 z m 24.51671,-9e-5 c -0.0844,-0.13656 -0.0423,-0.31699 0.0935,-0.40096 0.31534,-0.19489 1.09535,0.0978 1.09535,0.41107 0,0.31567 -0.99278,0.30724 -1.18891,-0.0101 z m -26.15118,-0.28516 c 0.0906,-0.1467 0.28487,-0.26674 0.43158,-0.26674 0.1467,0 0.19255,0.12004 0.10188,0.26674 -0.0906,0.1467 -0.28488,0.26673 -0.43158,0.26673 -0.1467,0 -0.19255,-0.12003 -0.10188,-0.26673 z m -1.91159,-0.17782 c 0.0978,-0.0978 0.25784,-0.0978 0.35565,0 0.0978,0.0978 0.0177,0.17782 -0.17782,0.17782 -0.19561,0 -0.27563,-0.08 -0.17783,-0.17782 z m 26.24033,-0.88914 c 0.10219,-0.39079 0.006,-0.53626 -0.35839,-0.54391 -0.31572,-0.007 -0.1695,-0.15301 0.39961,-0.40009 1.03798,-0.45065 1.74117,-0.50816 1.5031,-0.12293 -0.0906,0.1467 0.0223,0.26673 0.25099,0.26673 0.2287,0 0.38759,-0.09 0.35308,-0.20005 -0.12031,-0.38352 1.2008,-1.88977 1.54249,-1.75865 0.37709,0.14469 1.82531,-0.69327 1.59543,-0.92315 -0.0782,-0.0782 0.0567,-0.36207 0.29975,-0.6307 0.89485,-0.98881 -0.82966,-0.20233 -2.71958,1.24027 -1.68235,1.28416 -4.88477,2.45198 -4.58541,1.67213 0.0977,-0.25442 -0.49593,-0.32412 -2.50543,-0.2942 -1.64582,0.0245 -2.63341,-0.0633 -2.63341,-0.23414 0,-0.38174 -2.059,-0.0379 -3.12358,0.52165 -1.02592,0.53921 -1.19339,0.43007 -0.91833,-0.59844 0.23591,-0.88206 1.44685,-1.28747 3.37508,-1.12997 1.01325,0.0828 1.03377,0.10149 0.40772,0.37206 -0.65874,0.2847 -0.65858,0.28501 0.21179,0.41275 0.47905,0.0703 0.93283,0.0278 1.00838,-0.0945 0.0755,-0.12225 0.43743,-0.22226 0.80419,-0.22226 0.37663,0 0.59509,0.11608 0.50198,0.26673 -0.21114,0.34162 -0.21809,0.34234 1.43451,-0.14842 2.3387,-0.69452 4.08031,-2.54742 5.20635,-5.53904 0.75265,-1.99961 0.68092,-2.11338 -0.61327,-0.97272 -1.07327,0.94595 -1.28772,0.87534 -0.71358,-0.23494 0.65132,-1.25951 -0.0106,-1.33807 -1.18207,-0.14031 -1.14358,1.16927 -1.66902,2.34712 -0.9186,2.05916 0.38484,-0.14767 0.42117,-0.0447 0.25939,0.73519 -0.26453,1.27517 -1.53399,2.79149 -2.26614,2.70682 -0.31977,-0.037 -0.83879,0.11306 -1.15339,0.33342 -0.31459,0.22036 -0.75534,0.3992 -0.97943,0.39743 -0.22409,-0.002 0.11042,-0.29927 0.74334,-0.6611 0.63293,-0.36186 1.28129,-0.63047 1.44082,-0.59694 0.28668,0.0603 1.54277,-1.54562 1.54277,-1.97238 0,-0.12137 -0.30789,-0.10362 -0.6842,0.0394 -1.21267,0.46106 -1.73918,0.11627 -0.62628,-0.41013 0.30616,-0.14482 0.78082,-0.77434 1.0548,-1.39896 l 0.49815,-1.13564 -0.6547,0.16432 c -0.88822,0.22293 -0.8257,-0.0581 0.12192,-0.54816 0.5374,-0.2779 0.73774,-0.55026 0.65041,-0.88421 -0.0723,-0.27637 0.1088,-0.69528 0.42367,-0.98025 0.53755,-0.48646 0.54989,-0.48593 0.54989,0.0238 0,0.2868 -0.15004,0.6792 -0.33342,0.87202 -0.23055,0.24239 -0.0865,0.22505 0.46678,-0.0563 0.44012,-0.22373 1.15274,-0.77757 1.58362,-1.23077 0.8602,-0.90477 1.21708,-1.03153 1.21708,-0.43228 0,0.46011 0.57343,0.30443 1.66549,-0.45217 0.40256,-0.2789 0.94874,-0.47037 1.21373,-0.42548 0.72937,0.12357 2.5611,-1.47286 3.77402,-3.28921 1.47735,-2.21236 1.35849,-2.34326 -0.42751,-0.47082 -1.42612,1.49514 -2.02948,1.86886 -1.50546,0.93248 0.34694,-0.61994 3.85124,-4.15504 4.11885,-4.15504 0.44455,0 0.22259,1.00308 -0.43705,1.97512 -0.36676,0.54044 -0.67003,1.06732 -0.67394,1.17083 -0.0148,0.39222 -3.12654,3.99429 -4.66071,5.39516 -0.88022,0.80375 -1.6367,1.54029 -1.68108,1.63674 -0.0444,0.0965 -0.31445,0.44492 -0.60015,0.77433 -1.11115,1.28116 -0.44817,1.08308 0.76364,-0.22816 0.70569,-0.76361 1.42588,-1.38839 1.60039,-1.38839 0.45251,0 0.48677,-0.048 -1.42973,2.0005 -1.90098,2.03185 -4.54686,5.73475 -4.09772,5.73475 0.15794,0 0.20574,0.23183 0.11,0.53346 -0.25301,0.79715 0.13081,0.66315 2.15871,-0.75365 1.01326,-0.70791 2.23258,-1.45749 2.70962,-1.66571 0.47703,-0.20822 0.83193,-0.48481 0.78865,-0.61464 -0.0433,-0.12981 0.2645,-0.57921 0.68394,-0.99865 0.41944,-0.41944 0.70113,-0.86212 0.62598,-0.98372 -0.0752,-0.12161 0.097,-0.38949 0.38253,-0.59531 0.28555,-0.2058 0.51918,-0.52775 0.51918,-0.71541 0,-0.18767 0.10719,-0.34122 0.23819,-0.34122 0.13102,0 0.30836,-0.18282 0.39411,-0.40627 0.28878,-0.75257 -0.79967,0.0604 -1.88117,1.40508 -0.56009,0.69638 -1.30377,1.49749 -1.65262,1.78025 -0.34884,0.28276 -1.00574,0.85342 -1.45978,1.26812 -1.1976,1.09383 -1.41148,0.92412 -0.38829,-0.30811 0.48506,-0.58417 1.01732,-1.06429 1.18278,-1.06693 0.36794,-0.006 3.30005,-3.30524 3.30005,-3.71338 0,-0.56284 -0.47639,-0.28398 -1.20916,0.70782 -1.12461,1.52218 -2.59264,3.00075 -2.97933,3.00075 -0.5292,0 -0.41135,-0.47677 0.16291,-0.65903 0.67899,-0.2155 3.22538,-3.57052 3.22538,-4.24962 0,-0.0784 -0.18005,-0.0734 -0.4001,0.011 -0.70196,0.26937 -0.38786,-0.27533 0.69651,-1.20787 1.18953,-1.02296 1.63085,-0.92143 0.95655,0.22008 -0.61232,1.03658 -0.5695,1.27038 0.12064,0.65881 0.57282,-0.5076 0.57322,-0.50738 0.39502,0.2254 -0.20271,0.83351 -0.17734,0.84776 0.75392,0.42345 1.32358,-0.60307 1.08594,0.0301 -1.65011,4.39701 l -0.63878,1.01952 0.75005,-0.086 c 1.1332,-0.12987 1.08933,0.38522 -0.0798,0.93727 -0.57049,0.26937 -1.93747,1.37393 -3.03773,2.45459 -2.44947,2.40577 -5.22283,3.84045 -4.87847,2.52366 z m 0.78858,-0.71129 c -0.0978,-0.0978 -0.17783,-0.0177 -0.17783,0.17783 0,0.19559 0.08,0.27562 0.17783,0.17782 0.0978,-0.0978 0.0978,-0.25785 0,-0.35565 z m -3.11189,-1.28921 c 0,-0.0734 -0.06,-0.13336 -0.13336,-0.13336 -0.0734,0 -0.13337,0.06 -0.13337,0.13336 0,0.0734 0.06,0.13337 0.13337,0.13337 0.0734,0 0.13336,-0.06 0.13336,-0.13337 z m 2.13386,-0.25098 c 0,-0.0647 -0.12003,-0.19181 -0.26673,-0.28248 -0.14671,-0.0906 -0.26673,-0.0377 -0.26673,0.11763 0,0.15536 0.12002,0.28247 0.26673,0.28247 0.1467,0 0.26673,-0.0529 0.26673,-0.11762 z m -8.62435,-0.32694 c -0.0978,-0.0978 -0.25785,-0.0978 -0.35564,0 -0.0978,0.0978 -0.0177,0.17783 0.17782,0.17783 0.1956,0 0.27562,-0.08 0.17782,-0.17783 z m 15.29267,-2.35612 c 0,-0.0734 -0.06,-0.13338 -0.13337,-0.13338 -0.0734,0 -0.13336,0.06 -0.13336,0.13338 0,0.0734 0.06,0.13336 0.13336,0.13336 0.0734,0 0.13337,-0.06 0.13337,-0.13336 z m -2.4006,-6.13485 c 0,-0.0734 -0.06,-0.13337 -0.13336,-0.13337 -0.0734,0 -0.13337,0.06 -0.13337,0.13337 0,0.0734 0.06,0.13336 0.13337,0.13336 0.0734,0 0.13336,-0.06 0.13336,-0.13336 z m 0.47234,-0.88355 c 0.16003,-0.48009 -0.39129,-0.37921 -0.57734,0.10564 -0.0997,0.25977 -0.0401,0.38171 0.15483,0.31674 0.17431,-0.0581 0.36444,-0.24818 0.42251,-0.42238 z m -6.87392,11.95294 c 0,-0.14671 0.12003,-0.26673 0.26673,-0.26673 0.1467,0 0.26674,0.12002 0.26674,0.26673 0,0.14671 -0.12004,0.26673 -0.26674,0.26673 -0.1467,0 -0.26673,-0.12002 -0.26673,-0.26673 z m -1.33367,-0.26673 c 0,-0.14671 0.18006,-0.26673 0.40011,-0.26673 0.22005,0 0.40009,0.12002 0.40009,0.26673 0,0.1467 -0.18004,0.26673 -0.40009,0.26673 -0.22005,0 -0.40011,-0.12003 -0.40011,-0.26673 z m -6.93504,-3.33412 c 0,-0.22005 -0.12425,-0.40009 -0.27612,-0.40009 -0.57899,0 0.27672,-1.00907 1.0026,-1.18229 0.4073,-0.0972 0.96875,-0.24488 1.24768,-0.32819 0.38663,-0.11548 0.46784,-0.0491 0.34179,0.2794 -0.0909,0.23698 -0.0491,0.43088 0.0931,0.43088 0.64197,0 0.1665,0.8658 -0.66664,1.2139 -1.18377,0.49462 -1.74232,0.49025 -1.74232,-0.0136 z m 7.73524,0.13337 c 0,-0.1467 0.13304,-0.26673 0.29565,-0.26673 0.16261,0 0.8215,-0.57014 1.46419,-1.26698 0.64269,-0.69683 1.16982,-1.10392 1.17138,-0.90464 0.003,0.36339 -2.35563,2.6969 -2.73116,2.70224 -0.11003,0.002 -0.20006,-0.11719 -0.20006,-0.26389 z m 3.46753,-0.10902 c 0,-0.0508 0.18004,-0.24177 0.4001,-0.42439 0.23061,-0.19139 0.4001,-0.21732 0.4001,-0.0612 0,0.14897 -0.18005,0.33994 -0.4001,0.42439 -0.22006,0.0845 -0.4001,0.11197 -0.4001,0.0612 z m -6.15891,-0.96269 c 0.79362,-0.43745 1.55089,-0.79536 1.68282,-0.79536 0.47022,0 -0.11117,0.54955 -1.13277,1.07073 -1.65685,0.84527 -2.14226,0.60225 -0.55005,-0.27537 z m -8.04461,-0.43855 c 0.18338,-0.074 0.48346,-0.074 0.66684,0 0.18338,0.074 0.0334,0.13453 -0.33342,0.13453 -0.36675,0 -0.51679,-0.0606 -0.33342,-0.13453 z m 7.26847,-1.1191 c 0,-0.15026 0.12047,-0.34767 0.26771,-0.43866 0.14725,-0.091 0.19987,-0.43576 0.11696,-0.76612 -0.0992,-0.39539 0.0436,-0.82281 0.41771,-1.25064 l 0.56846,-0.64997 -0.15525,0.72641 c -0.1268,0.59329 -0.076,0.696 0.27712,0.56049 0.33024,-0.12672 0.27928,0.076 -0.21569,0.85807 -0.64033,1.01177 -1.27702,1.49062 -1.27702,0.96042 z m 12.80317,-0.97156 c 0,-0.0734 0.06,-0.13336 0.13336,-0.13336 0.0734,0 0.13337,0.06 0.13337,0.13336 0,0.0734 -0.06,0.13337 -0.13337,0.13337 -0.0734,0 -0.13336,-0.06 -0.13336,-0.13337 z m -11.20277,-3.55421 c 0,-0.21665 0.16308,-0.30787 0.39279,-0.21972 0.2262,0.0868 0.563,-0.0922 0.79407,-0.42216 0.52669,-0.75197 0.78757,-0.46558 0.38357,0.42111 -0.34159,0.74971 -1.57043,0.92247 -1.57043,0.22077 z m -0.26673,-1.11359 c 0,-0.1956 0.08,-0.27562 0.17782,-0.17782 0.0978,0.0978 0.0978,0.25785 0,0.35564 -0.0978,0.0978 -0.17782,0.0177 -0.17782,-0.17782 z m 5.60138,-0.9493 c 0,-0.26731 -0.11909,-0.34051 -0.33341,-0.20496 -0.18338,0.11599 -0.69097,0.23044 -1.12797,0.25433 l -0.79454,0.0435 0.5945,-0.48139 c 0.32696,-0.26476 0.59449,-0.61219 0.59449,-0.77205 0,-0.15987 0.17023,-0.29066 0.37828,-0.29066 0.20806,0 0.5573,-0.0687 0.7761,-0.15266 0.25365,-0.0974 0.4636,0.0546 0.57936,0.4193 0.17278,0.54442 0.21346,0.52929 0.84496,-0.31413 1.63444,-2.18294 2.04192,-3.51877 0.99304,-3.25552 -0.66382,0.16661 -0.68749,0.13603 -0.51227,-0.66175 0.32538,-1.48145 -0.77328,-1.13048 -1.34774,0.43055 -0.25643,0.69684 -0.56644,1.38101 -0.68888,1.52037 -0.32705,0.37221 -0.27556,-0.58971 0.0657,-1.22734 0.48348,-0.9034 0.0204,-0.90512 -0.91003,-0.003 -0.48423,0.46933 -0.96255,0.77122 -1.06293,0.67083 -0.35121,-0.35121 -0.17775,-1.08216 0.37566,-1.58299 0.79231,-0.71704 1.18016,-1.48086 0.6483,-1.27677 -0.55911,0.21455 -0.51061,-0.25753 0.0815,-0.79339 0.84638,-0.76596 1.51449,-0.46101 0.7792,0.35565 -0.24601,0.27322 -0.16243,0.26374 0.3188,-0.0362 0.35871,-0.22357 0.70436,-0.56296 0.76812,-0.7542 0.0685,-0.20579 -0.007,-0.2717 -0.18544,-0.16148 -0.16573,0.10245 -0.30133,0.0592 -0.30133,-0.0962 0,-0.15536 0.22722,-0.28247 0.50492,-0.28247 0.27771,0 0.57459,-0.18152 0.65973,-0.4034 0.12354,-0.32195 0.008,-0.36824 -0.57161,-0.2293 -1.74346,0.41785 -3.49693,1.70678 -4.2291,3.1087 -0.21321,0.40823 -0.50908,0.66717 -0.65751,0.57544 -0.72179,-0.44608 3.37398,-4.5425 4.26207,-4.26277 0.76916,0.24228 2.04032,-0.25853 1.94886,-0.76781 -0.11787,-0.65629 1.8761,-3.13877 3.79187,-4.72084 2.25652,-1.86347 5.18793,-4.75822 5.7078,-5.6364 0.23882,-0.40343 0.58838,-0.73351 0.77681,-0.73351 0.81253,0 0.0635,2.39129 -1.50394,4.80118 -1.43747,2.21012 -1.48691,2.31627 -0.77642,1.66708 1.18685,-1.08442 1.38708,-0.49324 0.45307,1.33758 -0.5133,1.00616 -0.69521,2.17191 -0.81765,5.24015 -0.038,0.95128 -4.22187,5.62528 -5.03544,5.62528 -0.19271,0 0.0354,-0.39798 0.50683,-0.88441 0.47146,-0.48643 0.77676,-0.96487 0.67842,-1.0632 -0.19459,-0.1946 1.18556,-1.37895 1.62991,-1.39866 0.15029,-0.007 0.23825,-0.17174 0.19544,-0.36681 -0.0428,-0.19507 0.0785,-0.54971 0.26969,-0.78807 1.82783,-2.27969 1.60319,-3.40621 -0.28175,-1.41294 -0.92551,0.97867 -1.77933,1.64637 -2.10533,1.64637 -0.30163,0 -0.62263,0.19341 -0.71334,0.4298 -0.11802,0.30754 -0.0503,0.38579 0.23819,0.2751 0.22173,-0.0851 0.40313,-0.016 0.40313,0.15357 0,0.16955 0.33664,-0.0143 0.74811,-0.40847 1.17634,-1.127 1.34435,-0.83662 0.19624,0.33915 -0.56707,0.58074 -1.11206,1.00581 -1.21109,0.94461 -0.099,-0.0612 -0.76747,0.69395 -1.48543,1.67812 -1.2937,1.7734 -3.62164,4.32337 -3.94694,4.32337 -0.093,0 -0.169,-0.18714 -0.169,-0.41585 z m 4.73802,-7.28829 c -0.0386,-0.23716 0.0688,-0.40487 0.23872,-0.37269 0.47503,0.09 3.5139,-3.09561 4.38142,-4.59296 1.11336,-1.9217 0.96289,-2.32759 -0.34726,-0.93668 l -1.12493,1.19428 -0.26141,-0.91144 c -0.20069,-0.69976 -0.17947,-0.93875 0.0913,-1.02903 0.70469,-0.23489 1.39945,-1.14054 1.12699,-1.46909 -0.18015,-0.21724 -0.065,-0.54412 0.36946,-1.04908 0.73552,-0.85483 0.9203,-0.90772 0.93196,-0.26674 0.0116,0.63998 0.74369,-0.30865 0.97773,-1.26698 0.0896,-0.36675 0.29441,-0.75501 0.45519,-0.86279 0.18045,-0.12096 0.11603,-0.19753 -0.16828,-0.20005 -0.25334,-0.002 -0.6653,0.30828 -0.91546,0.69006 -0.25016,0.38179 -0.91309,0.98344 -1.47318,1.33701 -0.56009,0.35358 -1.01834,0.78194 -1.01834,0.95193 0,0.47057 -0.82894,1.28461 -1.30833,1.28482 -0.26715,1.2e-4 -0.43996,0.25161 -0.46448,0.67595 l -0.039,0.67575 0.62644,-0.67594 c 0.72571,-0.78304 1.04979,-0.88226 0.68319,-0.20917 -0.47248,0.86756 -2.28537,2.44598 -1.91471,1.66709 0.27035,-0.56808 0.20618,-0.54029 -0.43332,0.18771 -1.25322,1.42662 -2.02049,2.49899 -1.88497,2.63453 0.0707,0.0707 0.32754,-0.17536 0.57085,-0.54669 0.54762,-0.83575 1.11434,-0.92184 0.67594,-0.10267 -0.26849,0.50167 -0.24392,0.55616 0.19854,0.44045 0.46846,-0.1225 1.15601,0.32364 1.15601,0.75012 0,0.10184 -0.51014,0.66009 -1.13362,1.24053 -0.62348,0.58044 -0.92356,0.98605 -0.66683,0.90137 0.54645,-0.18024 0.60582,0.10011 0.13336,0.62997 -0.28399,0.31846 -0.26369,0.3211 0.1369,0.0177 0.25866,-0.19588 0.4387,-0.55018 0.40009,-0.78734 z m 1.1301,-3.76536 c 0,-0.1956 0.08,-0.27562 0.17782,-0.17782 0.0978,0.0978 0.0978,0.25785 0,0.35564 -0.0978,0.0978 -0.17782,0.0177 -0.17782,-0.17782 z m -1.95605,2.4895 c -0.0978,-0.0978 -0.17782,-0.0177 -0.17782,0.17782 0,0.1956 0.08,0.27563 0.17782,0.17782 0.0978,-0.0978 0.0978,-0.25783 0,-0.35564 z m 1.82268,-5.42356 c 0.0906,-0.1467 0.10484,-0.26673 0.0315,-0.26673 -0.0734,0 -0.20755,0.12003 -0.29822,0.26673 -0.0906,0.1467 -0.10484,0.26674 -0.0314,0.26674 0.0734,0 0.20754,-0.12004 0.29821,-0.26674 z m 6.00148,-5.46802 c 0,-0.0734 -0.06,-0.13337 -0.13336,-0.13337 -0.0734,0 -0.13337,0.06 -0.13337,0.13337 0,0.0734 0.06,0.13337 0.13337,0.13337 0.0734,0 0.13336,-0.06 0.13336,-0.13337 z m -16.27068,19.15848 c 0,-0.58143 1.83307,-3.27686 2.2332,-3.28384 0.12799,-0.002 0.0978,0.15859 -0.0672,0.35736 -0.16498,0.19878 -0.60978,0.94896 -0.98847,1.66708 -0.86903,1.64797 -1.1775,1.9779 -1.1775,1.2594 z m 1.06692,0.2778 c 0,-0.34299 1.11888,-1.9653 1.35542,-1.9653 0.36447,0 0.30365,0.2422 -0.31023,1.23551 -0.49539,0.80152 -1.04519,1.18543 -1.04519,0.72979 z m 5.86813,-0.49809 c 0,-0.0734 0.06,-0.13336 0.13336,-0.13336 0.0734,0 0.13337,0.06 0.13337,0.13336 0,0.0734 -0.06,0.13337 -0.13337,0.13337 -0.0734,0 -0.13336,-0.06 -0.13336,-0.13337 z m -5.32618,-4.28336 c -0.005,-0.15534 0.16775,-0.51542 0.38314,-0.8002 0.21538,-0.28476 0.39543,-0.39067 0.4001,-0.23533 0.005,0.15535 -0.16775,0.51544 -0.38314,0.8002 -0.21538,0.28478 -0.39543,0.39067 -0.4001,0.23533 z m 10.66082,-1.85135 c 0,-0.0734 0.06,-0.13337 0.13337,-0.13337 0.0734,0 0.13337,0.06 0.13337,0.13337 0,0.0734 -0.06,0.13336 -0.13337,0.13336 -0.0734,0 -0.13337,-0.06 -0.13337,-0.13336 z m -12.26969,-1.06679 c 0,-0.0734 0.06,-0.13337 0.13336,-0.13337 0.0734,0 0.13336,0.06 0.13336,0.13337 0,0.0734 -0.06,0.13336 -0.13336,0.13336 -0.0734,0 -0.13336,-0.06 -0.13336,-0.13336 z m 0.80019,-0.81593 c 0,-0.22871 0.12199,-0.34045 0.27109,-0.2483 0.14909,0.0921 0.20203,0.27927 0.11762,0.41584 -0.22865,0.36996 -0.38871,0.30098 -0.38871,-0.16754 z m 4.26772,-1.59928 c 0,-0.31995 2.16864,-3.31952 2.39995,-3.31952 0.13542,0 -0.25118,0.78019 -0.85911,1.73376 -0.95751,1.50191 -1.54084,2.10224 -1.54084,1.58576 z m -2.39524,-1.59221 c 0.18558,-0.22359 0.39233,-0.35161 0.45947,-0.28447 0.18497,0.18498 -0.19086,0.69101 -0.51322,0.69101 -0.17687,0 -0.15663,-0.15304 0.0537,-0.40654 z m 5.3293,-1.59396 c 0,-0.0734 0.06,-0.13337 0.13337,-0.13337 0.0734,0 0.13336,0.06 0.13336,0.13337 0,0.0734 -0.06,0.13336 -0.13336,0.13336 -0.0734,0 -0.13337,-0.06 -0.13337,-0.13336 z m -4.77832,-1.57925 c 0.50736,-0.85992 1.52525,-1.93103 1.28749,-1.35482 -0.23748,0.57555 -1.4544,2.26082 -1.63478,2.26394 -0.10507,0.002 0.0512,-0.4073 0.34729,-0.90912 z m 7.44565,-3.75541 c 0,-0.0734 0.06,-0.13336 0.13336,-0.13336 0.0734,0 0.13337,0.06 0.13337,0.13336 0,0.0734 -0.06,0.13337 -0.13337,0.13337 -0.0734,0 -0.13336,-0.06 -0.13336,-0.13337 z m 1.86713,-0.53346 c 0,-0.0734 0.06,-0.13336 0.13336,-0.13336 0.0734,0 0.13337,0.06 0.13337,0.13336 0,0.0734 -0.06,0.13337 -0.13337,0.13337 -0.0734,0 -0.13336,-0.06 -0.13336,-0.13337 z"
         style="fill:#000000;stroke-width:0.0705729"
         id="phoenix_path" />
    </g>
  </g>
</svg>
